<mxfile host="app.diagrams.net" modified="2024-01-18T04:18:04.086Z" agent="Mozilla/5.0 (Windows NT 10.0; Win64; x64) AppleWebKit/537.36 (KHTML, like Gecko) Chrome/120.0.0.0 Safari/537.36" etag="RPKIrJsW3rrIRlZ0v4hl" version="22.1.21" type="github">
  <diagram name="第 1 页" id="1nuvhHkbx5h8IBwp8I_V">
    <mxGraphModel dx="1834" dy="772" grid="0" gridSize="10" guides="1" tooltips="1" connect="1" arrows="1" fold="1" page="0" pageScale="1" pageWidth="1169" pageHeight="827" math="0" shadow="0">
      <root>
        <mxCell id="0" />
        <mxCell id="1" parent="0" />
        <mxCell id="GpXcR-mMxEbLVVYIbUpR-1" value="" style="shape=image;verticalLabelPosition=bottom;labelBackgroundColor=default;verticalAlign=top;aspect=fixed;imageAspect=0;image=data:image/png,iVBORw0KGgoAAAANSUhEUgAAA1UAAADECAYAAAB3LQu9AAAAAXNSR0IArs4c6QAAAARnQU1BAACxjwv8YQUAAAAJcEhZcwAAFxEAABcRAcom8z8AAP+lSURBVHhe7F0FmBVH1iWum/zZTTaCBHcYGGDQGUbxGdzd3d3dnYS4bzZG3JVkE+LB3d0lTpDA+c+p6n7vzTAEkgAzDHW/d7/2ft1163af07fqViY4ceLEiRMnTpw4ceLEiZO/LI5UOXHixIkTJ06cOHHixMnfEEeqLhH5/fcT2L/jEHas24Otq3dhy6qdTs+Dblu7B3u27Mfhn494Je/EiRMnTpw4ceIko4sjVZeA/HDgJyz6eBXee+pzvP3Yp/jgP1/gg6e/dHoe9N3HP8Pbj/4PX76xBLtJrpw4ceLEiRMnTpxkfHGkKoPL93t/xIfPfImPnvkK6xdtw871+7Fj7V7sWOP0fOjOtfuwbdVuQ6refPhjbFy2zbOEEydOnDhx4sSJk4wqjlRlYDn62zF88sI3WPDKIuxctw/bV+/B1pW7nZ5n3bZqD3awvBfPX4N3nvgM+7Yf9CzixIkTJ06cOHHiJCOKI1UZVE6ePInt63bj7Uc/DQD9lODf6flTQ6zW7MXnry3GF28s9qzixIkTJ06cOHHiJCOKI1UZVI4dPY5v3l2Ghe+vxPbVe1MF/k7PrypatfzTdfj05e/w06FfPMs4ceLEiRMnTpw4yWjiSFUGlcM//4aPnv0Sa77a7KJUaaRqbrn22y1Y8OoiEqzdnmWcOHHixIkTJ06cZDRxpCqDikiVsvwJ1DtSlTa6jaRq/Xfb8DlJ1dZVOz3LOHHixIkTJ06cOMlo4khVBhWRqg+fdqQqLTUZqVrtSJUTJ06cOHHixElGFUeqMqg4UpX26kiVEydOnDhx4sTJpSGOVGVQcaQq7dWRKidOnDhx4sSJk0tDHKnKoHI+SNWO9T/iwNZfsH/9fmxLZfvWlbtIHvZj7+ZfcGDDAWxPdZ8/1m1rv8eBLT9j95qLnwg6UuXEiRMnTpw4cXJpiCNVGVTONanatnoXVnw0H288+yY+/HQLtq/Zy/Om2G/VPmxbvBIfv/wm3np3GdYt34vtKff5A9V1rv/8K7w17118/fV2nu/iJlaOVDlx4sSJEydOnFwa4khVBpVzSqpW7cWuDdvwTKdC+EemTMicMBEffXsAu9fuS7bf9vW/YOc7cxGXIxNuTZqATxb+gH1rz/K/+R871+zDZxMTceXlmdDp/hXYtubQnyJl6U0dqXLixIkTJ06cOLk0xJGqDCrng1Q93z0ct5JUZcqUBTVHfoT16w5hB4mDv58hVe/ej8p5L8NdtSfhf3+KVO3hufZi8XPT0apJczz02gaSkv2nRsMuInWkyokTJ06cOHHi5NIQR6oyqJwfUlUSd1x1Da6+gsQqexVMe3Mj9q/fF+hfZUnVA6iS73JkrjM5BakiaVr3Aw5u+w0/7z6Gn3f9hkObv8fOEFK2hbpzywngJ/42KQq2y6r5/5/w/Y6j9tidR3jsD9iVSr8rEbG9m3/Fj7uO4ZddR/Hj1p+we+3eU/ZTU8Xdm37GDzznL+acp17P31VHqpw4ceLEiRMnTi4NcaQqg8q5J1Vb8WzXcNx1XX7UbFATea67HHmrjMNnS37Ebo+InJZUiehs/AGbPnkfD48die4tO6BTp7G45/EFWLHye+zfIAK1B9tX78Xy157A0H5D8Py7m8z/blt7CHvX7sbi15/HlL790LFFR3TuNgJzHv4Ai5cdxO51Spqxi4RsD3aStO1Zvg4fPHYfhnXqjHZt+mDo1Jfw5bf7sH/jIWw3+5HsrFHTxe346rknMKFvH7TlObt0HY/7nliAVSsPYC+J4tYVqZTDn1RHqpw4ceLEiRMnTi4NcaQqg8p5IVVdiuHO68tg/FMfY26Dorg8UzYkjfoUG7ccxA7ulyqpWr8fO9fuxCf3jUTV8Nz45+25UbhwcRS6OzvuvL0AKraYhje+2Ik9mw5i15p9WDC5Fq67JhO6PrCC5/sZe1dvwlvTuiMyT3bcnT0MxYuHoUCOf/PYXChfYwJe+Xgbtq0TSdpP0vYuxjSNQZ67/oV/Zy+CIoUL4Pbbc6B4xe54/M2N2LH+kOm3tX3VKrw8sgVK5rwbWfIVQ6kiRZD3zqy47Y7CiG47G+98vtMSq5Tl8CfVkSonTpw4ceLEiZNLQxypyqByvkjV7deWwOjnN2L9/KdQL+dlyJSjMqa+tRmHSEJOIVWLfsLBjfux7NnxiMp6Pa4r2gwTH/kAC+YvwVfvvId7O9XEnTdch/yt5uDLJYfw/YYD+GJmM9x1+z/R77E12LPtB6x8bgYq3/pv5KwyHM+98S2++d8ifP76O7i3dTn869Y8aDTpc2zg/+5e+g3ubZgbN1x7GxI63INX31qIr+Z/g9en9ESZm2/Ev0sOxAtf7ML+zfuw+KkRKHjXTSjeeAZeev0bLPp4MT5/6zWMrFUSd95SCL3u/wqbNnyPHX+zP5cjVU6cOHHixIkTJ5eGOFKVQeW8kaprwjH8v+uxZ+s+/G9qS2TLlAmFqs3Elyt/xt5NyUnVp0t+wYG132BG5WwkO2UxgmTswM5fsZ+EZf+2o/hp02LMqVMA11wbgSEPL8eeHT/i6wCpWs99duOTCS1wW6ZcqHPvchz9/jgObSZR234U+5cuxfuvvIV3PtqIHWv3Ytl/RqLQtVchW80Z+GbdYfy87Ufs2/wrftnxA+aPbYg7rv8nGk38BFvWHcCHIyvj8luyot9/d+PI7t9wcMvP+H7XYez8dhHmP/MGPvnfemxUevjUyuJPqCNVTpw4ceLEiRMnl4Y4UpVB5bySqv+swnYSlr2Lv8aM2vmQ6YoCaDR1AXbtPo49AVI1BZ+RVO398lk0Ikm6LWo8PllxMGRQ3z3Ys+0Ilj7UFsVvvApxvV7Byo2/YeFsj1Q9uhZ7t36PJc+MR/zNV+MfBWLQbdQTeOudFVizbDd2rv8R328/jIObvsfuFRvxcp9yuOrmHGj/wHKSJGUl3Gv6aO3ceATfz38EUbmuxz/q3Itvl+7HyicGIv9VV+HOfDXRb8LzeO/DldiwnPtu+BGHdhy2yTdWKElGinL4k+pIlRMnTpw4ceLEyaUhjlRlUDnfpGrr+u+xd9NBrH57LmrnuAxXFqiNhz78GT998kiAVC0gqdr9xnSUufU23N7hOaxdtS9Zdr3tG37D1tenITZ7JoS3ehCLVx7BojnNPVJF4rb+J+xbuRKvjmiDAjdfi+tvuhW3//su5MhfFvXbj8dTr63ExjU/YfeylXig1XW4+qZ/oXrLkRg7aAxG9B9tdeB4TOjdHqX/dQ0yhfXEy1/sxv6Vq/FU70Rkvfka3Ph/vLbbMyNHwTg06T4LL7+9EpvW7v/bTf+kjlQ5ceLEiRMnTpxcGuJIVQaV80+qDmL7moPYv34z3pvQDNmuuBzF6z+FL999BrULXREkVa9PRenbSIY6PY/1p5Cqw9jy+nTEkFRFtHsES1Yfw8I5fqSK/7HmEHZv+AH7NuzBqo8/xH8nDEOz6Ahk+df/4eYbb8SNN5dAp9nfYcOydXi0/Y244sqrcOvt2ZDlrizIHKJavuu2f+O2+OF4bcEO7N/6C697J5a99yEeGdkXtSoWwZ233Ix/3PgP3JwlAf0edH2qnDhx4sSJEydOnJy9OFKVQeWCkCqSjh3rfsTuhZ9jYp1cuOqmMmjRoy8SCl2HbHW95n+fP436//4Xbovj8soDIWNLqfnfYSx+uB2K3Xg5Ynq+hBUbjgSb/z22muffi3VfLcaXX6zFhtWHsGf1bmxauh0bvlyMN2f2QKmbrsbVhQfhLW5/qW9p3Hh7fox8diM2LVyP5V+uwfKvqJyuYBlsWrEbW1bsou7Ays8WY/Fn67B13ffYuWoXNi3bjrVfLcJLo1oh341X4NZqI/DuVwdwYF0q41v9CXWkyokTJ06cOHHi5NIQR6oyqFwoUrV15V7s3vI91rw2DXVzXIvrr/8Xbrz2ahRoMt2QqgNrvsSk2My48YaKGP/KFhzY/gv2rT+EvVt+w49bluPBxmG44aqi6HnvIuzY/hO+nuWRqic2YN+qDXhzWE3kLFYJA57cjF92H8GBzT/i4LZj+GXrlxhe8C5ceU1bPPf5Fnz3aD9ku/lWVBv+EfbuOI6f+T8HlIBi5xEcXLUOn775ET74eB02L92AZ7rEo1jhqpj+9m78sIP7bfoJB3cBxxe+iabF/oHLSnXBc5/uxSEzflaKsvgT6kiVEydOnDhx4sTJpSGOVGVQuXCkirr6AA5u3Iq3h7bE3ddkQqZMmVC4+Uwvpfo+LHpiKCLuuB43l+mCuc99ge8WrMLiTz7HU/2bIcdNV+Hu2pPw4TeHcGjjAXwZyP6nRBUHsfixUSh74/W4K6Y3HnvtWyxasAaL//cdXp/QAYVvvBnZmj2Mr1d+j12LP8G4hMy4+aYS6DTxdXz84TIsWbAcX77zPua0j8VNN9+OyP4vYfXK/Vj0UC9kveUq5K01CvNe/Q6LvlyFJZ9+jWcGN0b2m65HZNfHsHjFTyFJNf6aOlLlxIkTJ06cOHFyaYgjVRlUzjmpIml6qnUOXJMpF/o/vjI5qaJuW/sz9i3+FCPq5MJlJFV31JqE+d/9iP0a/Hf1Vrw7rTfK58+KW+4qhIjSkYjInxd3/SsHStQZimc+2EzSdgi71mrw39q4/trLvMF/f8Helevw8pi2KJbtZtxyZ26UjIhHhYhiyHlnDoRF98XT72/FtnUHsWfdPqx79zn0iivG82ZB1kKlUaFMWRTOdjf+dUdeVKg/Bq98shU7Nn6PHSuW4b/9a6Lg7Tfj1sxFUapCFMqHFcLdWXKiVN0xeOnTbdi9cb9Lqe7EiRMnTpw4ceLkrMSRqgwq55ZU7cGOtTvw8f3D0a35CDz77kZsXbOP5w3dbw92bT6EVa8/hKEtWqPX1DexaMkB7FotcrEfe0ma1r7/GmYN7I0WtRuicdMBmHjfh1i07CD2GQKzx6RAX/rifejeoSueepP/sWoftq89hL2rd+DreU9gVKeOaMJjm7ToifGzXsPXi/Zj97oD2L5yF7as3Iud6w9h56IleGn6RHRp3gz1azdBq7ajce/jn2Ll6gPYY1Kl83rW6Lo2439P3I+hnduhQa2GaNpsICbP/RBLl+la92Mr90tWBn9BHaly4sSJEydOnDi5NMSRqgwq55RUSUkydm06jB93/oq9a1M/3xbus2P9T/h+51H8QIK1Y5XIjr+dxGzdDzi47Tf8tOsoftp5GIe4T2g2QKnSqP+44wj2Bf5jl9f8kOflenPsjt947A8hSS+CKsK0d/MvvM6j+Nns+ysObNS4VSn2JWHbvfFnfL/9iN2P13Mwlev5O+pIlRMnTpw4ceLEyaUhjlRlUDnnpMrpn1ZHqpw4ceLEiRMnTi4NcaQqg4ojVWmvjlQ5ceLEiRMnTpxcGuJIVQYVR6rSXh2pcuLEiRMnTpw4uTTEkaoMKo5Upb06UuXEiRMnTpw4cXJpiCNVGVQcqUp7daTKiRMnTpw4ceLk0hBHqjKoOFKV9upIlRMnTpw4ceLEyaUhjlRlUDn8yxF89MyXWPP1Zkeq0ki3k1St+24rFpBUbV+327OMEydOnDhx4sSJk4wmjlRlUDl25Di+eWcZvnt/pRlUNzXQ7/T86o61+7D80/X49KXv8MP+nz3LOHHixIkTJ06cOMlo4khVBpWTJ09i6+pdeO/JBWbgXheturCq8hap+uK1xfj89UWeVZw4SVs5/ttvOPbLL06pxw8f9krFiZOLV44e/x2//nYMh48cd0o9ceKkVzJOnFx4caQqA8tvvx7FJ/O+wWcvLzTRqu1rXMTqQqjKeee6fVj00Wq8/5/PsXvzfs8iTpyknfyyayc2znseW159GVtee+WS1/XPPI0Dy5Z6pePEycUnvxw+hve+3oK3v9yCjxbuwIeXsOr+3/lqG75auQe/kGQ6cZIW4khVBpdDe34wwP6TF77F6q83YwcB/64NB7Br/f50r7t5nbs3Hkx1W3rWDYu346u3luK9Jz7DhiVbPUs4cZKGcvIkdsz/CMvGjcHO5/6Lnc8/c4nrs9j4wH1YPn0K9i92kWQnF5/8TEL1DsnUE++tx1tf78Z7C/fh3UtYP1i0H/P+tx2Pvb0GW/f86JWSEycXVhypugTkEB8wX7+7FJ/M+xbzn/0a85+7OPTTFxfi85cX4+Pnvkl1e7pTlu3HnH78/Demyd+21bs8CzhxkrZy8sQJ7P7sU2x56gkcW7YEx5YvtdNLVpfi95XLceDtN7Fy1gzsW7TQKyknTtK/iFApOjXvk61Ys+sYthwCNu0/eUnr1oPAwk2H8cqCrdi+9yevpJw4ubDiSNUlJLs27sOKL9dj2YK1WL5gXbrWxZ+swvCe41AvoQk+e/ObVPdJr7p5xQ4c+fWoV+pOnKS9+KRq8+OP4sii73Bk8UI7vcT1OAnW/rfewMrZjlg5uTjEJ1Qv/G8rVu04ZgjFuj2/X/K6cd9JfLP+F7z82RZHqpykmThS5STdSo9e3ZE7b07sO7jXW+PEiZO/Io5UnUZZDopc7X/zdaycMxP7uezESXoV9aF65ysboVq186gjVCHqSJWT9CCOVDlJl3L06FH07t0bhQsXxs6dbuBcJ07+jjhSdXo9KmK1dAn2ecTKRaycpEexhGor5ilCtdNFqFKqI1VO0oM4UuUkXYojVU6cnDtxpOqP1RArE7F6zRKrhd95JefESdrLL78d9yJUWwyh2ugI1SnqSJWT9CCOVDlJl+JIlRMn504cqTqzBojVG69h1ZxZJFYuYuUk7UVjUL3rR6h2HDXkITVScamrI1VO0oM4UuUkXYojVU6cnDtxpOrsNNAUkMRq5WzXFNBJ2sqvR47j3a+DTf427DuRKqFw6kiVk/QhjlQ5SZfiSJUTJ+dOHKn6E+pHrNTHSlkBuezEyYWWwyJUJkK1Bat2HXeE6gzqSJWT9CCOVDlJl+JIlRMn504cqfqTegqxcgMEO7lwIkL1ntfkb7WLUJ2VOlLlJD2II1VO0qU4UuXEybkTR6r+mhpi9ZaI1UzsX7LYK00nTs6fBCJUXlKKDXsdoTobdaTKSXoQR6qcpEtxpMqJk3MnjlT9dT22bGkgYuWIlZPzKSYpxddb8YJPqFyE6qzVkSon6UEcqXKSLsWRKidOzp04UvX3VBGrAyZiRWK11BErJ+defvGy/FlC5bL8/Vl1pMpJehBHqpykS3GkyomTcyeOVP1NDfSxslkB9y9d4pWsEyd/XxShUh8qEaqVSpvuxqH60+pIlZP0II5UOUmX4kiVEyfnThypOjd6nMTKT7d+YNlSr3SdOPnr8utvx/He11vx/MckVDuPYpMjVH9JHalykh7EkSon6VIcqXLi5NyJI1XnSL2I1b43XsXKOS5i5eTviQiV+lAZQrXDEaq/o45UOUkP4kiVk3QpjlQ5cXLuxJGqc6dmgGARq9dfscTKJa9w8hckSKg2O0J1DtSRKifpQRypcpIuxZEqJ07OnThSdW7VEKuli7H3dUWsZjli5eRPiRmHysvy5wjVuVFHqpykB3Gkykm6FEeqnDg5d+JI1bnXYMTKawroiJWTs5BQQrXKJaU4Z+pIlZP0II5UOUmX4kiVEyfnThypOj+aMmJ1wKVbd/IH8hsJ1fvfbPMiVMdIBNw4VOdKHalykh7knJOq338/gePHj1N/N/r773Z6nNPf/XXe1KzTdm/q76vt/vrQ5dQ09NjUlo2G/JevgXP7y9rH38+f9zT0uFBN9b/+QAPnD13nrQ9dl2ybp8nKwLsuc5y3/rffjphpRpFLgVQZG59rXwnZnlJDj01t2WjIf/kaem5zLf7/EKifoL/L5309oXWpqNn3LNT+h1cm+o8QDb2OlGq2eeqXiVHvekOP++2338x/XUriSNX5U0usgskrDrjkFU5Skd+O/I73v/YJlcahcoTqXGpGJ1V6Z+ndFXi3eeq/88w7zlP/nWe2+ftoGrrdW+9vS01Tbkt1X52TU3+bOaf/H/62kGWzX8i2P9JU/+806p8/2foz/I+51tB13v7mGE+FR7TtbOWck6q3334Hs2bdg/vvfwgPPPCQmRrl/APe/AP3P8zlhwPLKVXrUx4buj1U7zvD8v3mv1Lf7777QpY5f999D9r9zHxQQ48L1eTnfDBk/o+U1xOyfMq9GtW57PnMdqnKz6gtN6kpU93bfQ/giSf+g71793lWuPjlUiBV8+a9iHvumWvtHFoHZFdjY9n6T/rKH2hqPhC6fDa+4vvE3LkP4N57709V584NUW/53nvvC6y7d+59p+xnj73P1OXgvZ7JV3w/Ob2vPOit88tU53/mmefw008/e1a4NMSRqvOsIlZ+U0CXbt1JCjlylITKi1Ct2nEMG0gAUiMGTv+6ZnRS9fPPv+DZZ58377DgOzD4brPvQB8r2He5v95XLfsauv50embMQOV7NnSbjxd8NetCls1+Zt6+t/9I7/Pe7WejQWyg6/EwgcEByfcLxQxmH19DcJaZPvCgmd5LjPb88/M8K5xZzjmp6tChM+64Iyvy5i1ELYg8eQqaqV22mi9vYTvPbWa7prn9fbXdat48dv88nPqaO9l8QeTmcVpnlPO5pOa8IcfxHGY//YfZ39svVwGu0zZqLm0vYNZrPpfUO8YcZ87pnZf7a177++tz59G5vO2Bfb1jvfX2npNvt/eoee9cZn/NFzDl4qtfJoGyMWVqNWuWHOjffxB+/PFHzwoXv1wKpCoxsTay0HamXpg64NvU1hX5ibU1VXXDqwvn0le0PvSYVH2FfpLMV7g+c+a7ccMNN+H66288S73hNPNBve7aG1iXs/N+inj3rGuy92rvXfeoed9XrJ+cta9wW/a7c2PSpCk4cuSIZ4VLQxypugDqEys/YrVsmVf6Ti5lUR8qP0K1audREioXoTofmtFJlTDRlCnTkSNHXvv+896PPg4w78zAfAqM7b3Pk70X9T71NBkG8NTHyRYv2Pd+EDP4/0/lubTs4wbtk0tY2mAG/3hODcb29DT4OoBHtM5s89713vn9+WTrvPX+/dv19jhbHtruYwapjxssJkiJG3y8kCcvcQWnwtfVqiV5VjiznBdSdadHqlTY5qby0cD57Ly9SYLFPIXtTXo3FJj3t3uVQtOg8TjPdXnMsVRDbqzm5bI0sG9AraF846lyGKPT4LZw7X7B7Vbz5LbnUuXMn9+CPGOowD6qMMHjdS3+dv9eAsp1FhDqOmk8T5Pvo3MJHGpq12n/PJ6BrdELo4C5Fm6XwXVOrpfRBwwY7EjVRSZJSXWM7aydbf1IzVfsQ8+rE97Urx+p+4rnH1x3PnxFmjlzdlx22eXIlCnTOdXMmbMhfz6fVKXuK9bvLJHy12n/ZL7CcpSvyE+sr3A/HidSNWXKNEeqHKk6b2qJlTdA8HJHrC5l+dUkpRChsmnTHaE6f3opkKpp02YGSZXekcQKBjOY978wg8UDFjfo3Wjfoz6G8LcHSJc3te91Dyt483r/m+PNuaTCuP6+/v6ahmIGixd8QuW/n4O4Oaj23IU8TKv/E87g+cx2i6/9/aRm3iynUK4L4GueJ583b85vVPv4mEHT4LG2bKzmY1n6WN9gCXOegsiS+W5Ur17Ts8KZ5ZyTqo4duyDzXXcbQ+fjBeoiCxQoivwF7HxACZwClUH7+prfkhiplvPnL2rOY7dzauY9zavzcDvndT57Ti3bdeYYFrIlY/ovb56FJeMZZsp9bMXyVJWHU51bxxbitRcuXNxchwWp1nC+ofOGHi/jmHm7j9S/hvyc5te9aeqpvSe73WfJ+Y2TWNX+/lT7q/IVVFl663Ws9r87W04MHDjEkaqLTGrVrIu7s+YydjyTr9h6Zm0e0NR8xdR7T816T/+2r9j/tHW6CLJmzYkrrrgyVWL0V1UkLWvW7KzjYbwXW+dT8xVbDmfwFZahfCWw3RxbCDlz5HGkSuDfkarzqoGIlYjVCkesLkXROFRq8ucP7CvQnxoZcHpu9FIgVdNJqnLlys93Gt9nfL/rPWcwg+Y9LGDmzXud72/vvee/u/N62/13vr+/OZ9Z52tR7m+nZh+uMzjEWxfcL4gVzPn5XwFsHFina/DmPXztr9M1hxUO5z2EBY8xU/8cVP/atRxyXnPNmlINTvDxkJn3rs3bJzXMYO4/RH3MEMASWs/5bFlzIDGxlmeFM8t5IFWdceed2e3NEeRpKqMXMPN22d4Mp17h6OJNAVHzeobyjabjTAVR4XnH2ZuWIVXIdj9T0CHH2SZEtjDFqE2hmv257P2vOc7sr2Vvf8/o/j7+9Wu7WLpvWHsu7a/zi0xpnXdN5rzB+7JGs/8Tqma7jktlvdQ4iaYBkG3PEziOqkqSzZGqi1JqklRlzZbLs+2pvhKsC35dtst+PUkrX9H8+SZV9n+CGqjzocveVHomX8nv3ZO+8jlSReDvSNX5Vb8poN/HasVyzxJOLgVRhEpN/szAvttd2vQLoZdKpCpnzvzmnWzwgt75HmYwuEHvOxECbrPver7HDRGy78tk7329H5MdZ9WfF74NYgMdGzzOECuzXucP4gYTvdJ6s6xjdA5vnhokTlJ7nfZ9L3xd0MMpPMbsp3mdUzjEW+Z+Oqe9j+D73+Jriw+0nz44m2XNe/uGqjlGGMFT4QdDUnkeQ7zyqmVYIS4TX5NU1aiR5qTKRqqscTzDmYu1BrFgT9MUN+lvNwViC8/ua5mxjGEBo93PGkCFbQ0WUN+gRn1Da1+FAQsht+ZD9jXnNJXHrjeVwDOmPZedD5Aqbx9jbLOsUKF3HnNtwfvxwXGwIgSNrH3Mep5fx9pjLEO2jqFzhuxvzq997Tq7f2HcfXcuR6ouQjGkyotUWZvb+iJfMfO+/hlf8b4i+XVU89K/6iv2YWa3m/NR9T9Z+aA5X6RKX63OxleMj/hTloP8MLC/rjXUV8y0EF9IjlT5oP8UIuD0nKqfFXDv66/YPlaOWF0S4vehEqFa4Qb2vWB6qZEq864TNvDIgMUDwgCWrFiMoP00b9/bwX38bSJUUmEGrjPntfsZTGwwg96jFlMENIAbLK4IkCrha2+bWefNhx6v//Dn9Z/CGBZfq0mePZe/TwBjGw1em65XWMlMzb1xu973AbX3a3CDuX4t63ipxQ358wfxg1mv/QLHatnuo6BFGkequprmf75x/Qu0GiwQy461bG/UFICMqnkdy+3+l3EDsGQULauwOQ2oV/jGAIF5+z9Sv6Joqm25c1NpHGMsgUbfgP46qvp72Ypi9/Erlqk0Wuf9j+ZD1xvjef9pKirvw1yHt7+/r+ZlQH/Zn7fAz+4X3G4Zs4xtQaPdZgyucqFmu9tFqi5GqVmzHh3Wi1Sl8BW//mrb2fuKfEJ1S1Ov3pl1ngbq4V/zFfNQ43r9txJsnBdSlYWkKj9JVaD+6z/9+aBfmLJIts6PFmubXT7VVxSpcs3/DOh3pOqCqD9A8N7XXjbjWB10xCpDiwjVB99sw3Pz1YfqCDYdcITqQumlQapmmeZ/PvYzpIrTZJiBajCDjz+97QYz6F0YWB/cbj5YevNaZ+d9zKD3qcgPt2nZrA8eH8QNHmYwuNrDxAZL220+ybJRKGELH1dwav5D273jtD/X+a3AAufz/td8PBbu4X72v4PHB3CAt97HCT6+9petCl/rnrWvMINd9stUH2uzZlOkKo37VN1FUmXbd1oDWoPaG/IN7rf5NADR7KPC0s0FjWVuloUYKACz3RaUDGyAoWew06ndR/vzPNxXIFFGt6yYBvPAogxuWLbWq1IEWLM/b43rs2kzr6/5/j7eOmsw/z50/cF1dr2nWucf468j6DPOwf3Ml3azzS83ex6p35TJbitEoztSdTGK+lSJVKXuK9YvQgnV2fsK65rZrjrHusnlc+krerBlyXy+SZW9fqO6p2S+Yut9qK/oAXxGX+FD0zX/c6TqQmtKYuWSV2RM0cC+H3zrIlRppZdanyqDBTzMYN97IZiBU/uutOt98mXXhWIGvc/tu9V/5/rLoZjB4ls7H1RLqIK4wRKlAGYIYGgdb89h1hnV+oIesfLwhf5TmJrL5nxG/fXJr9Heg67Bvt/N9Zh9/O122SS68paTqfbTcQZHWE2GF6TeeiUTS+Pmf10NqQoAQc/w/s0UoBY0BraGNRXB2xa4WW/e7MNlw2LNtuSFJ/UZrl9BzP4Cg8YgnnpG85d9YmRIkTGuNU7AkP7+XBe6vzGuZ/CAob15ez2W5Rpj8npNOJLbzLzZ7lV8c+/e9WpKDTiGKSsZ199WkOu03Ro5pWq9S1RxcUqtWl6kyqsPp/gK5/+MrwT8wWzz6qSpn7bu/S1f0TTgK4XNg+a8Nv/jf9j7Td1X5BP2wXp2vmIfmgVd8z9HqtJEjy5ZhGNLF2Pvq45YZUT57aglVM95fagcobrwekmQquk2UuW/8w1m8N6JWmcwg5JXGBzh4QZvH/OODLwrvXcrly1+1fvRvttTYoZAsgt/u9aHYAOj/rwhVHZd6PZQzGyxRJBEadnfbo+x28y6kGMD63QNgWuy6l+rXy7mvc91Pjbw7z8UX9l1Okb4IHTeTv35bFnV/K+2Z4Uzy3mJVKlPlQU3nkFDjGrX2RuyN+/fXNDI9oa0n98/xBaSKUyBOqphx6kpC90YThowrtRLpegZ3WyjAc18yPkswLRGDwWX9rxemkcZ3Tc81Sdlxrjm+uz+p1ZY3Zf9H82fUgZemdlK4h1nyial2v+SGlLlmv9dlOL3qUrdV4Lzp9QTbTP1xK8P+jIV0pfqfPmK2dcem+U8JarIYiJVCuv/sa+obHS/Z+srNvonUuWa/xmg70jVBVfbx8ojVvc4YpVRRAP7fvjtdhuhckkp0kwvlT5VOXKkiFQRP1jMrHVWtWwwReg707wv+T71t3mYwccNQVxgMYP/DvXXaerjYdOKxeAFDydoDCoPL1u8YNViBnuMjjdYW8vmOLu/6b9t9rHp2O15UmBsXY/e4WZ/ey7z7jfzNhplMIDUm7f36N+7vRe/DHzc4O9vNFCOwfUmUUW2HEhMy0iVGafqzmy8GWs027TJ3pzmzbK5Od1AiMH9/TwjqwlQfqOh7SalfgXwKoinIjaG3HiF7hvUGtAztFnWfr4RPaMLMHoG9iuBP1BZ8HhbaWwO/mAl8M9jrsP8vz2/rQy6Nms8zQcNbtdr2RjeKwfdt8rAzlv1ncQvQxk8UBm8412iiotTkpJEqnJ6tj3VV2zdkH9YnzD1wdQJbz+zXcf5vuKRKlO/pGf2lUD9Dp0P+IrWB+u47weaF/k5X6TKPOxVv3mv9ppP9RX//n0/set8Vfkk9xVLqgq7SJUjVWmqoRGrVS5iddHLkWPHDaF6wWvyt9GNQ5VmeumQqnze+8428/Pfdz5mUDeAZLiB71Dz7uR2s8ypbSKorgXBj7E+VgjOWyxhx5QNYobT4YYATghVDzMY3BCyfzIc7W8Pxdfe+QL4g+9vi6/tevte1zXaef9azZT3brbz/W/um8umvMx8cNnXIGawWCGgPF5lqtZEaZuoooMiVT6p8m7Cm7epH7XOGtOu1836N2j3L1gwjPuF8cZsJfALzhiYagvVFqBfoMYAngGtMayxrHG8dVzOxWWp9s3lH0Mj2sHK7D5GPeMGlj21Rrdf8kP313Vo6rNvQ6w49Vm45n1DaV+feKlJkpka48oBggDQVpKCpnzUbFJRKc3be/aOocrojlRdfFIzGamydd+fl6/Ydb6fSJP7inypYMFiqfiKrTt/7Cuql55fUP/QV7icS+s17/mEBv8916Tq8ssvN+c1D3pTv1P3Fb88jK/45WHuL7mvaL3WmWPMPi6luiNVaa+BrICmj5XLCnixypFjwQiVHYfKEaq01EuFVOUKkCofFwgv+ESJyyGYIXkiC01tCvMCBYrxfehjBh8f+O9RX+371wQKPCzg49sgZrDLekcbTM1li4tD5oUZDL7WVOukPr7WeThv1gXxteYtDpFq3j/Ozodia1/1fvev2eAYTk/B1yoHb9liJG+bsJfWGcwRxAxSNf9L2z5VHTrjLkOqbN+pACP2jGxIldQDhZZkeTdp1hVFoUIiVUW9glPB0MBiqV4ByOA+a7YFY+d9I9t9LXiU4YxyvW9EdbjPz2U/lGiNGdzHzoeQqsBUxvcqB9UYTv8rpSH031ofCFua9dbAvqF8w8t4oZVA12uNaLdpOZnBPUCtqV1nwaPUkaqLU0Sq5LCp+YrvJ/5QBKn6Ch+O8hUdo7rm+0PQV+wD87S+onr5F3wld65CuOs8kCobqbJNh8/GV8x6Ts/WV9S+2pEqR6rShfpNAUWs1BRwpSNWF5McFaH6LpiUYgMBfWpA3+mF00uFVOXMmc++0wxGOBVbW5zgYwZuN+9Pixm0f6GCYXZsKK7TuzNU/XVBzGCPNe9+YoIAZvBwgzBCctzA9/MpmMHbx8MVwfkURMvD19pmlqnJMLaWqTqnjwV87G3xtZoB2mv206v7+9n7t1jA4id7r0HcYPGCwQxcb3AEjy/A5WxZc6F69TTM/tchJPufb2Rr+CBgtDdhDe/fnJ331a4zRtY81RjaV1Oo3j40rqkAZr2M7BmDhtRUBszLaSGeo1ShoogpXgxxxYsjukhRxBUNQ1ThoihDlh/OwivKAi6gSmOOLYScXgWQ0UOBptWg0X3j+uvt9Vk1RveWQ6/b3pO3n7lHWx6BMlG5caoy9MtA6lcKO7UVxw3+e3GK+lT52f9S85WgzUPqBevO6XwlmPHvLHzFpD5lXeVD0HyF8uq6fKUwzxFBv4gND0dsseKI8XwlkutK01dK8DpzZhWpuiJVcvRXNbT53x/5SrA8vPtX+XF6Rl/h8S6luiNV6UZFrDRA8Gsax2oWDjpidVHIb6YPlUeo1IfKRajShV4ykSovpXoyzJDPtgILvvvsOzIZ3jaYwttHeEDKeX+4FWEDixnsNpNNOBQzcGpwL3FCEF9zyuWCPE8J4uuoYhZfxxQJQywxQzQxQ9kC3EZ8Hcb3b0Hi5Xxe2nXhax9jB/E1le9+M/XUErngugAWoPrYOjgvYuVdv0+qdL9eeQTun2rK0JtqX/+DtS274DobqUrTlOqdTRMeMWSr1rC6SHtT9gb9mzPrWACh24yxTUEFp8bgKliqKTxTgFwn48qwKnBt1zSnjTIVzF8IpcOKIaF0BJLKlUbL6DIYVCMKvRLKo3W5kugaWQqdy5VA64jiaFwiDHWKh6Fq0SKILlQEZQsWQTEVKg2qc/phSRlfQNRfF2DvWq91mppKYK/XXCeXLePWek+9imCN7jHp0OWAUVU2ljyFdqSzRrfbHKm6OEWk6u5suc/CV3xbn0tfsfXafDCgFuL/li0ejkr0lZrlItA2piyG0Fe6x5VDG/pKN/pKJ/pKK/lKyWKIzJ0L11x5Ppr/2YHDz+Qr/nKwjM7kKzpOKdUdqfIB/Skg32maqEm37g0QfHDlSs9iTtKj2Cx/2804VCJUGxyhSjea0UnVEY9U5TakyotCheAFHxMGMAPfk5omxw0+ZvDVe696WCFUA5jBI1Bap/lcOSzuVTeVUsTXcRGlDL5uXrEM+lSNRJ9K5dG+QgQ6VyiJLuVLoE3p4mhSsrjB19XDiiCmcBGUI74uTnxewLQI4zkNZvfxtfdfHua2/+3hFe86rPL6zdRut1rAvOcNufLvzbz7VR7eMtWWk48POBVe8DBDsBztNpGqNI1U2XGq1C9CAFEMmsYMgEU7lWH9ebveY9DeNmNsgSkWWMD4mvcLkIY16oNHMl+/8MU8wwsXQ0ypkqgdVQ4dqkVjUP1KGFArDsNrxWBO00oYXzsWAypFYggB49C4MhgYHYG+USXRq0I4ehJAdi4bjtalw9GA4LEy2Xb5gmTZ+fS/NHLO/KYC5MyR34xsrf81YUm/ArBCmOxpXGeu11yrBYemsx1V1+xXZBnfhi/9bXbeVgAvnGlU5egb284b5TaXUv3iFBOpyprb84UUviJfML7hqb/+FF9RPQrxlTxcp3nVvVR9xT7AjK/wP0sWLY5YPhTrVSyPTokxxlf614zDKPqIfGUMfWZAQgX6SVkMjbW+0j+K+xfJi+uuOj+kSvd7Jl/xH6Jmm1lnv1Cd1ldUZtzXkSpHqtKj2nGsPGK1yhGr9Cgah0oRqufmb/IiVK7JX3rSSylSZd9rwgP+1LZ2MdiAavGhjxm89dpONckoPIxgmvEF1K7zMYN9tyqqVBg5Db4uYM5VvFAYokuWRFJkWbStUhED6lXC4LrxGFozBtMbJWBSvXgMqhKJQfHliLHLYFCMxQy9K5RAj/IkWmVLoB3xdeNSxVAtrCgqFOI5ia/z8vw5fXJFbG3wNVXkShjaYGtzHXr3W2xgsDePM/g6gAfsfRgNwQxSsw/Vx9daZ8gTCZ6PGWzZecrlrFnTOPufSal+V7aAsXXxmpfBzdd4rwO+b3wLfILzwXCkLRRbCF4BhRjeRII84+ureyEWQGR4CdSPqYCuSXEY3KAKhtevjMF1EjCyYWWMqJeA2c0q45nONfFw6+q4p2kVjE+KwbgqFTCxWiRGVyqHYQSNQ6IJHCtGsAKUDFQAEay6JYohvihBqAxA4+YypErGl8EtmcrJyp4rJw1vQKtNZhEgU7oXTn3DK6OKysZMuc4Ymfcupm0AojkmaHzDplnBA44ig3NZZWb7VA12pOoiEw3+m1V9qmjDU3xFSV0KhDwQPf841Veopq74vuL7yKm+IkKlfYoUKIyKfCg2iotEt5p8GHq+MsTzlZH0lbktq+C/9JWHWlXDnCaVMS4xGuOq0leqRmJspfJoGV4I1191Vark6K/q5ZeRVPnN/3hPp/qK1PeJoK8Y1Xr6SKivJIv8yVeoOU2fqqmOVDlSlb7UawroDxB8yBGrdCWHDaHyIlTbjrhxqNKhXgqkygz+mzOfeZf5OMDH1gUNtvZavJgkFHzvJcMNPmZIjq8NgTJ4wdcgZrAfYtW8rxDKFiuOOlHl0TmRpIl4YSRxgzDD8PqVMKpBJUxrXAlPdaiBx9smGnw9sVYcxhFbC1+PIWYYQYI1RB9mK5ZGH4Ovw9GtXDjalQlH/ZLFUIkEK4K4tgD/T9jaV0ukfLJlp8Lb5v3vESxzLwYX2HuykSkq19sBgIPbkpMqO2+IFacBbG3KzpZbumj+Z8ap4gXZ9op+mNIzuJeZxFYKq340SutUOFqntp0ypgWC1rCWmcrYvhZC0QJhiCFAbBpXAf3rVsLU1km4p0MtzGpXE5Ob18AoGn9c46oYTaA4q0kVEqtqmEmDP9s5CXObVsWE6tGYkVgRU2tUxKRqURhPkjWmcnkMjyuLwTFl0J8Eq1eFUuhSriTalymBxiWLk12HmeaBahpojWyjU7pGs+wbntcnwucbU6xaBvYrtDG4uXet88rC227LxascMrjKSkY3U22zFUEqYO5I1cUngXGqaNOUviI/MQ9HPQy9uvGXfcV7QIYVDENCRCm0iI/EYPrF9Daer7SpiUnNgr4yhr5yT7OqmEX/mNO8Cp4juZrduDIm0EfkK9NJsDqWCcON15xbUhXoU8V7Tt1X/Aehf//edm996r5it1mi5UeqHKlypCr9qckKGEqsVq/yrOckLUVN/pSU4tn5m7B8uyNU6VUvmUiVR6r0nrQkwMPXHrYWhjDvQr7vgrhB70G9M/3lEMzg4QarQcygbeoWEBVeAg2jy6MPCdSUVom4t2NtzG5XC1NbJGJMwyoY3bASxlGnNapEvFAVs6lPtkvEA82rYbKiVx6+nix8rY+ylStgRHw5g68HEF/3Ib7uSnzdgeSqWaniqF4sDOUKFkUhXo+Ppf3+VqalWC5Fr9RtgRib+9j7svjaEioPDyTDDP48Vft4ZWLKSOphBZMRUefjvMEMJFiKVFVPU1LVoQvuulNfm2VcGVDA0DO4ACIv3rBoY3Q7r/V+fvxAVIdqQaJClTSwljk181yvjnHRJUuheXwU+teOx0QacCYZ8v2dauGhLnXxYJd6mNu+Nma2rI5JJFOTmlfH9NY1Mbp+FYyrE4en21XHgwSMY6vL2BUxKykGM5OiqRY0TmMlmFI9kiRLDLss+kdZcuUbvzmNX7NEMZQrTADoGd2qNbhfYUW2dD8G6FKDhvbv01YEAWNTMYxhPYMbIKj1dl9zTEB5LoUsWQ7ql+Oa/118YrP/5T69r9D2vpOn6itevTjVV/xtekAWQmE+ZOMiItAqoSIG1U0wvjC7bRIe7FTb+MoDneviXj4kZ7SojolNqmJyixqY3ioJI7Rv/Xg8074G7mtaGWP4UNTDcU6tWHSrUJyk6upUydFfVTX/y5I5u7nXM/mKnZ6Nr3gPVFO+JFV8IU2ZMt2RKkeq0qX6xGrPqy/Z5BUuYpWmYpJShBKqA45QpVe9dEiVbf5nuwBYvGCzBItoWcwQwA9ab5b1nuR7M+Qd6ZMngxPM+1XrLb7W8RXCS6JxTCT61ozD+GbVML1NDeLr2niYeMHg6451MLtVDUwmZpjI7dOIGcY3robxdePxaMuqeJjkaiIx9SRi7BnE1D6+1vy06tHE11GYQHw9Oq4cBkSVJr4uia5lS6Ij8XUL4utaJYojkvhayS1y5bQkyuBrE8CwybU01ftdeEEYW/dlyobvenOPfP/7WMHga6rBAx42MFOt89YH1MMTilpl1ThVNWp7VjiznIdIVVdk9rL/GYPyoszXdxnZ3KwAoXdTMqLmA+s9A9PYavJjllkhBAyVkc8YnetKFi1m+oD0rZ2ACc1qYCpB4qw2iSRRNfEwQeITPRvgERr93nY1cU/rREzW1/dGVbivQGM1TKqXgIdldOooEqrRlSMxQ4avoaiVDB9jo1ckVZOqVsCEyjQ8mfVQMut+UaXQs7yMX8Iy6wgy67Awkz1QHQiNoY2xbYjSD11akuUb1RrQzJuK7K3zDBswtKZmXs2c/HKyFcYPUWpeg/8OGjjUkaqLTGrWrEdCbLP/WV/xIlWenVX3Q0lFsA6czle0zP3kK1TtV6Z4cTSKrYABdSvzwUdfIXGa1SYJ93WohUe6ylcaGp+5V1Er+spE+srYRlUxoXkNTOD85PoJeLRVVTzQvDJGVI3CuCqRmE0f6Vr2/JCquzJnM/dxRl/xykTlY7bpIWrWpe4rmkr1lW+qI1WOVKVjFbE6qojVKy9aYrVyhWdFJxdSNA7VR99tJ6HajOVq8ucIVbrWS4NUzTLEwhAoYUCDGSxpsh9cLQ5Ijhv0/rP4W8s+kTLZ/cz7k/v4+JpaokgYakaVRc+a8ZjQVPi6mmnNci/x9YOd6+BJYoZHu9U3H2KFGaY1rY4xDapgXNNq3L86JjeohPubVSGpUhebaIwhbphKfD2dRGpmKL6uEeXh63IYk1AOw9UyzA9eEF93LFPCkKvE4mGIKMBrJo62LcCC2NoQLQ9fC3tbzGDv3cwLD/mYwdumj7V2nxBSpfUeZrBlaTGDpsJoSYl1PCucWc4DqepGUmWz/ykkqYv0SZVRAUjP8BYkCRiFVgitC05thIoFxMIpyH2iS5VCm8oVMahOgjHiRII/hSHnkEDd37G2YdAPd2uAR7s34LSeWTeNYHIIK0jfGrGY1joJU1rUwNi6cbjH9BWJwTiSqjk08hwaew4rwT017XSWYdQVafQKGBlXFkNiSmNwdAQGRZdGv8hS6E5W3YnEqg2JVcOSxRFXtCiK0hDW4DSyKkFOVQCvEtB4Pji0FZjLIZXZfpn37l1G9lTHiHGbsjTlKGeyRpeKVA3MAKRq7dq1ePvtt3Hs2DGz3KdPH0Oq9u7da5a/+OILfPLJJ2Y+I0itWvU9UmV9RT4Q8BVDtPTgOxtf0Xb5iuqY9ZXCBYoivkwE2letiMF1K3m+Uh1TWybiHvrKA4pSda2HR+gnj/awvnJfh9qYwofioMQ49E+Kw4y2ahaoL0/ylUoYw4fiBJKqufSPnuWL4x/nmlSpT9VdHqk6k6/49+9pSl+Rj6TmKxrjw0WqCN4dqUrXenTJIjOO1R4Rq3scsbrQ4hMq9aEyhMo1+Uv3ekn0qZo+i1jSZv/zP8QaPQUzWGxg36EWM9iPsXZ96HYfMwh7RJYgkYmPNK2/xjaparoFTCHGnk0scD/xwYPEDMLXjwkzdK1PHFEX04m/h9dOQL8aMSaiNbVlDYyvn4AZDSthArHCeJKqWcTX+hibDF8Tb0+vHoWJVSpgVHw5DCO+HkR8PZjTfiRXJmkc8XVbL+NwZeLr4nyXm6iUwdRU093GC2aYwIWfy0CYKIgZpCnxtTSAGfJZfK1yUqsh4QabhVvZtXMhMTENI1UdOnTFXepTZYwtsGgNLYDjA0bdiL0hgR1bCcxNeDfvT6WGgbJgChUognoVy6EHSVDP6jHow+mI+jRas6rGiPr6fj+ZtJozSR8hk360e308RGY9h9vGNqyMvomxmNwqCdNaJWIoDTqrUQJmU2fVjMZ9NPJcTWtF4/7aMXigdiznY3AvK4CiWJNIrIbHljVJLJTJpF9kSfStUNIktOhWNhztIooZVl07PMw0CczvsWplMJHqPgwjDlHTBlQsOzBv713lo/aclkl7+6u8uM6Wp+ZVCTS1TDojNP/74YcfULduXVSqVAkvvfSSiVSFh4fjs88+Q7du3VCKhPrNN9/09r74RZEqDSwX6iuWDKg/lf0gcfa+Yh8q8hX1nWocWwHdja9Eo29SLEY2UKTKPvBmt0nEAx1q8aFYj8SqrvET6YOd6mBW60SM4gOxP4+Z3sb2Sxyujw2NK2F2A/oL/eSBWrGs9+eeVF122WUmyY158Hk+8ke+ontW+cgPTvUVllMyX1H5kVS5wX8tcHekKt2rI1ZpI4ZQLfQIletDddHopdb8z8fWUuEFYWyDEwxeSI4b/ERNKfG13qG5ONVH2KQKZdGF2Lo7MUMfEqRhdRMwvmlVTPFat8xtl0TMIHxdz+BrESth7XtIuCY0qoIBNWNJxIgxiK9H1YnHVOKI2Q2pxNPC1nOJHe7j9H7iaouvY7mOOLxGNCZXicSI2HI2YCF8Te1LjN2nfEl0LxeODqWFr4uhbngx2ySQ73qLr4WzbZebAF4gPjD3mCpmUJmkghu4HNr6yyjLS+s0ZFEaZ/8TqbKdzU1Y0geKNLrNTuKxZXNTYo3W2CqEvKaNp27GbjdfrFlYqizVy5dBv1rxJt1z18oVSapiMZhsWh3rZ7ZOwhyCwbmKVrWvjfs71sE97etgBo07nTq7NcEhWXe/xDgMb1AVs9vVNokrptSLwz1k05NrVMRMMuZ7yaTvo5FlfH2N93UO109XJztlMCGxGlSxNA1OJl2+hCFVilr1KlcCnUoXR0sy6kYli6NKWBjC8hcKRKvy5LSGldFN+NEY2qaK1D0blq0KobKQYT1DWwexlSAYrvTUW85I41Q9+eSTZlDZf/7zn8iaNStuuOEGZM+e3YDuevXq4fDhw96eF79YUmVTqifzlQIa8VwfIOQfsnPqvqJpSl9R/ykNJTCgVoL5iNCtSkXWe/oKH3ITmlYjabK+cl97++XpPvrKHPrD9JaJmGG2JWEiH5A6ZnRj7t+2Fh+QCZhWPx5zSKomV69o/KHX+YhUqfnfnSRV+oJ2tr5i7v1MvqJ57ePGqXKk6uLS5MRqtssKeJ7l6PETAUK1goRKQD01AO80/eml0vxPH+lFkvxmfz6pKki1mEE4Qe9AHzd4gQyRCuEGb5vBDHw/Cl9XLl0aPfjO75cUZzBDnxqxGFgrDmMaVTZN/2YRR6t7jcUMtXFvh7oWMwhfc/u0ZtUxiJhjaN0qpm+VSNbkevHmQ+xUYuoZxNj3JFa0wQuDry2pUuDiHi7PDLQII7Eivu6nPlYkVErDLnLVi1i7M/F1K+JrkyyumO1yI1xg8DWxTyhmkFrMQA3BDKZvlSkT3b+PG0KmBi/YbQZPkFxlzZo9jbP/dehMYJTVA4oiUTK0jO8BR/+GzIVragvC3DjVsElvuwqiAG8qsQIJFcnUEBq5N43dR5Eqaj8aZmjdShjTUGHK6phJNj2tZQ1M4fz0FvoiT5BIoiWjj2lQGT2qRmNY/aqYS6at/iIPtq6OeV1qYwbPM72qJVUyuKb3SNXHqlpFTKpCQkWDq2/VuAR1rCuLYdG8JhKrHuVKomsZ5d8vYSpBt7IlTHNAZTGpXaI4Igpaw/t9q3zjm6gC19n2oFZNWfDeLbGkUQNMWsuhzmDLzF9WyseBAzIGqRLYrVix4imA+7bbbstQUSqJHacqx2l9xdo/RFP6itSst76iYQXqRotQeb5CH+krX6nh+Uq9yqa/1JRmNayv0EeMr/DhqGiufGVW65ompbp8ZXTj6pjbuR7G8QH5WPtEPNepJqYnxmA2H4Dni1RlMX2qdD9n8BX6gH/v/sPvzL5CUpWdpGqyI1WOVF08apJXLF1CYvWSiVgdWuWyAp4POXbsBOaLUH3sEar9bmDfi0kvmUhVjnzmfWfxgh230v8g67dw8vG1IVMebhBmsAmttE4Ywo7rWrlMBLoTVw8mZhCZErbuXT3WtHAZXDfB4GvlIhBmmEkSNalJVWKGGiRaSaYrway2NTGeeFrHDq5TGTPb18bU5jVwP/H1sx1rYk7deIOjhal9fG01hmQqGhOJr4WtDb6uVAGjSKyGxZTFgMjSJn+B0q53L1cCvYmxuxFrtyW5ak6MXZfkqmwh4iTiAR8bmA+vxAqapsQMplkgy8PgBmEFv6xMOYUQrZChWkRKlf2vRloO/tuepOoOfW3mxZiQpAGH/gWTYOjijcFtVMpm8uKypwEQpcgOC6FuxbI0agLGkvUOIMnpUbWi6RulSFX/mvEYSYOPb56ImW1r4d721Ha1TD8qJap4uFMdzFU/kebVMYzkqxcrSb+aCXiwewNMZqWY0aQSXuxaG/fz/DOqRhoWbSJVntFnK4JVLQpTqmhsngoYHV8eY+LL0ehlMTKmDIlVaQyKiqCxS6JT6RLoFFEMPUiqVAHa0fAtIpR/PxzlC7Hi8540gJrfx8pkCpSxOR8gXObeOc/7NhXAn8q4LBsLGL2yMlMLIrNmy4kBGSj7n5r+XXPNNckAd5MmTXCCwDAjSVLNOshCQpyarxi/MDb2luUbp/GVnPQV1YOmcXwoNeJDkA+xfnxYyVf6eb4yoFY8RjWqhgktEvkQrB3wlQfoK492qUtfqYt76Sv6ODGED9IeJGKDScIe7tEAE5pVwz3NqxhfubduHOaQVPU5D6TqqisuR75sOUzfyT/yFfPgZN0363wf8aep+orW2W3Zc+TFZBepcqTqIlNLrBbbrIAiVi7d+jmVo8d/x3yvD5XGodrgIlQXnV4qpCoHSZWiLcIL/sdXSwosVrD9ifTe83GDpnpHcp2HGdRNQO/H6mVLkQjFYZwG7FV3AeFrThW86JekMaiqYHyzRMxoE8TXczl9tGtdPNK5Du7j/LSWiaYrTp+kOIMzRKpmtCUBa1YFz3RMwoONK2FWSEswE60SviaOUAuxqR6+Vr8q4WslhRsRW8YkrhjsjWnVRfiamLp7WY1tVQLt1SqsdDgalgpHVGGSS96fbQro4wbdI+/VwwzJ8LXmfbzg4QIfM/jlZtZTVbZZsyileho2/2vfvgvuvEN9qkgkAuzZ9g/xM3RZwGhDjzK6PzVAkZorl9XqZSPIeKvi3hbVMIaGH0Qm3Z8AcUSDqhjuDVg6upH6VNXEPQSE98jgHergwa71TQf8hzrXJbNWKLIqhtaOxxhWjuntSbS4fTpJ2MjasZheJxbTakZjGsmTmjVJxahNtIokTmHJGdym7ZMqR2IciZVI1ajYssboQ6PLYEhUafStUBpdafgOpYqZznUaOLgzCVZLk8SiBGKLhqEg782OTG0rtm/oQNMmGlcGtuDQhnCDhvbae2rZA94qUzmTHfw342T/++WXXxAarbr99tszXJRKkpRUlw6rPlW+r0iDvmIehsZXgj6S0ldy0k8U0q8bVQazWlXDbD7I5CsDa5JI8SE3smEVDPN8ZUzjapjWWr5Sx/pKR+srj5n+VHUxg74yrqF8JQHjWiRhRoe6uK9bfUxpnYRRPN8Mnnca/WJmjYrnJVHFlZdfjqi8eRBfLBwFzL2d6iv+1PcTUxbGV/gA/CNfMfu4lOqOVF3EKmLlp1sXsVqz2rOuk78j6kNlIlTzN2HF9qME5y5CdTHqpUKqcubwU6rb95xwQ/BjrFTzp+IG82705hWxiitZEiPqJWBOi6oYT1I1pJbFDMPrVU6Grye3SMQ96lJDzHAvCdND3ZTYqr4hVnOIJ9TqS8OvjBS+IL6+t0s9zOC+Y+onYIrwNYnUNJKn2cTTpgWYj6+ps6pFm1ZiwtiTSK7UEkyRKuHrEV7gYkjFMuhXIQJdy5RER+LpziRT3dUckOSqVUQ4GpcqgYSwYmZcqxwiVQHckAJfewQqiBuEC0SeLE4w5NTHC1r2cIS619RI00QV7TsbUqULsizaGtwHNbpgY3DeiG9sHziZZU5zkmXGlChBg8fjgTbVMKtZZYxvUMkkmxhHVRazUTTgiAY0utI+t0o0g/6Ob1LNNFUyqaCbVTeqUOUYVo6hdRJMFrQprWqa8aqU2WQYgeKERI1LVRFTq0ZiShWy5moiURVZAaIMqZpjiJWMHolp3EcJK8YlkFGTWA2lsQdERmBwVASGkVEPrqjmgGTREcXQkYbvyYrQmcy6FeeblC6JeBq+YJ4C9it8IN9+ctBowLIxtK0ARr15E66Uctkya1umGalPlS+vvPKK6VslsN2gQYMMF6WSaJyqLCRVp/cV7+HoPQRS+oq+xOSkVi1dir6RgIfaVsf0JpUxgT4ylr4xvhHnm9fASD4Y5SvqRDqFxEmq8SR8X1FzwMnKDkifGM0HqvoqDqXPTG1Ti76SRDJGX0mKxkT5Cv1ievWKfLCF4carz+3gv1eRVFUqkBctypVGTJEw5E/mK/a+zdenUF+Rb5zOV1SG8hVTnipLlpdLVBEA6KeAdqcXhSpitdcRq3MiGofK9qHahOXbjmKDI1QXrV4ykarswcF/DWYIvN8sJtTUYgarobjBjO/EablixU1E6t5W1cwA/xMbEV8LM3j4Wv2pRxBzj1bfqJYWXytduroPjBfRIrZWCzDha2HyYbUTMKQujycBU4Kr8cQTw0nSxiXZgX+nqMUX8fNUToWvZxFHBAMXUZhJfD1d+LqK8LVahNkuNgOJrQP4Oqq0yQjYoVRxg68VuOhSVsSqOJqXLYkqxcJIrAoYYpU7tzICBvG17tkSK2ECH0OHYAYv8ZuZ53ZbpiJX6lOVI20TVXToQFLlNf8zX919Y5sL9S6W20ykKnDD/s0rQlUAZUg++hLATWoQb3Ry4wQau5Ix3igSrbGNbU78UVyW0ccS9I2jcWX0aUr/SJY8k4adqmxnLaqbUZ8H1Yo3+9zTJgmPtGMl4Xmn81wPNkjAvTUViowiaSKpomoqnaGpKgPJ1sTKUZhQKRITEypgvEhVvJJWlKPRS5NYlTJhyqFUNQdUp7p2NHR7Gr5LmXB0LGNDlQ1KFidYLIL8umcZnOp3pguGKK1D5Fa7TmNgVQSu1zIrgHEUHu8bXJoRSdVPP/2E8uXL46abbsI777zjrc1Yoj5VWb3mf6f6ivUTfUExX5xS8xXOR4UXx2DWXw3SO6VRAiaSXE0wD8hK9JUE8/FgLH1lJH1FY7WNk+9w3UT5ivodylf4wNRYFMryM4pkSr6iJn9z2ybh4bY1MIV+Movnf4A+cy8fkvfwIdnlPJGq6gVyo125UqhXUll+eP+8x9R8xc77vuI9GFP6CstJ6+Qrtq25y/7nSFXGUBOxUh+rOSJWazwrO/kzYgiVafInQuWSUlzsesmQqpwhpEqYIQRbK7Lit85ITqbs+1JN6cMLF0HHShWIrRMsviZumEAdR4ytzL9jUuBrYQbhCGGGyVRhhllUHzOM57bB6l5AnD2bWOLBNjUws3ElTOe57uP559aKNiRqOomTgheh+Fop1adwOsng6wpGx5NUjSW+Hkl8LVwtYiVcPZRYe1BUKdPdpn2EMm4XR2di605UG7EqjkphRU3mbTUFTB1fW1wgjODjBmGIvHlDMYPF1eYDtyFVaZz9r0OHLoZU2QuTwS0oNGBRQNHLRCLGaL++W1BkwBENXqRAEbSJL4dxdWMxpnYMBidFY1DNWExtVBlTaFyFKzVGlaJOascpgytN9HSSpamtkkxnugc61aHWw2x9aSdw1Nd4dcJTWHMyK4kG/Z1VPw73ECzOrh2LOTTs/QYsWuOLOU8nm1ZfqskkVFOqKjOJmv5VIJlS208aPK4cRsRYNj0kuiz6R0aYqNWAChHoX6GkSWDRgUZvR3Ao45vkFSRV9UuFo2IRGd7erzG6uX+vAmjeM3zA4N52f9lXv8lTRkmpnlJeeOEFNGrUCL///ru3JmOJIVVZcp7GV+QnwcH5UvqKHo7FCxdFpyp8CNWzvjIoMRpD6CvTG6ueV2Z9t74yxPMVdSZVIhfjK60TMZukSeNM3N+xLpSgQiRL0atBNekrJFfT6FsPt6iCmcqSSVI1i+e+l/7xYM0Y9CxX7JyTKjX/q54/NzqWLYmm9JW69JUKfAGoI+opvuKVg31A6qHoTb3tp/qKypSkKqcjVQaYO1J1cavfFNBLt35orSNWf0ZEqNTk79mPLKFyadMvfr2USJXBCOZDId9v5t1msXX+AGbQe8/HDd4y35VKTFGP5GR0nRiMrROLocTXwgyTSKimEDeMIk4YLHxdpxIxQCWMJR4QcZqhDH8kTEpqJXz9YOf6mNPW4utJJGDqMjCEx0zi/vc1q4J7GiZgjjBDrVjzEfa+RJuoYpbyFFSvaPC10qirS80Uzk/kvAIVoxMsvlYTQAUthhNbDyHGHlDRx9eliK9LGXytpoDtShUzLcOUw6A5SVUjYoaEsDA7pBGJlSVVunePVPmYwMMNahVml0O2UVWuwgum+V9WjVOVxpGqO+7IaoCiBTrWoKbtIi/SrrfG1voAWzQ3rnaeJdCPBhhK4DaI00Ge0ccSIE5pUgWTmlX1vrorfz4BYqtETOZ0cisal4BRgwELHCrF43gaWFn/RtDYShHdt2a8MfxgZUOrFIUxNO4khSKrRdHoUQSMNDwJlVI/zqaqnachVmTS4yqVJ6kqR6OXN+NVydCDK6pPVWnTr8oy6tLG4H3JpHvR6D00OHDpcLQmsTJKo7coXQL1OC1XiCCa7DmnybGfn2VAIOiVgb4sqExkVFtWXuUwYFIO5BtcjuX3qcp4pEqyceNGby7jiUhVliw5kvmKtbt8xX5tSs1XFMrWMdXKlMLAmtFBX+FDayh9RQPvTW1aBROb0lfU7I9kaqp8gg9E6yuJxlcmhfjK2IbWV4bxgapEMBq+QJk1B1WPpq/wgVcjmn5Av6BPPECf7FkuDP+45tyTqsr5cqEjfcT3lTokV6UL0Cf4gJSv5EnmKywTqk+YTucrWu/3sXKRKkeqMoqa5BUhxOp7R6zOSkIJ1bJtvzlClUH0kiFVfIcZ8G/ed3q/eVjRvO8sbvCxhNlP+3BZ78pyYcXRjXh2uD7CJglfx1h8XTcek4WviRkUcVJfKuHrAGYgXhBuUHcCYYkZnCpYMbp+FYyqVwn9E+PQlyoyNiQpFv0rR2GkyFK1aJPsTR9jDb4mzha5mkO8ouDFFJKqyVUjMa5yBROdGit8TUI1NEbBCuJrg7E9fO0FLfqW1xBGClwozXo42vj4miSrJTFDY2rFwkWQxxsjVt0HguTKYoZQfK1ls53zPrYWYc2fr6DJqpjmzf86duhiB//1QIz5+i4Dy9hcFzSybsQ3vmXThXkDrVmw6jA3pDaV01F14kzTpmmN4jG1USVryMZVTMhR6R1ntk40g43J8BrcdFzjaiYxhUDiSDLt4TT4cILDkep4x/mJJGT6kj+GQHQ4CdMEVrBZykJCw4pcqQ+V34luDiuB1olYKSRpMpP4mf+oyqc/iAbXdIjm1RSQpKqfiBVV6SB7sgJ0KVPC5NfXGFatyaibkFnXKB6GkvllYNtnxBrdGt6GKWVklZXKzjqFURk9MPqzF57MINn/fv31Vyxfvhzz58/HW2+9hXfffRffffddhiVWNqV6roCv5PF9hct/5Cu5uFy8UFF05IPI+Al1KHU0fWUyfWV6YzUFrGSa+Sl8b8anoo/MSOkrjaqZ9tFqS218hX4iHxlBXxlhorqV6XeVMYokarh5+JFU0Vfm0Ce6lyGpOtfN/664AjUK5EF7PhRbkVTJVxTSr1asKIqxzttmgKEPyJCvT6b8UvMVS6ikWs6eI4/L/idQ7khVhlA/K+Dul+dZYuX6WP2hHElGqI5g0wFHqDKKXiqkKpdp/qf3G99p5l0nHCgMkRwzaJufQl34Oj+PqU+MOqx2XAA3jKwTjwnC1w0T+K738DUxgbCDxqCaYVq1JGEySdSkZjXMuLDaR32vRKaEE5RZe7iCF9TxauFCzDCO5x5BTC18rciU+kzN4ryiVvcSTwTwNYmVsv+Nr1QBY0im1JdqZKxtATaYOpC4WsELkSo1AeyvlmAkV32IrzWEUS8lsCDBEr5uQW1TpjiakVzVCi+GMgUKs6wsqQpg6mS4wZaNLS+LGSy21rSINy1kPnxXT9Nxqjr6pMqGIU2zJk3NvCpC8EbsDXKeqq/vZYsXw6BaMRhVl4yXBT+CpEqEyvR/otEn0lgjaDRlNBNJUqc5NWcSSFTTpklk2qbDPedNhIoGV1OmgXUSML19LUwi61YlGk4mPZIGHUljTqGxTX8qdZTjdHaiBvulklzJ6NqmCjFF41RVUltPZSUpa7P+ydic7x9VhiTKGtyEKKkaHLi7YdMiViXRgYy6eckwtCxVDM2pDUsUQ+WwMBRlmdhysJEI0/ZTbUH9r/HG4LY5kwGMLD9ffaNfzONU7d69Gw899BD69euHQYMGYcKECZg0aRKaNWuGnj178iEyDaNHjzbbhw4dijfeeAPHjh3zjr64JUiqUveVgJ+E+IppJ83l6JLhfJjpoWh9ZRQfYiJU0zxf0UNPTfj01WkUfUUPQ+MrzW0EVx1MJzfRBwgvmktfGZjEhy0flDM61LYJLmrHYwR9YSQfiqOqVDD9C5XAZSa1K0nVjVef++x/tQvl5UOyVNBX+KCsT1+JL1oUhVku5qsS7199DvME2kn/sa8Enz0apyqvG6dKgNyRqgyjAWL10gskVrNxaLUjVqnJ0WO/4+NFO0ioNjpClQH10iFV+Q2B8qNS/vtN+CFAFAxpCOIGv7tAN+LZicQIwgzDiLUn1hO+Jj4mZphEUmWwNTGBpmoNZsZ9Jb4ex/lJxBBThK+Js5U0bgSxwpBaCRhYKx6TSMCmta2J0fUSMCIpBiM8fD1JZIp4YXp1JaKwGQDncPvsGsTY1TVskcXXU4kvJnqtwUYafF3W4mtqAF8TU/ePLGVyGPSjKmlFd0OsSpkWYc3Cw0isLG5oSNyQSD4Rnl/3Lpzg4QaVi48bTGuWUMzAKcvSJIpjWfotwew4VWnZ/I+kyvSpMganhgBFc8GeoQOd6GjsXDltk6ZqZUuSRcdgHEmV+oiMJ2gUUBSTHkoipI5zk1pWN53mZNDRBIvKQiLDa7AxGVztOwUahxMQDldqaR7XvRpBJyvJ1MZVMIGkahgNPpjMeHB8eRN6NM39aFxFrGaZflVi0FZN/ypWBnWwmyxiZaJV5UxoUlEqGV3GH0jtF6mc+tbgfSuoCWApMxhwd2rXciXQNsKCxBal7OBlAovRRYqYVOum8hujWzXRCakBh1LPebxyNIzaTG3Kx4ut+Z+iT0OGDEH37t1x7733mrGpPvnkE6xZswbr16/HyJEj8dxzz2Hbtm1YsmSJiVo9++yzmDhxIol7R9x3330XPTD2E1X8KV+halsdPmRG0T/ULtr3lSkN4zmlr9TkOhEn+oq+OslXxtBXlK3H+ko1+gofkvQVm7knjgRNwxXEoEf1GNNcUO2rx9N/hrH+D6KvDKGviFSZRBX0l+5lzk+fqlokVb358GxNX2nm+Yq+PNWlr0TypVBAfiL1fEXz8o8z+4qNBubIkcc1/xMYd6QqQ+nRJYuCxOpeESs3jlWoHD1+AvMNofIiVK7JX4bTS4VU5fT6VFnMkAIvBDCDxQ2aF2bIkbMAKoYXx6Ba0ZhY38PXxA6TOK906srUN7JBJUxsIXxdzWAG9a/SR1jlLFDCt8nE3VOaVcME5TZQhmDiBuUq6EF8rY+xwhQTiD9GJEZjcOVIDE4oj4nEzWrqZ/E11cPXil7NqhbE18qsPbUK9/dahGnw30HRwSiVIlb9FKwQvvZUTQCFr9UM0IwNK8xQgsTKdB3QGFbFkRCmj7EeVvAwgz/vY2yLGYQRLHawZaqIFTFDfvWpypnGkSolqrgjGwGOBYq2471nbE/tjdlKIMaotMn5uU99kpH+iWLSsTROHEaRSatJ02AaXCmeFZ0aR5Ys5qyUjVNbVLMhSuqc9rUwp11NTGxWFWMIFEcaFk1QWEcZ0KqZUOVUVqIHGsdjNgHoaBpzSFx5k5HkPgFFqiJTCkuaQclocKV+VIc6hSenkEmrU52aAY6PL2tTqseWwQDTjyrCGF4RKhOSLG/7VcnwvTnfneRKqR+VBtJGqsLRihWiCZeTioehTEEaT2XDsghGqlRWwS/zUmt4DzDS8KbZGI0uYH6xRKp+/vlnzJw5E23btsXTTz+NRYsW4fDhw95WK4pEzZo1yzQDTCl79+7F559/junTp6N169Z4++23vS0Xn/iJKs7kK37EyvgKH46F8xdCU4XDaypDJh+KrM8j5Sv0GY1PNbwhH3r0lfF8yE1Wdh5OpxlfqWGaAN7j+coENQ8MfHGir3AqXxldNwEzeM4HGsVjps7Nh95Q+srM6tZX5tZUn6pi5775H0lVzYJ50Yt+1EGD+9FXNIC2fKUxfaVGsaIoVYBlpC9Mnq8EvsidxlcsqfJ8hdMc2UmqXKTKkaoMqCmJ1fcuYmXk2HEvQjXfEaqMrJdOn6p85n1ncUPwnedr4D3Id5+m/qC41UuXwACSm3H1Yj1ixXc7VV0HRIqUq0D4WphhAjHDlOYWM0wnqRK+ntuhFkkW8UGDyhhFFaEaUlvZAquZLgSTiK/va6gEcLEYSyw9rFJ5k0ZdH2LvJbE6FV/bhHBTNZRR5QqYTHw9gfh6XFw50yJsGPG1yJQiVOpiowiV8LQwtsiVVMtqDdZF+QvKhKM1MYOSXLUuWwrNy5REbeLrCoWKGHytbMmn4IZAWQWxtSFVVDvMDfF1FkWq0pBUdeioRBUiVQQ2ulgPENopgQ/nfaNbNm01nDfenMy0D40wvl4cjZ6AgYkxGFInHoMJ8kYp+qS+UVw/s00iphEczmybhFmtkzCzZXXcw3Wz1V+EQHGMl05aA5mNalQVs9vXNmNYDaIxJ9QiUSJLn8qKpFGc5yhBRZLCkpGGTd9bM8YYXp3rjMEJKDU2ldKoW0JlQ5Qaq2p0bFlDpvqaCBWZNA2sRBW9DYsugd5SVgCbT7+kSbHeNoIsmkZvXqaEMbpGhFYzwDACZRnbtgGl0wSM75ejnfog0QBFEipLqnKQVA1O96RKUafevXub5n2KSJ1ONPivSNP777/vrTlVlHL9gw8+QOfOnTFnzhz89ttv3paLR2yiCpGq0/gKbS/fSOYrXBdRpChas+71I8lRKF+joctXBstXWO9V55VkYjT9YFabJEyjX1hfScQsz1fUx0rjUmmAPg3cN6AmH7JNqhtfGU1SNqg66z1J2ww+KCfTJ9SRVJ1M5Sv3UHuYRBXntvmfSJUiVb3oT76vNPd8pRl9pX6p4ogvGobC+VgOnq/k/jO+wmmO7LlJqqY6UuVIVYZUEaujS3xiNQffX+Lp1o8dP4FPSKiUNn3ZVhIqAu/UALnTi18vtUQVQUKVHFsbzOBN7boCKMR3X/0KEehXLRKjFKFqmGASVAwSMeL7fwQJlfpTq2+1SJTB18QOFl/XwD1cnkOd0qw6MYNNva6uNUPrVTbp1RXRGpIUjTEkT9N5/im1YjGBWH4mcbUww5wAvo4ljogxkSqLr20LsPHE1MLWJp16XFmLrzlVK7D+UcTYwtfE1dI+ClwQWxuMzWXha/WrMmnWiRtMa7CIEmhBYiV8XV3NAJXsSpghl9/HyvbNNlxEynIyfaqIGfwPsEpSIdxgm/8leVY4s5x7UtXeI1W8QL/zlzWw7WBvjO6xRN/gutlyJBadKpc3hhlbNw7jGiTQYPHoWysePZStLynGAD+RqsnNbGYSGXIGWfXMFtVMe88JZMuj6/A4VpS+NaLRnUYbyfXKVqKBUPtyuT//Q+nU71fHvGoeUEyMpNFtX5HpZNPTqkdTOVVYsorX7E/GpuHHkD2PoipEKTY9Kq4MhihU6TFqNfszHekUoSKRMuFJGr4ngWIHAsNWAolUsemmXG5Gw9ctGY4KBMp5aGhTPiwPUy6esX2ja2rDkqwARi1gzJaNpGpg+iZVixcvDkSnRJr+SM6GVPmya9cu0+dqzJgxZzxvehMz+G9mkqrT+oqtB6G+ogdBxfBi6Fa1gkmHOq5eHMbSJ4bywdi7Zjx6Gl+JxUDOi1QpXG+y99BX9PFhRnP6SqMqxldG0VcUoepNX+nBOj+mKX2leQ2MbVgJvatEYWCVCphDP5lLf5letTz9JApz6Stz+b/dyobhxvOQ/a9OkfzoF1POJqvwfUVNAOlL8pc69JUyhYqwLP6cr8hP9BLKkYOkaoojVY5UZVw1xCqQvILE6hLNCnjsdxKqxV6EioRqo4tQZWi95EiVhxfM1OCDIGYI4AauE4koXrAwWseVw7Ca0YZUjW8Qj2HE1/1qx6OXMmMTMwwg4VGrFfW3NgP7UkWwZrW0mEFJ3sYQZwwlDu9HYtStWhSGGhKWiAkNq2AgcURfYuUpPP/chvGYRbwgMiV8LZxt+1Ypf0E0phKLW3wdZfG16U9VNoivSaiEt0WslAnQRqy8pn+c9tGwRepaQ2IlUtWL2zsoIZya/hEzaPiipvoYS3ytYYxiioYhfx6SKr98vI+wBjdIA5hBmJplqg/dHr7OIlJVIy1JlZdS3VykQmk0eG5O/Yu2hvaM7t2Q2nxGCSiSRQ9Iqmg60I1uXNl0mOtFkNi5ciSn0RjECqBMIwo/qs+IspopPCmwqIF+x9HAQ1hBhhMsKhPJyEZVzbg7Uwg6Z2mgs9qsTDz3w82r4N66sZihNp7VaXAaXqRqht9hjjpe7LmSbfI3iQYXqRKbVoYS5c4fHm2NPyqW8zGlzbIyAPaPIqEia1Z7Txm8c5lwdC0bju6sDB1ZCWT0lmTRrQgQm3C+CcFjk9IlUaW4klaoLDyDswL4ZWS+vpuEHsFO+Nb4llHbRBXpl1StXbsWLVq0wGuvvYYTBHdnkj9DqiQ//PADJk+ejFGjRp3SlDA9i41U5Qj4ivnapKnnF4GPDv6yp/F8SPRifR1IXxnOOq3B+vSlSf2hOleOMiTJ9xUloTD9q5qRVKn5H31FbZ/H1COhom+N8DL36OODfGWq5ysT+YCVv8hX5tSOMQ9D4yvmI0RFdDOJKs5Hn6o86FuxjHlAtvR9RT4iX6HPNOaybSdtmzTIJ87WVxS5ss3/HKn6I1J1dOlSQH1y1vwJXb0Uxxenfr6LVhd+h2NLl9myWLEEx1LbJ51qMCug0q3PJrFa69WES0P8CJXf5G/DeY5Qrd1zAhsPAjt+/mPd9gOwhftt2Jv6eTKU7uW96r4JSzZegPu91EiV/zE2FFtbfG2buvm4Qd1rSmpMSwUtakVjMInV6IYJxMeV0Zfv+S4kNj2rR2OgugCoVRhxtFqrpMTXE4gxhBmGqAUY8cKQ+pUxQWnYiRlmUtW9ZgIxw9zGCbivfpwJUggzCFuboIXwdVViaoOviaeJr9XkTwkqpOpWIyI1gvh6WHRpjCKZGk2MPULZtj18re42CljYIYtKoAvxdRfh68gIdArB162JFZpGhKMRVfi6BvmFolUBfG3wgldGXvkp2VUQL1jMYCJVad38r72JVPnjVFkgI+P7lcA3vKkEVIEhJamIK8nCYYH3JPvtSxbcnwYeRAP3r0UWnUiD144jUbLhSSWsGKPO9Grr2TYJ01tVxwSSMDVjGlYnniCSxlaYkpVCg58OqF4R41mRprBCTSVAnFMnxrDoGdXJqquWx/SqkSYphcKTMzivTnOTZXixZ7XxNFEqhSVtkgqTUp1GH1JRfakiMISGHs7l4TFlTRpIRatMcgoRKoJD5dLvyKlUgwCrI12rsiXRjGCxUclixvj1yKwjixRlufkAUcZPnj7aTFl2hkUb41Np+PScqGL//v3o0qUL5s2b5605s/xZUiX5/vvvTbRqxowZF81gwUlJdZA5c46z9hXTJpjLVfmQ0AcI4yv6wkQCJV/pxwdkH/rKIOMrJErGV6pgTJOqJpW6fGUaH5DjGpFI0U+G143HWCVvoa+MblLNnkdNZGvGGF+ZJl+hylem+77C/1Xz2B6KVJ0HUpVYIA+6l4+wvkI/8X3FPCA5r2ld+krZQkVYFil8hcun9RXz9cklqjgTqRIY/+Wzd7H0xefw3Qtnr4teeh+HvtPxp57zYtWjSxbip0/fwcp5z2HZu/Px03cLL67784jVHo9Y/bBunVcbMrYcPf67jVApKcXW37Bx/4lUQfg5070nsGHPUSxeuRlvfLz4tPrmx6vw8aLt+HbzEWz8ngTrELA+tfNlAF3PMlm74wcs4H2/vWANFm4/wXWp73uu9NIgVTNCmv+dBi/4yneg3o85SCLKhIWhMzFt7xoVzUfX/sQIA/n+H8Cp8PZA4my/+Z/6S40mvlYLF2EGEStl/BtBLC18PVIfXYkZ1P96CPfvT8ygZn9TasUYzDCb+Hp2UkWDr6cSM6iJXwBfq1sNl5WjQE391MxPY1NZfK1cBTb7n4IUQ0mikuNrEitO1cWmJzGBj6+7CF9TO3Od7V5TzGCGFiRWyrLdhJihQalwxBYtioLEAiqTAG7wsYKnwgp+wiuLrwuZnAWJaZmoon27zrj99qw2SmWM7hmYRrdf2nkT3jrN285jBVGFBdC1apRphtS7Zhx60tB9aWgZXX1FRtB4IlXS4Q3JpMWQm1fDdILESWTRSvE4nMByeL0E009kIg2vAYMHE2h2q8zzKsKkFI9izwKJ1SoYnVpNnek0jWQlkPHFqJWNhCCShp9ERi1SpRGeh8XaVI/DaGyRqqE0+MBIGZnTqAhu4zoy60Fcr/BkN7FoamcSrI6cqklTWxpfg5SpA35zLjdmBWhEwzegVlLaaBpRfaoEEm0qSGv8gLLcTApIz/BSS6rSX6RK5EbRo7lz5+L48ePe2jPLXyFVku3bt6NHjx4mInYxSFKiJVWp+wpt75MEz1f0xUmOnlS+lAm99+DDsTfrt3xFHyHkK0OUfUd+Qh9QNh/5yhjT+dTzFUWp+NDUF6kR9I9xnq+M4XHKlNm1UiR66cGm5CzGVyI9X9HD0fqKIrxdzxOpSiqYl6Sq1Cm+0ozq+0r9EmHeA/LP+4olVS5SlSqp4rrfCcI3z2iEf1+fuo1Oq1e1xvuffoPfly/C0ZTnvSh1EbB2OVZOroNiV2XC3bWGYcXnK4BlF1mzSY9Y2aaAGZ9YHVHa9ECTv9+wYd95JlTS/cCevfvw0IgGqftGQK/DXXnLoEr7MZj4n6/wxcbfseWHjEisThjSuHLZW2jG+74xSxhmfQ1sPc8p7DM6qTpy5CimTk1JqvSOI0bwsLVat/gEQduEr4UbIsOLoysxQ09ihl58z/fSB1jqgDpxGKQPrMQBwtjCDCOErxtXNvh6WovqpgvBuIbKaUB8ze3KV6Do1HhO1RSwZ9WK6BZXHkPUsovYYIYXsDD4WpiBOHqqMATxtaJXJl8BiZVahYXi6+EGX5chvrZBC+mgSA1VVNrgaxGqoTGWaClwYfA1cYLyFQhfq3WL+lS1oQYxQ3ESqzA0KBlmxrtUinXhBaspMIMpy+R4QXjL9KlK0+Z/fqTKXJQXnjSZ/iypCvYV0VRGL4gCJBJJ5SJo9IrozALvJCNxXgYf0aiy+Qo/lEYcTuI0jIaU4ccSKI6nTmxahUa3TZdMM6fm1TGelWJyvTjMrB+PiWTOAwgQe8XSaJUJCGtGYzoNq/5U1vACi+XMV3gZXqx6Oq9BjDrAqnmcklPI6EqdPjDKjvQ8nDqUxjaD/qozHcHgAC4PjuKUxKs3DS8WrUxmGqdKHenaUtvR+C3JnNWkqT6NrnTRdcPDkFS8KCIKFDbGzpWTZeQZXeVkHcca3jLpQjZMSU2vpEqkSIkkDh486K05O/mrpEry4YcfolOnTjhw4IC3Jv2K7VOVI1VfkV/kooPL9rK58ZVcBVGY9aMeiXy36vSVqkFfGSQyJV9Rn0KRKal8hb6gjD7WV2xK1LH0E6VN10NzPPebIl9pEG+axvavHIne9JVR9JmZ9JVpfBAm9xWlVq+AzmWKnnNSpUQVNQrkRrdypdDO85W2nq9oEGDjK+HylaImE2CJ/IVZJh6h+gNf8f1E5exI1dmQqob493W0yWU3I0fu/AgvUADFC+Q/rRbLXwDlIwbj68+/wfFlGY1U1TWkKnvti5RUeRpoCngvidX69V6tyFhiCJU/DpWJUF2gPlQpSNXV/7gVuQqXRpGwcBQqGtQC+XLh9v/zk/tkQVSHh/Ha+uPY+iOvc3cq571oNUiqmvNe/5G1mCNV50COklRNS0mqUsHWftM/Eaycwg/UhIgS6F6joiFWnapEGazdT9Epvv+HECdIh3F+mEesxmpIFWEG6jRhag3NUr+yafGiAMbEunGYRXw9uW4sBhOH9CYpGkpSNVURKpKqUMwwzXyMDQYv1JdK2NomgwtGrUYQX2uYIuFrJYDzm/wNJqYWvlZ/KmUAVNBiQHSExdciU8TWHYmxldyqDTFDe2KG1pxvUlLjVQkzhBnMUJOYoXyhwsin8vFJlYcbDFbQR+wU2NqPVKVpSnXb/C+baZZmL9RepDGyDG9uyPaH0M2IRYcVLIJ6LMjOBIgdSWDa0zi9EmMwlIZW06UBBIr9yKYFFpX22WfU5ms755UCcqqaNTUlSGxWHYNqxaMfydAkgsSpNPo4dc5jhRpHgDg9KQrjq5TH+MrlTF58GVwVQCqjTyRznqh+VFSNYTWF4DLQHDChnBn4d1C0yJVGeLZGl5roVHmboEId6QZyvwFxZdGTFcEYXJEqqpr/iUm34lRGr02QWLN4GOrQ8HW4HFPUjsWjtJkqJ7+Jk98/xJQnnSgAxKlZ02HzP2XjE7kRyfmz8ndIlVK2a8BgZQRM75IkUpUlZ6q+IlJlHpCenxhfoZYoUhSNWP+68KHYgX7SoRIfaPSVYfUTMJq+0r92PPqTYA1rwIekfIV+Il9RIouRDfhQbKnB/GyadfmKkr8M4ENucu1YTKGvjJWv8GE3Xr7Ch+M4+skE+YrvJ3xQzqgRiU6lzw+pqi5SRR9qR19RlMr3FUWpatFHfF+pXaIYoooUQT6Wj/EVls2ZfEURQdf87yxI1cyGuPXqy3DVTQl46D9vYPP772DjO29iw2l0/VtvYuO7H+KHhd/yPBcn6ThVPVI1pR7Cr8mEnHWGX9Skyo9Y7fGSV/ywPmNFrPwI1TMf2gjVBU2b7pGqh0c2Ms+xPHFt8Ojn+/H1ss343yLpFny6eAvmf/olnnrsAbSrXxFZb9Az7xaEdXgM728Hth24ABG1C6Y+qXobLVgeN98djtmOVP1tOTWluocBQ7E1VZghiK/zowD3SSQ2FZESoWqfUMG0CBtMnKC8BcoYrIQVQ4ghApihocUMahJoEsK1qoExil61qGGSU/SoFIkJ6iJQL850rRlT3eLrqYka8LeCwQyTT8HXxNYai4oY3+BrtYYhtha+9onVSBKrwRWFr6kkUoMqWoyteZEqBS76RZYkvib54r69oiy+7mDwNcmUMANVpKopMUOdEsWJGYSzLWaIJ74uwnKzmYOJGYQbPMxg8YLFDhZb26n6vddIS1IVHPzXAn6p7YTvG95Tz/CKyEQULYYmZLr66t6F2pmGF1AcoGZ/6hxHIw6mwUWwTLrnWnHoRiDYpXKUAYUCiBp/ZyynNvV6PPrSaENotHFJ0YZRzxBoJCCcXLUcxiSUxaiEMhhXqaw1PsmUwKKMPolGH0diNaZSeYymkZWwYoLCmqYi2CyAMrwG/zWpHiPVBLCUafcpFi1SpTTqfcmu+xH89uF+3bis0KSaM4lJty6lznThaFYqHPUEFKm1aPA6ZNUm/WP+QshpjE4NGD0YlhR49Oel2Wj09EaqNFjvsGHD/lLE6O+QKokGEVbqdvXnSs9Ss2Yd8xUkNV9J6Sf6+KBIVfnirDfx5c0HiC7ygSoVTRPAgcZX7ANS/iJfGcUHozL6dKWfdK1c0SSvUFPZ6fQV9UkcTV8ZWifO+MownkuRKvnKNE7lK5OqlKMP+L5CckXfmMKHo5rJdipd5JyTqisvvwJJhfLSXyJs0z+p5ytNS4abL04iVno4yleqFrPJXeQrNk3qH/mKLVdHqs6OVP2LpOqaWxLx2geLhY5wctkSnPhDXRyIUP22kOdZuRrYvB5YvdgkfDi+goREQH7zRmAT169dgZNL/5igHF+2DFBKcB0j3cD5lX+UEIP/u3w5sG5t8mNWnSmJxkIcN8f518fpal3vcqw4I6kKOXaT/nMDj9N1Ljn1P0k6jy7hPW3kfutW4fclC3FyFffVceY/z2+yDz95xa6XSKwUsdqQviJW8sndu3d7S2cvR0molJTimY82YumFJlTSFKSqYGJvvEWitIev480HQ5REY+evwK69O/DQ8JrIoWjwjXnRbOpyrP2Z1SKVc2/g63P7L8DeY8CB48B+PrZ2ki9sOkOzxvX7SGK43+6j3nGc7uZ/bP6D/mXreR/buM/ekGN2neEYaeA47xr3HrZJOc6GVPn3t4/H6dh93v1tTOX+1u7lvr/Z/bbQxptYnnu8a9W96fxfX2Sk6tdff8XOnTu9pT8Wn1QFB/+16g/yq7Ffk+OG/MjOd2PRAkXQMKac+RDr42tl1Ba+VmRKJEmEalTjKsQElTG4dhy6Ew90JnHqnxRnWrbMbpdksgMLj48juerJbYNJhMYSX08nsZqlNOo1FIgoZ3C1MMNYYQaDr20rsCnVLL6eQHw9lvh6DLcrWcVEKbG1nwVQyd/UzWZAVBkzXJHGfx1MfC2crfFfha/7kGCF4ms1/2tbugTaeB9jDb6m1idWEL6uKcxAgiV8XbqQ3xoshFj5OIEYwe9TZcqXy1mzZE9jUtWhi2n+57ft9CNUNpOZlAzaGNwDi7yxyBLhaJkQiQ4Cf2S8PUioeivVc814M5CpMpPZjnPVMKFpFfRPjEZrFmhzFnpvVo5xNPY4gkgBy1EEhfc0q4zJdeMwghVjhJiwOtDViDIgcULlssbYoyuVMYaXjhG5orGVlUTRKkOsaOgxJFCjyepHEcSO8XLo29TqQWLlj/I8oEKEMb5Jp87lnjR0j3I2lXoPEqxO5QQQ1d6zJNqoEx0rgOl8T0PXpdYqIcCoClDMhChlaBFOa/ggYPSN72cnkeE1gGx6G/y3T58+f7lv098lVSqHiRMn4r///a+3Jn2Kmv9lpu1O6yv0D99XfFIVG1ESrSpFoSN9pVv1aNOfSr7Sp5aa/1XBCPqJCJV8ZXzTyuhDf2pRsaxRJbLQoNk2+huPcQ0TcA/3mVg7FsPpK6Oo0xXdJWmSr4ynX4yljvb8ZCQJlnxnUpVIdDwfkaorrkCtIvlNJp9W8pUyQV9pwuWGnq+YjxD0kyQ+IDVwdh6VzZl8xUsEkj17HkzOYIP/nk1Gzb9GqmrgpXe+5bo/0aRv8SL8vuxLbHpqMka17o4n7qcPb12Fn97+L+aN7INBbVqhf5feeHj2k9j81VJgBUnXKecgkVuzCr999jrmzxmNKe1ao3/rVhg/ZBzen/c+fhFhS0lulvBca5fjhw+ex1sThmMC9+/fpg0mDJmAt/77Nn5aTkK0fJEheKHHHV28xBCoIx89h1fGDeQ1t8KATn3x5COv4pf1G7F1Zn2EX506qTqq/1y1DD+9/xzeGD8AYzvwP9t2xuThEzD/pY/w28qVIfuTfJF8/jT/eTzTk/cyeg72frcIW5+eiHEdW2Fg1/545oF52P31tzhGsnW+mlCKWJl06944Vumpj5V88qWXXjKJjb755htv7R/LMZ9QfbjJEqrzHA1JVVOQqgLVe+K1TSQAB1LZV1Ec4v0d21dhYv1C3P8K3BU/DM+Ti+88GHLtypzH1/nGTZsw7z+PY9iQgejYYyh6jXsID7+5BktImrarP9YpzQZPYBPXbzvwEz5480VMHjkGnbsPRLeh0zFj3mJ8Q/y+nWRkQ+gx/K+t/K8t23bj1XlPY9SwUeaYniOmY9YL3+DzHTyG21NmLFy756S5xs079+L155/C8P6D0bH7aAy7/0PM5/9sWvshWrE8UiNVa/dwmWRqw7r1eO6pxzC4F++P/9l/4lN4+K0NWEayteMQ9/fub/0+kqgdW/D4hIno2uNlvL/lJBZ9+S4mDuNxfaZi4rNf4dONJ7Bo468XHal67LHH0L9/f6xe/ceDdfuJKrLnyGvwgR+osHhBLVyoAcygdSRVOdS6JYyYge9skil9iBVm6FWTmMFEpyoRM5BMUScRM0xsVgUDa8agDUlYkwpl0LNaNMYSL0xoVg0D6saTcMXiwdbVLL6uHmXyFEyuGY0ZSRUD+HocVfjaxw36MKtAhYISPr4WmTI4nHha+Hp0CL4ex3ll1haxsmNUqV+Vmv7ZqfB2T2X/K2/xdU/u04nL+gCrTMFtOW8wQ0QJNFbggpjBbxEmzBBdpAgKsMwMpgpgBj/RlcUNwgx5ia/VBDCLmv+lbfa/TkFSJWOrvaeZBhm0MTwv3hif0zjefGsWcnsllKDB+9eJM03+NK9Oc+pLpdGeJzSzX9+7VY4kqSqHtnHl0Y/7CUgOELBkBRivtp4Ei2rONL5GRYwhURpnSFI5AxAVpRKJMvM0/Mj4MhgWV5oq49uv8QpbmqiUGDXXjYovhxHqvE8dzfkx/F+NT6UsgCbNo4iU1/TPH+nZjPJcpoTRrlzuSJKlpkxi0Eqn3pz33KRkcWN0Jamo5RlcpCq+SGEUZFnlyOEZnKqyNCya5SVwKEJlBikjWFS040JFql588UW8+eab3lLqsnfvXvTq1cuMTfVX5O+SKsnDDz9sxq9KC1ETxMcffxxfffWVtyZ1SUqqjcyZs6fuK3oo+n5Cld/I2auULUVfiTS+0jMpxmTwUei+Z1KsCdnLV0aZ7JdqA52ALvQr+YpC/gMV2m9UleQqDn3pK5Pqx5u+VGomO47ka4wedil8RVPfV4bHWz8ZSZ9oU6owbjgPiSpqilTxIakoVTJf4QNTvmK+PIX4Skxh+gF9JRDZTcVX5Cf59ZAkwVJ79IwWqRKpUnT2P//5j7fmVPmrpOrld78zUahjAuN/pIFzkKSs+h8+6xuLyzPdgsRmc/DRwz1Qr2BmXBNi68v+Lztiq7fH6298QeJBshM4nkRl2RdYOLs7WlYojGw3htaRy5E5bym06TAdK75YBiz1jlm6HFj8Hj4e2QL1SubGbZeHHnMFbsteDA3bjMCX8xfx2mzkTMcdJQE8uWQBvpnWCY1K58Itl4Uc9688aNJrKl4aWRfleA25UpCqY8uW4sSiT/H5mPaoG54L/wo9lv+ZNW8EmnWbglVfLMRJE8VbiBOrV+LAy2NR+6ZMuLVQeczo3RtVMl8ROC5bjSFY+Rn3F/nzy+M8qOxlIlbznscqEat0lG79u+++o4/mQKFChQzQXKr0/qcRpU3/n9fkL80IlfRPkSoqScyOn0/g0+fHI1zNALNWRZ/XD5rojklawe2bvz+JT196EC2qlEXWf4TWrUy4KWsJVGwzHU8v/BmbSaACBGnvSWw+xCr61Wvo2bg6Cme9PtlxV/y7MMrXHouHF/yADdzPpDlXROvgcXz11qNoS7yV87ZgfZReeVs+RFQdgmnv7TWRtmBq9JPY9sNJfPfp6+jWMA55br085LhbUbj6SJK4Z9GSvnhLSlKliNMPh/He8/egYXwE7krm47y/bBGo1HEOnltyDDt4fzrGRMM2/w+ts/+D+9RFr5ljEV/q1sAxN5fsgSdXnMTyLYcNqdqxj4V5kcgHH3yAm2++GaVKlcLIkSOxUZHsVCRAqrKHkCofL5BQ2Q+vQcwgzcH3YpmwYmhHMtWOuEF9sYWvhRtErNSXShhb+FotvkY3qoRe1aIMqWpNnNuX2GIU1ytgoYQUY2rF4l59iOV0fGK0wddjiZNFmsYKLwTwdRnihzIYQXw9nJhhqI+vFZESvuZxikqNEb6mCl8rWYWyaysD4Ki4shhBYuXjaxErYey+kSU5r4CFxdadqd24rSPxtlq3GMxQmqQqBDPoY2xtDzMkETMkFC2KYsQFpoWLhxvMB1iWV3LMoCGLlFI9J2rUqOVZ4cxyzklVO5P9L4ttxiQW7Wmy9p7evECjbqISC0FG71IthgBRhlaKaBqRTq6+IiNp6BENEkyGEhOarFYR3atHs3IksHIkYCing5NoYILDGQ3iMIHGHikmTMONobGHK9c9jSoDj4rXl3cZ3gLH0dQRJFVDYksbw4/ievW3muipiJUMr050Qz0dQgat9I4jov3U6tbwvcWcadye5UuYlOrqRNeJoFAG78Bt7TkVWDQpH2n8FjS40j02pPHFpBOpNWj8qsWKIowgMNToPkjMwzLTvCFWVE1NpOoCJapQs74CBQqgdu3aZj410XqRIpGrvyLnglTpQTV27Ng0SVihh98999zDOp7bJOpYsoRAMxVJTKyDu0iqUvWVFA9IzSsTTfVyEejAh1vX6vbjgx6KAw2pijH+YXyFU80Pqh1rwvgav2oA/URJLIYZXyGJ4jYRqnE1KhpfGVe1An1BGS6tr+hjg+8r+qJkfEUPSe8DRIsShc45qTKJKtT8L7KM8RX1pdLo6K3oM83pJ01Ll0AD31foJ9LKypjJcvkjX/E7neolZCNVGS9Rxfz58w0QlV+m9tHjL5Gqf9bCW5+oGdya5GNSpVSShUBTPpGqlZ/iyyF1cHemG/hSz4fsue9E4ejmmDVuMubNnIanBrZClawCb5ehSOxALPliqWkKp35MJ9d8haXj2iHmtsu4/R8om9gOD06ahhdnTMX93eqg5C2qK7ejftv7sHPpSpxYyv9b8iHe71MDhdScKlNmVGnSHY9NmYp506fggV6NEXuX6ukNKJzUC598uBBYIdKipoJLsHZ2U5S+TcfdhoSG3fH4lOk8bjxmtIpFgbvuxt3ZM+P2qzKhYP0gqTrK/zyxaAE+HVEb+QzgvQuJzfvjianT8cK0qXikXwv+p9bfguj2s7Dxu0Ukpry3VStw8NXJaJ8nE/5x0z9w6225ULFmVzw6fRaeGdEH99//PPZ+s9grixS2OceqAYINsXrxOayaq4hV+iFWs2bNYtmp/DKhSJEihlytWsV6FiLHDaHamXZN/kL1z5IqRZN+Ir//5gW0KcH7vLwo6o75Fiv5SNq0l9tIeD59aSrK57iB57sWhesMw9j7X8R9j8/D7JmTUafMHVx/JbLWnILnV/2GLSQ360lyNh2k6331JloVvctcx79KtUTv6c9i7pMv4p5Z01A34v+4/nLcETsBz684jE0kblsPHsPXr9+PqjlvMsdki+6OIXOfx9wneMycmWgadbdZf3Oemhj55h5s4L1uIHnT9a/49nV0qWD/647ybTHonhfwwBMvYMbEoYgrkBm3Fi2B7Jdlwj9zlsKcAKnif/54FPP/MxwVM1/LY29ByUbDMfHBF3E//3PW1FEEv//i+mtRsNEMvLaOBPQg74//u3XLl+ganhNX0d9uv+PfyFW1F0Y/NA+z7n0YU+95G5/vARZu+AWvfr4NB3++OIZV8WXIkCGmHKUiV8qavG3bNm+rFT/739135zGYwJCqAG4QRuA70MMLev9pqvdiOZKJjsTMnavZbMGDia/Vn6pPUqxNcEVSJXwt3DCEmKKnh6/71bb4WgmvBglT14zGbAUsasZgRILF12NJkESahBtGcjpaA/h6xEoq/DCSmGGo8DX3EYFSP+2JVcphEnGFchgocDGSJMpk15YSXw8TvqaaZBXE2BZfR3gtwISvbWZt4etOXO5QrhQxtgIXJdCsRDFDrqTC1xqrqk4IZqgSFoaSgYRwQcxgcIOHGULxtZKJpWmkql17kioN/suLMSzaM7g/r2hVoBJQ83F9lTKl0JEMWl/bB9KAg+taJt2nFkEjp8OomvajMfsksiLIyPUqmf4jA0m8xtaJNdn+NPjYpCSBxPIYIoPQUL7BZdDBGqSX6xR5EmvWF3kZWARLQFLbB3M/8zVelUODkQlQcl8xZ51jIA3cr2IZk91vEFW59P0xq9SRTqRKufM7EQhqfKpOnFd66HY0fgdWivY0vgY1bUHAqLSPTThtyO0ap8oQquJFDakKz8+yElCUo1CtA7EcOW+cxjRtsm0+ZXRFqkRGLoTUqlXLOH+WLFlQv359A+hCZfbs2XjyySfPqllSaqKQ+N8lVfraoyaACxcSRKWBqJ10wYIFTTnlzZvXNGlZqeZAIZJomv/ZlOopfcVvG22WqfIVZclMrFAanZUWVf2ojK/Em7C8fGUoH5ZDOa91fUmcNIaVMmcOql/JTAfywTi+rhJSWF+ZmFgRw1m3h2hcCM9XNHr5ENbzIfSFEZ6v6KOC/MT3FRGu5sUL4Pqrzn2kqlqBPOhaoQw6VIhAOzX9S+Yr4cZXNE5VdfpKNfOALIowkqrT+Yr98mR9xZCqu3NjyuRpF81YZmcrup9u3bqZcrzrrruMX6b86HH2pKox7rjhMlx+5b9QsEg4okqEIzL8D7RUaTz05Ac4vGQpjukDgiFV9ZHX2PUWRDUejUVq6rdhA0yfpdXfYPWMNgjj9stvzo/pz3xpmub9vmINDr89Ax2KXMPj/o3anWdg1ZfL7HHqd7TqC3w3oy3Kizz9uxwm/Od/XL8Gux/rgcr/Jgm7pii6jnoS2xeR/GzUMetJ+hZh86Mj0aCA6ur/oWG3h7F3xSqcJKE6+dHD6FZIX76vR0Lbmdj8tfo7ecet+AKfja6PIv+0dTOMwM+QKl7nSRKrA08PQ8LN/M8bcqHLqKexL/Cf1FULseu/I9As53XIdO3tGHDPmzhsBhG2pKpTAZ3zSuSP6ooFX5KwbiECXyNieX4jVClVxOro0kXY+9I8LL53Np6aMxsTp0whcJuaZjpz5kzTH/a2224z5e5r/vz5TZPyNatX4fjvJ/HZ0l0kVJuwdEsaEyrpnyZVv5tI0ebVX6FP3Tt5zK2o1PUtfE2islV9r1Z+jHbFb+f6G1Ch1wuYv+EkdpJw7T8G7P2VVWXJh+hTTU0Hb0bciLfxzW6YMa828J1zf6ecuILX8O+4EXhy0Y/YTEiwX32VeNyqb15Gi5IiZDcgYdICLNcxGz4nYP0n192E/K0fxNtrfwM5qvmv/Yd5DH1ucIN8uIzn/L+yU/H6ht9NX6adu3bg3v7xuJ7r744cgoe//dlc4wEet4//+fX/nkbDcPt++L9cEQFSpQQWa757HY3LiFBlRtVBr2P+tpPY4x2r/1z6xTvoXDUrMl2RBYkDP8USlsvmA5ZUdSuew5wzU6FueHjhYezmY1xlsnUfr4vnX7rtd0x4+F3EVKmNyMhIDBo0yJD01OpaWqvq+tChQxEdHW3qt1/XpZfzXVi0aFGMGDECW7ZsMc/vo0eP8biZuFuRKr7LUnYZMITKww5+KzB9jI0KL44uxMk9iAmUxMoELUiezFhV6lfFZeFrMyYsMYO6BgyuX9ng7P48bhz3nUjcMK0esUOtGIwiERJmEAkaQYxs8LWHG/yWLPpAK7ygAIXIlQiXAheDPXKlZeFrg8FJvAy+5jmC+NpmABS+1lBFClyo6Z8G/TURqlB8TRVWEL6WtixVDM2JG9QUUNGqRgZfh5Os27TqlamlSaryeqTKYAaWlSWi3jzL0eBrYossmbOjWrU0TKmeOqnyjR5UyxILID/3q8aCEFBUG099UdeYO2LTA6QCiTR+T5IuNfEzg43R2Mqx35+VZASJ1vT6BIm1YzCmaqQBiYMICPvTCCI+g2kQsWQZXmoMz8pgSBONOb5KWUyoSrZM45uIFY9VusaBVBlZDHqMwCVV4chBxugR6Mtz94ui8ZVSncuDK5YyufTVia6zMpHQ4EqhbtI90uDtaNi2JFYyvkhV05LFTEe6RgSI9blcr1S4ZdHFFKkKQ6n8hYzBTbMmGtoH11Zt6NcnVVlJqvr3H2SiMoqSnE/VeFOKAl1/fbBpgUBcw4YN8fnnn+PYsWMkeAPx6quvejXiz8vhw4fNIL5/JXOgLyJmUwgQdB2p3cf5VkVCFK0KfVCqWYvG0Vq/fr0px9RJVUpfob09XymUvzBqss515YNOYfn+9BX5hB5+/UiU9NVJSVx60Vc0WPZg+Qr38X1llCK59BU9GEdXqYBh9AHfV5TNUh8VfF/Rg88+JEN9hUCWvjKO05YlCp6X5n/VC5KAlotAW/mM8ZViKXzFDv6rDxDyFWl4PpaTHo6n8RX/y5NPqiZNnGLqh4iI7JCa/S4mlc+dPHkSH330kfFFvzxvv/121K1bFx9y/ZHffsOeBZ+dNam680ZFik610em0/8y3SByW43gIqcqpbfkq4bEXviJ6W4Hj5n/4Hyu434L/YLjIxT/uRKMpb5PEiNB8g0VDaqPAFZlwTUQLfPD+YtNP6ph3fSb5xRcv4YGG+XFLPr4Lpr7CY+bj2bolcQP/q1iDMVj3rRJTLAk0Rzy2bCWw/it8PbwmCnOfa0s2wRvvLDKJIjbPaYAcGo/r7oZ44+NvSHqWBf7r+Mq1wOJ5uLdqAVzN4wr6pGrlMhz/bj5ea5sDl2e6DgUbTMLutSJvy0nUlholEuV1rcKiweVw61WZcEu10Vj3tf5zpSFVHfPwP6/MizYj5+H3DatxYtG3LPtFpollwBYXSEWsTq5cjo1PPYFaBBs33ngj/vGPf6SZ3nTTTbjllltw7bUC3bZu+Sqg2bZtW3z01Vo8+tZ6E6HanFZN/kL1L5Cq9SQ029cvweAmuXgMyVGX1/AlCYeau31wfyPcdQ2fhxHD8dJmkhSSnK0iYV6yi30nWDVfG4lSd3CfIr3xyHeHsYvEYsWXL6DaP1hO/5cLXZ//3iSA2OQ311OTQ+7z+tRGCC9+N8r2fROLdh7FV/NG4vbLMuHm3E0wa+EJ7FE/p5Bj1O9pzYJHkXDrNch0eWZ0fWGPIWprF76GdiWvpP+WQsvHNmIHSdFmEhtzbyyPnT/+jg/ndsDNLI+bspe0pIrXv/3wT3hlbAtko4//u8Z4vL4ROMhj/fvTuF08HF+8MALhPPbm8t3xBF14F9ebSFWxuw3BCxs8H0v3iWyd4HWeMH2ulP1vxc6TGDD1OVx5g20aeM0115imdanVtbRW1fXU6nmo6vqFp/Sc1/tq6rSZtk+V8AIBv48FNTUkKoAZ1HrDkqqYUiUNZuhNTGAwA0mTyNRAg6+JG7i+d2I0+hncbTFDX8734zFDlYiiQRymKYt2tSji6/KGGA0gDhZuMPiauGGYR5aMCisLM5BMqX+VutSIYKmlmPC1iJOPr/XhVtGt0R6+1vl8fG0wfJSybAtfayxYJYIjqSqbAl+TaPn4uj23t4rwMINagpFMNSBeEL5W0z8FLCoRM5QlqVLmYJ9UJccNKlMbpfJJVfW0JFXtSaqUUt2AGA/I6EJ9Vm0Nb40to5uv7xp3hwxZRlenezHooQ0UeoxHDxpb7UB71aiIIVw/hJWhLw09onYsJrBSTKhDYydWxAhFp2QUGndgdCn0pQGUga+/jEFDab1YtAw+RE34BBip+govNi3AqCZOo2h49bEawHP04zkENo3xxcqpOmYwK8QAnrePSJTX7K9/hZLoz/1FqrorHEljK7Wj2nmqP5XGpmpF8qSQpGnKRLBoBjOlse1YVcWRSGNrAGABxdIFPVJlvrzL0D6btk5kv8Bzar7S50NsTDzCw8NZrrnOu6pZ25VX8oGa4gHwz3/+E4MHD0ajRo1MSvO1a9eaflV/RpctW4YvvvjCfJW8//77TZt6NZ9Lbd/TqY7ReZTSXcAytXs436oyypYtGy677FRwevfdd5svVQkJVU0fn9R8xX84hvqKxqiqE10W3UmSTCIX6gCSK/nKAIXtPV/RiOlDuV4PS/nKKPqI9ZUYjK0RhRGs8/pqNChW4z1YX+n3B75iore+r9BPJpJYtS157pv/iVTVKJwPXcorUUVKXymOhvQVRXTlKzWMr4ShMqcl8gczAKb0Fb18Ar6i8uU+1asncjmvISCZM2dOZreLUUXWdS933HEHrr7aHwcnqP/3f/+HVi1bYtkrL2EbwbMB1H9Iqhritmsvw5XXl0SfwePx3ykT8fTECfhPqjoe/5k8CV+9swC/LVpMkB4kVVn439njWmDBZ+uA5cH/Ob5sKX774kXMiqJv3HgnYsa/bInI8nfwn0alcVWmyxDbcTq2LuZxfr8powtJer7BDwvew/r3PsTer0m6/vcIOprmUJnRa8KL+InnOZEig96JNevw6ytj0D4f/+//ojDm4Y+I3r7BR+0L4Z9XZsL1TaZh53e87mTZCEmC1i/GopE1UfDyTMhVT6SK6G71Uhz+/CmMKsRzXX8r6o96Fj9/8zn2f/o/7PssqAe//Aq7Hu6MHBqX6Ma6eP1dosr1q3FIpCo77XJHOQx47GOFHUL+88KrmgAe/vpLrJ45DZ/OnI6VfHauWbMmzVTvjAcffNCQO7/+qk6XLVsWTzzxBLZu3Yp12w7hkbdW4+Nlh8zgvutTJFC44PqXSdViDGmsyIslVV+ROOz6aTfubVrYRIByd30RCzb8hOWbvsciHuDr4q0/Ya0IVEkSh8ujMOiFHdhMwvTVMwN43JX4Z47ueHYDSUjKrH0kIWu27MWXK7bhi/W/YuPOH/DcyCj+/43IU+MJfKaIUIqyVBbBLfu2YWb9O3HZlZcjx/CvsJkk6It501FevlOqBe79jvf/Qyi5PWHI34rvXkYN+k4gUQXvb+/uNRjXuDQuz3Q5KvZ7FR9v+hkrNwXvTbps50/4Zv6TaKKPLpmrosfr+7HrMLBNpCosm4nENXt0PVaz3Dd6RE4qUvXthl/x7Idr8cV3K01rFdUnJYBIra6lteq6dH26TkWt/PouFdmKi4sziVt27NhhPpodPXbMkCozTpXBfoX4rtP7zXu3+XiB70CDGajaFl+amDQEMwhfK2ihj7C9kmLQ3cPXg2vFepghBsOJGcbXi8NE4eukKNNFQK2/hJuD+Fq4wRIk80FWzfwMZrD7me40+hjrRaxC8bXOIXytwIfOq8RvQXxtzyn8bvB1JPclvtZQRb0rKF9BCXT08LW0I/F3u7LC12ry52fWJmYoUcx0ralvMgcrtbpt2VKJWq5gkFQlJ1OWp6jcfMyQOfPd6YVU6QuxBYq+5jaAx2ooqUoiqepKINiN2p3AUCxZ4Uk1AxRI7CoWTRI1snYMRtWOxhhOpzeMx9R6sRhVLZLgsCzZrZgtQSHVEKKKQcP31Toa3YBFGk1NnVQJBsZEGOOr74hpB2oylahdqEAkz8dje9GIMqRYs6JUg6M9Ns5jlS9fbTy7kSkrMUXv8iXMuFSmEx3ZtBnd2SNW+upuMplxWV/dm9LYjYzRlZ3EjlelAU0rFS1CUkWjFyqCPDS4SVahMmN5aeoDRb8cVa4CkxUqRKFlq1bo0KED2rVrd95U529JgPavf6ndc/AhoJdghQoVDCFSkorq1aubdsIDBgz4U6qvMjo+JiYGDRo0MMup7fdHqmOkCqvrwaR+Tandy/lU/af6t6T8EiWAq6ZZIn61atXzUqqf3lfkJ/4DUqSqLklVN/qD/EWJXIyv6GsT/UWZM7WtP31lFAnUyFrRGEtfmdEo3oxBpUyYGt9B/mAJVNBX+qTwFZEu9UWUvwxiXZevqN6rjfT4SuXOG6lS878ukWXQpkwJE8IP+EpJ+4D0faW6Ho70FZEqhfL1YUGdck/nK4Gy5XzVqtUNsdUXcTVhbdOmzXn3m/Olfj3TBw19kU1Zpoooly1XDs8/9xx2/O9jbH3yMQuoz0CqbKKKRLzynhInLMFx9cH5Aw2eI0iq7uL/F63aBou/2ggsC/6PIVWfz8OMSEuqoieQVBFk4OsXMTJRzWBuQdsBT2L/ytU4eUqKcWXRW0bEtpQEZy1OvjkNjYvLx8ph2n3v4ej6ZV5ELKjHVqwG5j+GQfG3cL9C6DniNfy+50P8t1QO3MRrTBj8FL5ftAwnUvRlOrFmPXY+3AxR/yQ5rEVS9YVI1RL89PYMtPvHNch0GYnn1dfg+muvwXXXpFD6/fVXe53+CXwfe/lLYF0IqcpWAYPUfHFV2pGqY0uX4JcvFmDNrBlY9chDOPEzUXU6ED3/VW433HADypQpY5qSHzpEFhIia0msHn9nLT5acgAbFKmgBkH9Bda/QKrU/G/L6i+Ia9TM8V9I6PoGvv4Z2L13KYZG5MW1PM/lV12Da6+7zuq1Icrl66/1P57kR4dH1mEdTffRfU1wWabrcUf+uXj/AFJNu64o0hYSHhGcTdv3YG5n+s6Vt6JYv/lYlUqGP5Gqjft/xwvDc5DcZsKtLV/G8p+O4L37ByAb/z97la54he6d/F5PYONBuvSGb9CzGN952UmqviIp4jXuXL0AbavkM9d+xVXXnub+rse113gfbW8si5ZPbTKRsO0kVV1Iqq7k+g5PbcQqkaqQ6/XHqVKfqv0/HvNqSvoXJbaqV6+euV9Fr4RZlDn5p5+S+6OiVXacqpDBfzX13m0iA+b9RxUmFL7WfKUyJFUkSt2IF4Sx+5A8DSReEGboxWVhCbVmGS6MXSvGw9dxmNogFqOrk7QTL5uWWQZbRxAHE/sKXws3kPQIN/QXsRJmIJGSmoiUwRGh+Nr2sRpDfD1cgQuDr0saVZY/4WsdZwhZAH/z2omxhal7EV/38uZttKq4SZ/e1jT/K4W2VIsZiqMptVGJMNMHW0ELi6/VB7uIIVUVChdGAZaN/zFWmMF8iFU5etjLfIzlspKJVa+eps3/FB3IagFMiFpw432B5034Ri8ioBhFoFgjhqDQM7C+wMvwVNO/qn4lw7CH11QH+2hMqhuDCSJYJFRD4suhH43Ri8aVWsBIBkwjCzTK+L3EcLm+H5cFFv2MJDKiwpiDCDQFHtXMSUxapMpkBeS+1vAiSyRNPI9v/KE81yCeW6M6dzNGLoGunnajwbuzAnRWWFIRKgLDlpy2UX8qEiwfJDYID0M9GluDmWqcquo0enzA6EWRNzdJFcGiaQLI8tJX+FCj24qgPPpq/jfQvHjUj+l8qkSZ7a64wgIGgbnY2FjzEJDTS9Sx+DmCODXj+yuq8aUmTZpkOtyntv1sVEk7xo8fj3nz5qV6H+db/WaQ9sWXyUQRFMFTRkA1OZMkJXmJKkL8JJmv5PJ9xZKq4iTaGm9CD0f5inymb21Fq/SFSb4SjwH1bXM/dSqVr2jE8wlqB01CNdh7OPYM+Io+FpTyyJV9OPq+ooekvjzJV+QbimANiC6DwYra0k9anydSVSl/HnQoX9r4SosUvlKXvqJB/JROvZp8pYj1lbIsF/mHSFWqviKSxbLUQzJ79tyYOHEyfvjhBzNAtTQ1+11Mqvqk+3j66acDZamXc8WKFfHMM8/gV/qD5Oyb/4Vm/zsLUsXjjvrkJwWpKkJStegMpComhFQNqSHAdRvaD/wPDqxadXpStYYEZ+0G4I0paFJMfbCiMOP+93FsQyqkavkq4JOnMKyKmgTlR8/Br+L3vR/gqTBLqmoNfTp1UrVqE/Y/2Qpxd4aSqsX44aWxqH3d1bjs8ivxr3/fhRyZMyN75rtO1SxZkTd7doQVboJX3iSqXBtCqrKWx8CnPkkzUnVsWZBQrXzoARz5nkg7jUVf49W0XBH+kiVLmvdMSmAZKmu2ilitwYciVgTUaUas/gKpUqKHld88j9ZKVHFZYdQb8Q1W8/W6c7OiMTkMcbjx1izIki0HslI1TaZ350L2XMQGeepg2LytWP8Dy25uQ1whUlXgAbxPUpPqWFYkSdtFbn4ludqxB/d0pA9eeRuKD/kEa0i0TiFVexUNOol5Y3Pi6msy4d9N52HpD4fx7ty+yMxrzF21G17bfCqp2sD/X7txCQbGklTlKG5JlcaSWvoumsUqsnwNbvoX7y/7H90fn+elW2LQK9uxjdcbSqraP7nhtKTqYkqprme3MIo+tup5/corr5w2idIR4qup02bYPlXEBykxg8XWllBZfJ3f5CyoUT7C9KcSXujiJasIYAYSq4HqPkAcMTSAr4kZhK+rR2JoQjligTIGM/QkNrCtv4K4QdGm3pEkRpwKh5uPsQZf26aBwg3C1yJJwg0+vjYRK64bKAxNrNyDZEnnV3BEx4hcqVuNyfTHbcLVPsYWvjaYm+rja5NKvXwpk9SqGTGDWoE1CC+K+sQLdYpbzKAuA/oQK4wdSexQkNjAx9cqL9PKxVcPW6tsNfhv2pKqdj6p8r68+81uZHCqTfsYJFXhJA+NYsuhJw3tg0WFJHtTB9Yhe26QYAzflwZX+87xNLoGKR1cqQIdtgwNTkJFQ3erUArdaQCBQgMWo0uZL+yDvDBjL8/wGqxXAFKsWoxYfUrUlM+wcBrUGF9g0mPcxvA8R+8KMmS4iVyp2Z/Gp9JgZBrwV8SqKw3fqUy46U+lrCQyfFcavSPVZPyjoVuWCkdrVgIRK0WprMGL2hTRNLo63wsoxtHo5QoXQR4+NJU+U4O9qbwMe5bBA+0/VbYFDJNW9r8Lkajie758w8LCzFf++Ph4E572SYIv6lypB8VfFQFEhcP/Tp+qgwcPYvLkyack0bhQotTAfiREZEr9zVJKYmJt3HVXjlR9JWcyX7GkqnRYMTRLqICeteLMFydpL/qFfEXRquEN1AE1lqQqBsNJqsbzwTiO84MSCOD4YJOv9GTd7cr6Kl/pLX8I8RU/rB/wFe5rfcWG8/UxQb6ih17T4gXOC6mqnC+3SeqiB6V8RcQq1FfU2dT3lbgihY2vlC5kI1XZc+gBmbqv2HItgLv5stY4VWqfnpFEmTarVKliolWK8qqplD4uhMqFGafqb5Cqr+ZhVA1Fqm5G6/6PYd+KlJGqhSRwX+PQ/Lfx7TPzsOGTr3H0zVloEq7+nRGYcu+7OLJu+Smk6viKNTjx4UN86d9EAFsUvce8gRO75+PZCpZUVRjwhCFVJ1OJVO1+uDli/pWcVP2k6NjVmXDFzVkw9BESo+V24OM/Ul37CS/7X1qTKjX5+1WEajYJ1cMkVD+kPaGS6EOUPgLo2a+v92cjq7cexONvr8EHHrFS1CoI7i+Q/mlSxW2/nMQnL4xFSdajTLfHoce8XdipJm67lqBvcWW4y4SE6d9gJUmNGXxX95Wq8nzaZ99RvDe3Kf//OtyR7x68y2s6hVRx//Vb9uK9z1fhnQU7sWzzbtzf/WZkuuJWhPX8ECvIQ1KNVB2gXQZlx1V8Jvyr7WtY+fNRfPDgIOTgNWat3BkvrQd2qG9T4DiSqkP65vEV+oQlj1TtWPUJWlVWv88saDH1OyzTOFdqwnfKfXnqXwfvR32qMhqpEp6aO3cunnrqKVP//0hs9r/pXvY/ixXMe83DDAYn8B1nMAOnGvi3YL5CpnVLL2KGHkmxZgDgnsTRfYgZlJhiaH2Lr/sRfyuD9jhiBhGqoZUtvlbQQR9ZuxEvSIUN1KpFAQrhBeEGE1ESZiAWVuRKOMPga2JrESthCAU3hB2C+NpibOFrBSf6VCBZIlbuwf9QYMRgjxB8rQF+lZRCGFv42pAskjHhaw3427yUzfjXKoIki/uJVNUnRqgrvOClUq/BqSJVscTW5TUUC/FBDg8zmI+xp2AGixvU/K9atUTPCmeW80eqPIAYanRdqN9HRJqDxo8gQG8aXx49aGClhVZzPzUBFMnqx3UDSKCGKqMfpyNo9NGJFQ1I7E0CJCP2pDG7Uruw4FXIhljRIIb4CAAasKh5CyI1YFgPEiPtI+OLVNnO+vYrvYzpd9gX2x7O6bBYnoPH9ypviZUYcjf+l3Lm91dFEqFjZdL6ToZRk1xRO1I7cF07TpUeWqnU1fyvFSuBjF5XX909kJhIg6sTnUhVLLWM+fqez4R6fcPLWfS1PdC8yZStJVX9Bwy6YONUqfO7xsQ5HTDVF0a1ixc5+ityLlKqqx+WIlVnGlDvfIgidkq0oeQdH3/8sbf2VKlBUiXbnY2v6GFZvjjrUKVIkirrK2agbE7lK2ryN4BEahh9ZQR9RZGqUTUqYmB8OfTyfKWH7yt8QMlXtHw6X9H+3T1f6c3terjKL4yvcL5BWP7zkv2vaoHc6KBmsp6v+B8gFM3VxwcNO6BR0dU2Oo4Pxxg+JEsV9Jr/0U98XzHRKt9XvIejyjQbSdWkSRkrpbr88J133jEfOR555JFU7+3CDf77F0mV+lQtexNPNyxpmj6Vbz8FWxYRrYUcd2TJMmDxR3infwJuuToXGne6D99//Tz6l8/K+nMrOo5+Fj+kJGILF+Kkmt09OwiNM7Oe3RaN8Y/PJ5JbhE97FMMtV5EcJU7E1oW87tDxshYtJsL8DkuGJaLgFZmQy6RUJ6latQyHFzyLsfl5rmv+hbojeO0kcieWLMJxlp1RzVNPriZRVCbB9StxgmWbHkiVBv41ESoRKkWo0gmhkqgep/xAdzayZstBPEZi9eHiA9i4Pw2I1Z8iVSQcPwC7d23CtJYR3P9K3B7XD0+z+u9SsoafDuK+RgVw42WZcHeH17DwAMkITbRRBMLTDSQ6ysC3l26+/yjJxkFLTD57ZghuyXQFbsneCk+v5XEpknhs4DHL3x6HsIJ5cWuJsXiJrOTVKUm8huuRM/4+fMztW0L6KElFqrbuWY+Rsf82zV3zj/kOW/i/X79+D2Kvy4SrizTEtC+OYx85TPA426dq1cJXUJ3lEehTxXX79q3DmEblSBovR5n+b+Ib3s8urt+Q4v40/tYeLxugScWu68iApEotDc72A1+AVGUnqfLwwqmYgVODGQqaKIxagjUWviZGUMZg00WAuECZttUMUPh6SE2LGUbUImYgvh5SqTz6+PhahIbTIL4uwfUWMwgri1gJM+jDbO+okgYvdE+JrzlVdwOdT8ep+eBQYmr1rRoexynnB+v4CuHoTnzdlf+jgITyE/TnOfvqOnQN5UisiK+FraUdDL4uifbC1wpclNQQLMLXJUyfqrrFixp8bYcqsi3BEoitY4gb1LolP8mTkn4E8HXufAHMoKkt3wK4665saUyqvOx/fntPY2zP8H4FCABFAh/l0G8aVx4dq6o/SAw6G6BIg6tZkwgVDT0yKQrDqkehHwFi39iy6EHDiLla9qzBv0hkOC9jaF5GlRFEokwEioZV3xHfsGqj2YX79OC8WLEJUZI8yeBiyvpKr31lfOXIH0KwKaPLwBqDSqSpU5niNLJt5tdDIUkaV9GqLiJXBKMdSJxaRxRD69LFzKC/bXiMAGIzGZ6MWk2aapsolSVUas5UJcwSqpiiRVG6UFEDDK3RbbTKEqtQUmWnWbJkx4ALRKqUCOJMZElpzDXw7qZNfLP8BTkXpEoRtDFjxpgsbxdaFCFYpI7uZ5AaSXVM9r/T+UooqdJ8xRIkVfEV0Kma7TslX1HUSr4ySL5CIjWSpGpotUj0i6OvxJQxvvBHvqKHYMBXWP99X9G81stXurI+m9A8/UEPycFxZUiqCuC6q05NVvJ3VKSqSoE86FQhgr5S3ITxm9NnGnq+oi9OejjKV8wXJ+MrYSjJB6Q+OCT3FRvhMw9Iz0/0BUqRqoxGqkTi1eFZ0dnTyV8jVYl47QOSi5XLcHLZEpw4gx5XpOevkiqT/W8xVo9rgmIEa9cWbYTX36QPrbVZA39bRHIkkvIZCU2Fm5Dpysxo1P9FnNj+Bd5qUd4M3Juzcn8s/nI1UXZIFr8VPGbtp3i/Z4z5sn5zRHO89p6yCq7G7sc6oJgGXyXRevxtNc9bgd9JyH7jcb+vWgcseRn3VM5vkgaEZv87sfATvNc1O+vsFbizbAd8tZD/uXppkHgu5nWvXo0jHzyNF+fMwWv3P4ut33yLk2u87H9pRKpEqH796guPUN2PI98n76d0MctqEqvH315ridWFjlgR3IeSqoKJvfHWdq5TFEaER03xqOrLpGZ3+375Fa8+1AellK7/2jxoOHkZ1pADbNx7Ehtpkk8fbYA7FMG6sw5mfHcEu3lMMOpkx7jaumkD/jvvVcx58nN8tOYXQ9RWL3oHDe/IhMtuyozWj+/GVh63WeWwm8eRlOz+9RieHZhgfOXmuo/i0x1HsfCdachzVSZcn6UaRnx82BC1AFHZS2LIV/2Styaj9I181l+ZHz1e2YvNP/N6Vs5Hr9hbkOnq/Kg9cwk2kdxt8xJjKKq06xdl/2uP21geN+Xwsv+JIB75Da+PaY0cvL/Li3XAg1+dMP8ZzFJ4Elt5f+s3rMfzTz2JOa9+i49W/ootLJeMSKr+jPjjVOk9Z/GCTVSRDF9z2ccMag5fnASiGUmVxqlSyxZl2e6WqKRw8eZD7FDihuHEDMNqRKF/Qnn0iy1jWrMYzECMIHyrli1diBUsZrCtXIQHhKX9flb6IGuIlTCD8AVxRXfOG3wtYsXzqlWMCWiY40oF8bVIVUwp29WmvIIWwtd2qv9X4jdFsfT/XYgNhK87cntb4euI4h6+LmGb/hErNOc69akymCFcY1MFP8QqaBHtBS0UqVLrlgBmyBXE10HMoKBFmkeqOiIw+G/eoLENSOSFqhmTyJRAUF4uRxEoNqpYFk2iy6JN5Uh08aJUSvE4UplH6sViYJVI9IopS4OWsgamwTsL7BkCFdRukaoAluUassP99ZW9L40nI4ooqRKIUatydNY+JlxZxhhdjLuviJN3PnWSE0u2TZ5EqlhJIkuaUGUPGrxz2eKms1w7qnLld5bxyfC7UjvIyGTL+uIucmWMzn00mKkJTZYoRkJFJs2pHfCXLJpkKrpIYcRwPqJwUZOZxDRp8pm02lBznZ3Pb0iXJVU5SKouzOC/ZyMiXR07djRJK/6KnAtSpeyDOkd6lsTEWsHBf1P6Cu0qP7G+Ygf+jSsVjsbR5dA0ujzaVYkyaVJ9XxldNxZj6kZjQOUK6Mn6LF8xdZxk/7S+ooek5yt6SPZhPU/pKwrr62OBfEUP2wH0EyWsaFJM41SdW1J1hUhV/tyGVJmvTZ6v1DW+Eoaanq8oO2Z8EfpKYflKMZQoWMT4yOl8xfqJ9RX1qcqIg/+eSf4sqbqVpOrqm6vhvy9/gu+/XICDCz7FgdPpZ//Dfk6//+obnmPpXyRVJGXL1+DY/x7GoDIapPQGlGk4Ap9/QpK2ZTMRFXXxe3ijbyXk4nlvKtwAr36gNOWr8f2LI9Aou/pVZUNi+ylYvICkyRyzCVj+Gb6e0BGRilJdcxvaDngKB5avNveJr9/A3HiRo0woULkr3n/9S6K7LTxuPfDd+3i7Vw3kvNHWzWKNPVK1fDEJ5CLse3YCKmuA3yv+geqtJmLh/G+IYPl/us71y3HorUcxuoo9d6GqQ7DsS13ryjTrUyVCdViEKtCHKuMQKl8ssVqDDwyxuoDJK1KQqnyVO+O5FUexeuv3WLxR+gOWUL9euhavv/EmxvZsi+JmcOgrkb3eRLxK99h50EaVREg2rfoW7SNtSvB8iePwxKf7sJnk5tAJ6jFu37gCM3rXwD+vz4Sri3bHI1//YIjWlr2H8MywsmZ4gRuKtcGU+XuwhcSKXA4HD5/EV29MQ/ztN5DIFUCP5zdhA+HCpm3LMLm20rpfiTsqD8YjCw5gEx+Nh05SDwPf/u95tIjSWFqZkLXGA3h/sx1keOfBn/DKnK7IfC19MV8DDH5uHdb9wv/icQd+OYKPXpmNyvlsMo3QcapMs8DlbxAP2bGxwupPw+PfHDLkTfd3kPe3bu13mNw5Gnfw2Jsjh+OJRT9jF6/VkaqQ5n/CCSGYQVOLrz3MwHedMGIZtQSLLWfwdSuSK4OvFbRQdxolsqobg8HVItE7tqxpbWUwtoevTWSKOEEkyWAGToUZuvrBBC7bLgQWK6i1V0p8rXP2E76Osd0H1BVHLWQsvhaeJqbgMT6+7sPj+vA/Fbzw8bVRkqjOZXleET7ha+Ia4eqWxAfC2Ups1Zrbha+bUBsIMxAnmFZgVB9f60NsNKdllLOAuMqSKg8zeHjB5ycGM3CfLMRoadqnqr0hVXacqpTNmixQpHpTtfeML1UC9SPLoF5kabRMqICuSlZRNQp91UkuMQr9qrAisBCVZrmzGCoLU2q+tlMNa6YRe1FN8yZjdE9leIJFtQn1w5XqgN/PMGoLNFWB1Amvr1JDcj91juuncwl86nhqHzFrrlN/E03FqJX5T6M6tzdsmYYlMxa5MmFSVpZO1Pa8XvWnkuFNqkcBRU4bev1DRKhqKT00gaK+vMcUKozIggURQ0atJk0ycPKmf9bY/rIfsVITsvREqiRqeqd2wn8FvP5dUqXB8kaOHIlPP/3UW5M+JYmkKnNmO05VSl+xfmIfjpovnL8wqpQuiXpR8pUyaF050voKyVU/+soQ+kqfSuXQhfW4q+cranr6p3xFDzXPV0yKdY9gaX+zL4/vxfOrKWBTkqrzkqgiXy605zXLV5RKXQkqrK8UJ6kqjupehsxo+UqhQuYDRHjBQoZMnc5X/I8PWr5b41RlsEjV2cifI1WNcPt1l+GyqzKjfMUENKhSCfUrJaDeH2n1mrjnsfdxZCmJx6rP/hKpOrpoEU6sXohtDw1Dk7zK6Hcd8petgV7tOmB4x3Z8L0QgyxWsK3dGYtzst3Fk9VIcVzO95V9gyZS2iPu36tENKByZiD7t2mMYj+mWVB55NRZVplsR33oMVn2h/e29H1u+Aoden4p2JTTQaibcUSQBXVp3xPAOrdEpvghuu+6fyJLjLtx1cyYUNCnVeW/LFpq08SeWfYXlMxqh3K28h0xXIG9ENfRoq//sgEHN6yOpsM2O+n/5YvHIMx/i+FJlK0yb5n+GUClt+qzphlD9liKTXkYSEavHFLEyfawuELFKQapuuisPImu0QGLtBqhW02r1Wg0QV7Esct3pj+94IwrVGYvHv/0JW34ioVI0yZzvhBkgd+FH96B2MTsA8s0Fq6Jh58Ho1ncYuvXoh7qxRQyxyHRbWXR+bCGWq7kc71UZ99av/BZDqhc1Y6tdm7sSGnYajB79h6FLx5YolU3/mxUV+7+Hz3edxOaDJ8w4X8s/fx3tyqkJbSbcmK8aGnYdgm79eEyndojMba83c5nOmPv5ITMI73o1YeQ1btq8BrO6lTf9EjPdWgo12g1CDx7XsW0DFL2DfnFnIeTNkgn/zF3K9Kkyzfh47NZfTuCrefcjseB15ty3Fk1Ek65Dzf116dELNaLymCbAmTJXRt9HVmEV/2ujN/ivI1Uz+A7L65Eq28IlOb72MENOZa4rgJgS4WjIelenAt/ZseVNIriuVSuiN4nU4BqR6F+1PLrxfd5VESDhVuJh9VMSIVLwojtxgjCD6TpjPsQSC5BU+VNtV+DCx9fCC1JDrIQZDL4W3iZxIo7XcEQiX6ZZIberJYyPr31VizCpWoB1LO3ha2IBZdO2WCaIrxWl0liWwt+tRKoMvi5qm/6RTNUsGU5S5bVsKVwYUcQMUSRWpTmfh2VlMANVH2FFoszHWJUh1TYFzI+77lKkKk2z/3mD/6bsfB+qAjjUYgWLIKlcBJrEVkBjGlxAsUuVSHRWnymSqW5xZdHBM7SYcycWaHsavAONqXCk2LDtF0LD0FB9ZAgZi9u6lA9HJ0WTBBa5ToY3+e5lMBlWxIrzYswyvL7YKx26vtCLOYs1i3j5IVBVAkuquA/X92MFU4rHrmWKowNVzfwUilTESk3/9LW9Mxl6B07V4V7GVnroJtT6NLZCkyJVSdSqYUUQX6QwKhYuhPIFCqAi58MLhAJFa2RrdDmNBYm+WlJ1YZr/na1s3rwZ7du3N9M/K3+XVCnzYL9+/f5yn64LJYlq/idSlcJXAv6i0D7tq48QJQuzvpQv7flKORvVldJXetFXusZ6vkJC8oe+UtH6im3/rPXWVzprP6+e+77ip0r1fUX7ylfkT/WL5scN57pP1RVXoHKBPGbgX/lKY6qyY1pfKW58pUpYYRPCt75SEBX5sCyWv6Dxk9BMPqn5ipYzYvO/s5E/Q6o2Tq1tmrylZqM/0pojX8aRZauIbD/Fgn6J5ov53dFN8e1Xm04lVQuex0RlPsv0D5Qc/aJHqtT0Ts0HF2Lrc5MxpkEMiv5fyH9c+W+UTWiOBx54HT+tXGkHzdU51ddq+QKsemgEBtcqj/xq0ucfk+n/UKJ8LYwYdT/WLVhEErMYRxYG7/fEymU48PIDmN2yCkr++/LgcbfkQ/1OM/DmxJqI4DX8s/IgLFuw0pAqHXt0mfpgfYkV943CABK3/DeF/ifJVOYwNG7WGy++8Al+X07yt2QhTq5ayf8ah+a36vzF0ePxj1lW55dUaXDfIKG6H78dJDrN4GKJ1Rp8tPTghSFWBPdKFHP/oMRkdeBUvQI33FYIEXU7oNvE1/DmyuPY9TNJSoBQebr3JLb8eBLfffQWBnRqgpJ3B8fskl7Oulmx0QCMm7cGyzVA74ETWKtz8Dj1tVq/5jvMGNwNMYVttMv/78wl66Hj1HexYJuaJJ4kOfL+ixx7xTfzMb5PO5TPe1PIMZnwr8JV0bjP/Xj6yx9MP6lgIosT5r/WbViDhyf3Q+UIS8qs3oaitfpj3LMvomNEJlxxa25M+8InVb9jLa95xw+/Y8EHL6Bf+wYIu9snmlavvq0YKjYfhumvrcMy/of6eZlEFZs/Q5ucdtiI5o+su3RJVQ6PVKWGGaTCDCRVBfMXQo2ypYgZyht83SKhgklU0YXTHpXLo0d8WXTke17jqBrMQO1IDCDM0EnY1scMfPcH8LUiV8QVIjedPdygj7UiTZZYWQwt4tSHxxqMoXN52EIfa82wR5yKTAlb+1Evg695TP+oEtxPfap4XNlwdCS+VlM/DU/UjthaUSuRKoOv+b+hQxU1IcmqXyLMYgb1wy4VjmrFiiKBmFotWyoULIgKJFalChJzESv4H2LtB2wfOwSxtXBEZkOq0rD5X/sOISnVU3yBDxjeu+CIImSUZNDN4yqgaUw5NCMw7FSpPNqxsNqqsAgQFeaTgTU1xqeRZHgRJtvZnsaiIWTwvgKMnKrJUjdj8OKWWLES2BCmWHMJj1FbVm2Jla0c6gSndqDKbtKf5zJZA3mMZeb2f3Sc3wRQlUaGV6XpUEYhSHWYUxtPkiuxbEXWSKraR5VG63KlvPTQxc0Apup4n0Rj1xCLJqmKEYs2Ri+EyEKFTwGKPnu2QNGSUpP6kVMx6f790xepkigLoJJWnCmrTUr5O6Rq586dJqW70rGnd0lK8hJVnM5XPD+RncuFhZmIrnylCX2leVx5z1dKow3rrB4sp/gK531fMZEofQhI4Svyh27l5Sen+or2NdFdz1d68UEnX1Fkq2bhfLjuPCSqqFa0AB+UpdGUPtKQaseYUAafMFTntFLRwsl9pXARFMmXPIvP6XxFD81s2XI6UiXAnRqpoh7l+u/f/S9enJbaQL9/oFOm4vO3P+N5F+PY0q+x+7X/4EWuf/2J57Dvu2U4FpI84ujiRTjy7f+w4hEeN20m3nvrUxwLybynQYSVMv341x9h+X8ewMuT9B8T8fqj/8XaT74mMVqBE4u/NX2f/GNMs8N1K3H0i/ew+In7zH//Z9JEvPbQk1j1wef4XdkFl/N/fUIV0EUkO6uBhZ9g5X8fxMtTJ+DpKdPw3tOvYt+iVTj55Tx8OHMCXv7PazjwLe8t9D6W8D91nQvexeIn5+Ilr8yenzMHnz3/OvYtXEGEvwzHvWOUde+XBW/hizncb/ZD+O7jr7gudTucC/UJ1Ro/QnUJECpf/KaAhliROJzXAYJJ2jbvOYwFCxZg5oPPnFZnPf0+nnlrCT5a+zM2kUztFClJSagCSjJBXrBt1yF8PP9TPPaUPcecx1/C0+8sw+ebTmL7L9xnv0eoAsdZsrPjwBF88fmXePw/83jcs5j7n4/x+jf7sJbblNgi2X8ZEgds3/cLPvt0AR558gXzX3Offg8vf74TK7j/Dm5PmRlQ/6uo2q7vT+Cbb77Fk0+8gFkPvoAHX/wa89f9jq2HDuODV3Set/G/jSeS9XMTsVKK9U079uPD+f/DIw8/a/5z9sNv45n3VuHzrSexi/envlZrdQyP3bBzH958/lXM5n6vL/mR5yBh9s4nzfCkykuprozQ+uB6Onxt3nm5CiCsYGHi6wi0IGZoRrzQJKYsOiSUR8fYMhYzECe0M5hB2MG2atHHWGGGjsQCXfiuD8XXSmDVh2rGjjKYOYgZ1AdLxMjuK/xsMXQfYgYRK+FrJZewBIzbtE8IvtY5fGLl4+venorEiVi1oQpft6ZqsN+O5SPMh+QOFXk/xNrqgy18XZ/TIL4uZsZ9jS2iCBUxA7F1eeKGEgUKIXcoqQrgBV9D8XU2VK2apqTKj1TJ6NbI6vTlD1BmDK8LppYWqWLBNI0ui6YkHo1JpJqyQBux0JoY5qmCDKfhlUHPgkbbvM6CRWN4TvUF3RizYgnzVV0d4nqzMoQaXpn4ZFg/5Gi/yPMYHmf29c4nNQCU5xSolFFVsfQ/+t/uNLqiWz1I2jR+lSqApmr/qf9oz+NFqNoYZl0MbUsT5PL+OsaWR0sSK9/odakCitVMH5GiiClSJGBwMemieQUU83qkyoYnA0DRM36ePGTVLFv1y0mPpEpf75o1a2bSi/8Z+aukSpmjHnroIQwbNiwwZlZ6lqSaNlHF6XzF9xOtKy9SxQekfKWJ8RUSD9Zh6yu2c6aSoSg6pQdOB9Zx0/+QdTP0I4R8xZAl31foA70j5ReK7LIOywdCfEVjROjBp4eq2jrLV7SuZuE85z5RxWWXITG8MLolRKI5/d2QKj0gOU30fEWD/ZovTgFfKYxC9IPkyVxS+Aq3246nIlUuUmVA92lIlVTN4rBhPbDxT+iGdZa0LCLZWbgQv69YadevUaKJFARIqmQOa3XcWnPcKdvNeFQiLSRD/n+sXcV9bfry5Pv66o1htTbkmHU8Rv21QjMCpqLH1DxP/2Xum/fC6z65lMREzRnXc50hR6nch/5zufeffpmt5z2tXs7jU5Txwm8tEdP51pPIcftvp5C8c6N+kz9LqBShIjK+xMSPWM1fJmKVHICfa11LMqOMdfv42jmt/qYEDiQTh1hVzpLkrVdyB5KP3TxW51BSB51DxOiP7kdZ+0SUAsdxuoPXtzGE2KRUEw0iF9nD//CP2clzpDreVajqv5TR0DuO/NLco8a42spr1XmUndCQoxS6wbu/PSofTxW9U1KLlPdniBjPrX22e33QQjWjkyphmmmGVCmlOnGBMEMqpErbRKqKkVTV8/B1k+gyHr4uhSbE1I1LWcygvssWXxMzUA2+Jj7Qx1lhAUWjDGHiOhEkYQZ9YLVkyW738XUnqrCzaTJI9fG1cIPwtfZTxj5DoLislmA+vtZxajHTg8dYfG1bgvUV5uByF2ETYmw/m3bb0sTWvH61DusofE3S2Mrg62JmwN96wtckVsqoXZW4IbaoxQzC1sINxfORfAovJEtSEYIZPHwt3HBX5rtRLU1JlWn+l8UaN6AChnY+FCwqGUMdFkRDGrsxjd2IxqsjEBVelIUTZjqpi1jJ8AKMMr5YtekwRzVf4rlOKqP0ogHUX2pgbCkMoPaNtoxaxupIo3SgUWR4n10b8sTzKQ++klN05X4mTaO3j9+J3xiZaoEnz0XGrOx/Sq+uDnWqANpXy+qn1YnzMrj6UWl8qjZi1DHl0LZiWTQjo24YEY7aXtO/6mTSlanqR2WMToOXp+ELe6TKGF7tPM00aHBThqZc02fzP1+ef/55dO7c2Qy2erbyV0mVxqRq2bIltm7d6q1J36LBf2W70/qK5yealisaxgek9ZUm9JWG5eQrSssf9BU9JNXU1CdXahMd6it6IKlu+r6iB6T1lQj0OQtf0YcIdSTVw7B2kbznnFQpUYUiVV3jI9G6Yhk05bNBD8javLdE+ko1+kklqjqa+r5Sjr5SgGVmfEV+chpf8UmVa/53ZlLl9OJWm5RChGoGVj54Pw4fuHQiVClllRexuhDEymna6iVDqnIoUYXFfymxtY+vTaSqQGHUJWZoRMzQqAIxNt/ddUtbfN2gBDED8YPB16XDbfCCpErNAIUZuvEdH4qvTdcAg69LGswg7c95G3AQTrCkR3hBGEPH6qOsCV4QEwtf64OumhYafE01+Jo4RthaUSrtr4+5Pr5WBEvBC2FsRatMizHuq32Uv0AZgjU+VRviBIOvSa5aVCiNhuIQvD+DrxW0IGaIDQszLcCEG8oVLIiwfCwj4YTT4WtTrlaV/a9qmjb/80iVH5b0gaJUITUfKEqLk0lXJ8GoywKrQ6PWkcFZSNboRdE0QkYvZgqvNY3QlkYXWDQGozGlYtYmdMntIkW9xaZjSmFQXAQGxFlipWZLpjmgMT6NSoP5zFohyUAGNBme+6hyGMNqO7eZDnvcLmZuDB/YbqdK72gG/eX+GqtK52zH9Wryp+iU0kJrENPWrNxt1L61bEmT+c9kJaEm6Ot7URup8klVQZZbjhy2o30gWhXSX8QvQ6lt/jcwXZIqRY+mTZuGUaNGnXV6879CqpYvX44WLVr85X5YaSGGVGUJjlOVqq94y0obnsQ6VJc+YHyFD8M6JBt1wouE+Ip90JgPEPrylMJXOof4iuq5ok8DfF/hQ9KE9ukr8iPjK9wv1FdUt/Vw68kHbr2i+c559j81/0sokBvtytNPokqjTUx5NCpdwviKwvhVi1tfqehFdX1SlZ/ldDa+omXb/G+KI1WOVGVINQP7mrTpM7GChOpSjFCllFWbSazeWYuPlx3y+lilDsqdXtx6qZEq27rFwwua+phB77rcBVEoXyGDrxuQuNQmdqjDd3lt4WvihfrE2I1LhRl83UL4mtva8h2fHF/blmE+ERKpUSsXkSlhhoHxEQF8rcCDxdc2x0AAX/N8JuDg42ueI4CbtQ+3heJrTU3rMrPdYmylVw/ia85zqr5VrXlfwtcteI/C163U1Sa+gvkYW8vrWqMPscIMGqYo0mvhUpakqqiJVBEzeM3/hBsMZshtE1b4mEFlqz5Vadr8r137ToFxqvKmAIs+ULTrCqBQ/sKID6ehBZzILmsKJJYMQz0avR7BYhMaXR3QWrCAZXSxaWN4GYsGFGu1YFFkiwbiOrFedaozxMpn1DGe4bmvAKOMJdLTXoaj+sY3huX2bp5R25VR8z19tVdFUMUga+b5ZXxzHv6nrkd9qBSZUgc6VRSprrEtwaGiU63VbIvbm/5/e2caZNl11HlswUDMp2GbseTet9r3fe2u3rureqvqvbW29gVsGPCiiYmYD3zANrYWyxYwHpgggmBiCMbBl4EPMwavyDZgS1bbki0JBmNbltltGTBYZ/6/zHPee1X9qrulrlJVdWVGZJx777v16t2bJ+/9/0/myYPhiVaNDRogppKZGbyj3YAilUlGmYAv4zdbpEoGz0Y3g5vRXYvhuZ8w6eVKqpB/+Id/SL/wC79g60ZdScTq1ZIq1sW67bbbbGHilSSHbE6Vr1NV11fyNtre1Jr29bivHFbfwVdm5CtEqk5AqvSw5OF4i/pt8RXC5Bf5ivr4nerfHCOkT6qsE6uqrzAiha/wAJvlK/oufIViFTOti0CqKFTR0mBVfM4N9pivnBsdsKiuTTYtvtLaZpX/COUPa7uyMvolfMVfNkGqglRdu2qE6o8+mZ55FEL1wSBUNWLE6n+LWD351wa+X7dy66Gvm66OOVXvTetFqsAGszCD3m+OGcALIgxqWYZlR2dnOs4gvvDBYeEFcOfxHsfYZ7R/kzBDIVUFX4MbwNIFMzCFABxBBgvkiTlThhmEF8ANYO2f2S5ixLkjjqmr+NoxQ3U6QSZW9jn4utO+2wZta/B1yQqDPIGtKVTBNljc8DXHR/qErwfT+Yyvz5IVRrRqfMjqFkwKKzBdYGfG14YZhK2HRawgVWAFwwwFN9RGqkz9flqkaslJlZVUrxrdDJ+NXkAi+5R8HBQogk0elqEpfUjFjpMy/EkZnLQmDH6rDHCbwN15VDfTAaMMpptuhpcCEu+CDKklp5NR97fL2A+KTb8Tw9tcK0978miUjKLvJoxItT6UYwBJjH6fvh/GfXt/R7pVBqWso5VMF/my/E+1jPzfM9Zn81f4TZxzu1oMzrwqJgHePirDj/WnW9QCFM+IWJ0b7k+npIdk+D3Mp5LRSWmyyfcy+Ji2W3TP1m/YdrHBZxm+GH35pv8V4be9613vSm9961stqvTKK6/kTy6WKyVV3/72t22R37Nnz6bf/d3fveR3LkeBVPk6VbN9BT+p+AqttFGfj+jBQLpo8RUKOJiv6AGJrxClms9XeEDhJyg+gq9AsJxYEdLvTw/u6bcHZfEVyJWlxOo78BXWi7DKlurbR1oWPv3vB697YzrQ1pju1IPS8r7lK2dH+tPJob40JWJVz1dG29otUsXk3Uv5ir1s1Eb6X5Cqa1G/99TnjVA9K0J1IQhVXXFilVMBg1hdc7pqSNUGkaot9UlVLb5Ge5pb7d15RJiByM0R6YmMr09BqkRGCm5wzOC44XZtMxcbfA2RgvAwGFuLr9820Zvxdb+RLHDEW/P8bLC5r99ag6+l4GtL45NCvgxfi/CBscEYBV+j4JNafG3BC7Vk4czF10SpzumzMzqHSNXZ0UGRyG5hhrYKZtguzACxGhZmaG9ssSkDNhdbuGHWPOxMqjwA5KRqiav/3Vu3+l915ecqC+THM3eIiz3YIXIl0ET0hklmGPx0Dk8y+o7eKkPDqCuqfUKTGB4FON5pxzKj3s7ou8AihmfVZiJX6ggY3wCjGDHnwsyZQ3K7vrMKHp1x3y02fYfY9C0QPP0eik9YZ5HaRD51MEurkuH5W4iV/Ta2pbdSal0d5fbtA2b40+pAzKk6MzZklQ8P9nWn3V0dUp9XBVgc7+hIzbpvRqpg01kvMnqeSMfiv29/+/Jap6qeUAWQaoDMe/rN3/zN9Nxzz+VPZsvlSBXf87nPfS69+93vtkWGP/vZz+ZPVpb4nKpSqKKOr2Q/cW200RUq3x3UgwJfmarjKzwc6/kKD0z6K6NO5EcTgcJXOIavsOgvIf1aX+Ghia8Q/YVc8VD1EavuNNmyNf3IIsyp2t/akO7dNZJuYf4YD/6BnnRavjI9MpAO9HZVfaW9zYmVfKVCqubxFdassqIudl4s/mtAPEjVNaMlQvXsow+np3/58fRPfxOEaj65IGJVKbf+rVdmVaQLXdm6atL/SvU/lmIRZvDIVC1mKPi6KTUIH5LRcbDTccOkdFok65RwKJiBaQOQKsMMYIVa3KDtypIsEBxtQ5LADeBtolPMx35QuAFi9c6dBDK8SiDBC8/m8vPB10SvKoEMqeNr9iFWHYaxq1lf/E13ukf/x/G1MLRIk+FqfWYteEftrRCsHYM2vQZ8zTzsc+ND6eT4YJoS1t5jmKEj7RJegmswENthpKrBSVUFM2TckO8h2LoELZZ28d9S/a+GRWP8AhTLiHExPNGq3sbmtFOG39femvZLD3UJLIpZn+lrT2fEZI1UiZyUqJUbv1s3UzdZ2xjLCI6MSJgRA0KWCF0yAR8WDUjE+A8SspTxDTDqM4gVRuc7zotAwZhLZMpCkzpuhMuIVXu6CVUHuBl2LaV2fglhWiqg2DO5nlY3X+fZuXQAka6bh3p1PV02p+rM2GA6NTaQjo30pwMiVvvEqpmEvxOw2NmVmgWgC6kqxSowevXeudG5f2vWrgxSVeTLX/6yrSP1lre8xdaUeuKJJ9JfzZlM/dhjj1mJ2lphUV+KUVDh7/z58+nRRx9d0eC4Uv2vjq8Y0ZJ/FD9BeUD2y1d2tbaYnxRfYV0GfOXsXF9Rv634CiM92qafM9qEr5D/XCFW8hX8odZXaIuvMDJl0WB8S993sHnhSZUt/qvvvWt8IN2kB+UZPRzPDPel06MD6aR85ai2D+jYPgYiuqno05bG5Cuk/xVSNZ+v4Cf4S5CqIFXXklKUgjlUz75fhOrxD6Z/DEJ1WaklVs8HsbpmdPXMqfJ1qip4IW/bfsEMetcVYtXZ0CTM0Cx83ZIOCDNMiVjN6P1pBa4yPgU33AzGNbyQMYNwAfiaYANZXAVf3zkE3i3EygdfyXABM/wnKZihkKsHCFzoXHA0+MPXc3WMTYCi4Os7dfxWYWsCFzcSwOAcMHbB4TrH8LVwNEEKfrPh614KdOk8Hb9FuJsUwFODasdEqoQbZoQbCFzs7xFuEJmEWI11dFgRDydV1YHYghWMVOWAheHrNUtMqiqL/2agaO02DO9GroYm/cejLdua0nBTc9otsLi3rTXtVQc4KsOf0k0mtYm5VbDpYnTI1Hkx19uk5IRyUzGYjcTL8NTXN0PJ+PePdduCp1QFfMeEM2ryQEkJJIoFkPxpnXO3zsV4RJYwrK/STAdQR4A40Sn4DfpN56RniQ4IzJ6VoawT8DeD+k0y5O0y5K0jfekmGfmcmPJZGZ4OfKK7LZ2gI4tUkdJ0rL9HpKovTQ30pf19PWmvDA+rnujuTs26ZyzyVgw+Fyi64R0orl0B6X/15FOf+pTI4NvTz/7sz1pk6jd+4zfSb/3Wb5lSip11rn77t3/biNeHPvQhm5f1wAMPpPe85z3pxRdfzN+ycoXFf2+oIVXuK3o4mn8UX6n6CUpkd1S+ssd8ReSqTb7S1ZZOVnyFPnyxr9yqB5HlT/OQ0nFGnfCVKlHqtEEIRp9I/6vnKxS2+Cn5ChNJJ5sWh1TtathshV2YU0maAqTqhB6SzCVjAGJyoDft7+1Je5iA2tWZtnd1i2w224vmUr6CnxCx2rBhc5AqAHmQqhWvRqg+/Uc5QvXB9E+R8nfFcuGFGmIVqYDXhK6O9L8qqSqYgbLqFcwwBzewqG2jdKgRfC1sDb4WZjgkfA1eADcwtwpcUAZjwQ1z8TWRIaJORK0IRFgEarDTsLbja68KWIsZIFqW6SJcAd4AX0OqbuF/CafQGr7WdzPYS1sCF2B+MPZZYWzwNVX+biFSNdpv+JrW8LX+hvO4hpNgBgpwCF8zveaYyBTVxQ8zGNvbbXPSiVjt6OxK7U1t1ekCBTPoPtl92+yt4WvdzzVvXr/0karrr19nRKqAxDIKX4xunUE/mAolKNvdDc1pvLk57RRYhFUfFKM+ThVAKS3lHwuxMsPDpKU3clNzhzBGDVgkZJiNznwSClmQB/ozLCwmwOiT7DJoVMv+W7d7uBLjlmgVejNMmE4nBkyJ9Ftgxzp+owzMWloQq6JnRKAoRsEaO7ew4O/EcLpZHeCsfiNkalrgl5WeKRF9TEZmXsxhGf7QoEiV9nd1evnHiZ7u1Aip2oDBq4Yuxi4A2+6lQPZaMemVSKqKEKX68Ic/bIUs3vGOd6QHH3zQ5l6xiC/b73znO9MjjzySPv7xj6fvCxxeK3LkyHRas2bTvL5S/ATnLr6yTcd75Svbs6/slq9Mdriv8EA5oT4FsZrrKygPIML9DByUiNVsX9G+HoDMs6r1FQvtZ19hUipRq6Ot2xY+/e+669LOxi22KvoxfEXXY74i33Nf6TFf2Sf/2NUhX+ntSuPd3bonIlWX8ZUKqVovUhVzqoJUrXAt61AxhwpCFXOoXr1c+LO/ErF61lMBrSpgEKuVrKsjUvWQVaqrxQwlSkVUyt5zqHAhLZiBzBfWPR2rwddkuUxblovjBpZkIbsKHA2RqsXXYAZwxPnBDp9uI4zAgCwDsXdImXsFvn7rONlfXriCqQROrBxfM1hrfwO+1v8wfK3vNHzdk/+3lOAEWWA3Unsg4+tT+n2Gr4UDOG74GmK1Q/haOBt8fVJ/B75mgJnCVtPC4mCGQyJSRwbJButJu4Wv9zJ1oKs7teZIFYRqSwUv+ECs4Qe1HrRoNlK1pHOq7sqkqqGhtWJ0B4c5TGnHci5oNjiGZ62ZgcbGtL2lKU3I6KQ4HRabJrVpRgyUKmelwpmRGintTTIQRjcmq5YJbVYCElWnsAiTRa26LTeTMpEY30bjxaSt4pkMT2dgsTLml8CqzwNI8/dCqs6h2oYV3yjjksp3MylKGF3K7zwuY9LanCmx45t3DFk1EjrAWbHqU/qbE+oUR/QdGPxAR5stTDbZ12tAkXQmyNWYgCIMmUiVG1vAerOPPlh4l9Cktm2iopyF8OTb3rZy0v9CXI4cmUlr126a11cqD078psZXWuQrQ/KVHdlXiFodqfEVCNZ8vmLb2VeskmaNrxDtZYJqPV/BT4hW4Ss/P9GfTnQ0pn/7Qz9Ulxy9VqX6357WRvnLYDotX5mRH9kEW/nIgY72dFAPxCn5CmmyzKk60NuThru65CNNaQMPyEv4it9H+dSGLekXI1IVpGoF6z9//k/Tdz/zhFf5e/wD6R9X8TpUVytPW8Tq2fSRJ/9GoDyI1UrW1UaqaotbgRkqGKKojttgrFoGHvsawNfMyxa+VjvV0WppgOAFFGwLZmAw9kapYQYpWOKmAbK3OgwjOGbwAAZ4oRzzUuy96S1GrrxQ3NuFFcALZIqVCoHgayprg0HAIkSizolcMRjMb2C74GsiVpAqw9f6rbTMmToz1Jdu2j4kYjWUbh7rF77uM3x9crDHinE4vm5PB0SkJoUTwNU729vTnu6utEP4uqmhxTGDkSrwwsWYgfuLsuzN0kaq7rw3velNawUUZXTUgGHuANnQ1RLSzqbLBbVva0wjTU1phxj19uYmS2+CeZ7oEami1c0lj9JS9GSQG/s9amRhS23f3N9u24QYmdR2F8wYw2cDwoytXKSOkcbEqtD/cYfPuzJSVQyfiRWEjDkpGB5SRWSKMGNhzWdJ7bOO0JlOSTH6MYHbabUz2j8tInXjaH/WAXWCwXSj2PUZdQYWZZsUCdsrw+/p7Ey7BQ6ZgH9goC8Nah/H2WjzRBoTi5Jxjzw65dvcNzO6WibSraQ5VSEuvk7Vxvq+kh+UVb+p+goO3ylfGZWP4Cs71O6TrzBSU3yF0P5NVNap8RVai17JT4qvMHgwn69YqVMdJz2WaoA8KFGI1cnOhSdVFKrYJVJ1244Re2Cey74yrYflAfnUPvnKXvnGrs7sK/19qa+tw0aceEDO5yvbtrmvcP/WrxepikhVkKoVqoVQPcs6VEaovpUtHPJa5ekXPGL1B09FKuBK1tVBqt5nxRXABGAGaw03ZMxAyzFtMwhbMANRrBZhhqGmxowZfLoNg7EQKh+MbROByphB6vjaccMttPZZh+FrD170pLtHc3YXxSZ0HHx9tzDDT+k4a8aS/kdmC/iawnHga4rEEbWylD99D99vqX7CHGSknRJ2ofYAeBt8zbHTGV+DcYiwzQg7M/B6Tjj63EjG1+Pg65F0VpjhuPaneruEr9uEGby4FRh7rwjWqFruywZhbJ8uULCC4wXDWDWYwav/LXH635uuX2sGbzCAWNWKwc3oDhJN84Vs00X16GLGRawgVRNi0yW1CeWGnhRotOIPMgQGL2DxFowqoIhx6QAY/g7YNHXzxaZvH+S4Oov+tuSHMokO479lvNtyQkkB/Gl1BHJAUSbi3U05RzFmGDyM/TR5qDKuMWb9JiqoMF+KFaqZA8LCxYDaGe1DrCwUKQJ2crA3nYFc7RxOt+zdnm6SnpDxJ/t60j6xZ+ZUTQ71p4Ni4J0trWn9Jp8jwuh7AYpm7Mp9qzrQWgpVRKRqxQmFKigycjlfqdpcmvtBg3ylr0G+Ij/BV3bKVw7pAVL1lVYjVj7YMNtX7AFopKrqK14uteor/B0jU/gKBS2Kr7DeGwsFH+9oWPCS6pCq8catekgOyFf0kNw5kn1lPB0fG0wHeynmgq/0pin5yv7BvtTWxIhTdfDhkr6i7ShUEaRqpaoRqs9+uhKh+u63glAtlFwwYvVMXiAYYlUfuIcuX10tpGqTsCG4gAyXbdvQOZihgbb6/gNr2/tQmKFTx8cyvt4hzMA0GzCrEas8KOs4wQmVZbYIHziubjesUKbG3DHsc6vABxZ50jkFXzNPm7lXjq99QJa5V7X4GkwBvr49F54g44yghU1jEHYGU1MB2EiVtskEI7JG1pq1OnYMnA2+HugxfH1u+3C6de+OdPP+Hen0xHCa7O8xzEAm2OSgY4b+9nbhhDyfKmMG2ipekHL/8v1c8kIVd91dTf/bJmUUvjoSnwmVdQIMLQCUDU4KD9qkbUsDxPDSPe0t6bCxU08BPNbpJIuwoIcnScvLIBCt6QC0GBugeNcwLJqiE34unYMQJsa/V2CyGJmJd9YZMPw4KVA9VjadDlQYNayZyJQRKf0WmPM0RhczPq7jJ9QJaKe7Oz0Uqc8pf20LthKmpDIJC5RJjwhAAhAPDQ+ko6NDaUJMmlRIT2dyFl3Smtzg5R42+72TWvrfz6/cOVWrVWrT/+r7Cq0eluYjF/uKpQE2VX2F6plH8JOs+Ar9s/gKD8taX/HcZt++DV+RL1R9xT/jXKpiFl9h3iEpgdPti7BOlUjV0OZNelD6QuAnRvorvjKj9nCNrxyRr2zXw5KBGMuNvkJfiTlVQapWokKo/pEIVSFUL72ULRuyUGIRq997Nv3hFzwVsB5wD12+ulrS/yADhg0yZjC8UMEMkC0nWCX6wruQSBWYoUEtaYBlMHZ3W4vwKXP9fUDW8XWbMINnupD2dy7jgFsHhKmFIwxf63PwA9jAMIMUzEBlv9qBWqr2ga/B06yRCb5GyRSDYJEuyDzuOyimJWJ1lsIZwiiQKdbg9CkNTqLA1ycyxnZ83Z6OimgdZgpNR5ut3zkz1JtOWTn12fgaPTwymHb396bWprzwbyZVVcyQSamUbZ+rlqv/LWWkqpAqM3gjIFFtBodFrSOo5UIqQNGM7pPt2rY1pmHAYrPPsWIy/iGLWEGuWtPRzhZttxqrBSjeKAMDFr18OUbPgFD73gkcJFopSEKO6hQ3S+kwDhrpFGLN6gCk/ZUJ/BAq6wwCkezbHC19Tl18/jfVCTH6URmV2v+k/R2lEIWOobZ69UBvOtonliyCdaivJx0Wo57q7U5TedI91cwMJI4PpwNqe1ravRoJBjejV6uY1QJFcxrtQ04x+s8HqVpxUkjVfL7CtvtKfkDO8RWiVh2WMktI3+dY7WlrToctV5oHZdVXbC7gHF8pAxAVX8m+477iFXn4vOorXmXznmH145atCx+puk6katvmdFQPvuIrk3qImq8MzPaVfXpIdja3+cNRPnJJX8kPR9aqisV/g1StNK0WpaBsOhGqIFSLJRCrX/+9Z4xYRan1laWrjVSBDQqWrtWCGWoHYyv4Wtqs9+AggQswA8RK+JqMsNrB2BlhhtPCt44ZfDDWM8SEE0SkbusvWTBOoJg2UEqtM6XAolY1nzOVAOJlkS3wNbhahKqCr7XN9APqH1Agg4Fgr04oLA3ZA08bvmbfFXx9QpiAKn9T4Gvh6qPan+rpEm6gAFyvYYapoYF0eGw4HRTBGmjvtIFYJ1QZMxipQj3lr3LvpOBr5lQtafrf3SJVN9zgpKoxG70ARWOCGeigBhLN8Gw7oUK5yA5dzChgsaXZiBWT8QGLx2V0iBWAkQ5wqqfNSpzfKLVWoNHmimB4MV+2bXRebam5j9HZ5hifoVRL43w+Z8TeSJY6ACWnnV332EJkVDrhc/7PGYHMM6N9ltpHCJLKfpSqtMiUOsJhOoMMflhGxtikMB0d6bc0psKeLe1veChNCigOdHXZSIIBxU0UqZDRqUhixnejOzgsrLpJ99fT/6JQxcoTqv+tXeekqp6vVBx8Hl/ZJN2mftGlfjDOIET2lb3kSr9aX8Ef9AAsvmJFK7KvUGKVFAAedIToyYM+uAgl1Un/G9q2JZ3Qw+/4+GA6MtxnvgKRmhpi2QE9IEeH0wE9IPs6OqoPxyv0FR6Qkf4XpGolKQv7VgjVBx+LlL/XQcocKyNWVryiPogPXV66akiV3nE2ZYBBWLWkAFpRKzDDXNxg70FaL1gBZoBAtOm9ONxItArM0Jx2Sw+1CydQEwBiJcxQptsQPfJlhBiQFZkCH4g03SbcQFQKHMGga8HX6Fx8zfat/V7UAvxMYYvK2rIWwWKRX+Zoga+7LbMGfE2Bt5PSGf3tURGpw53C1SJWYOzDIl1UBgZfH+l3fD09JkzdLVI10JcOjw4IMwirDA4IX4+k0d6e1Kh7YgOws0hVVgpUFLxAa/i6ZekjVZCq60WqGhoZfc9qhi/sOf9gDG1tUe8AGH3TZu3L8CxaNsqkOgFFC1Vi+A6fkM9IPEUsjpDipPasbrBX6GNU3Ufc3cDF8G5YG6E3YKiOMdyjtkef5UIU9vdM0vOyj4BN0gfpBBjaJvOLVFE1jQIWt+jv79g7mm7fM5ZuHB9wwzOyLuNTstIWM+5oS/vaWtNBdYTDIl+UdpzoaE+71BH26Nw92t8tow+QyqT7QIEKI1Rm9MKgs5Z7JWPjMCVUuW4di/8+GKRqhYlFqkSq5vcV94vL+Qrkolu+QslU9xUqAnrEqtZXjspXWMuBtR94SFpYX/3cRprUx+nvFV+Rj+Ar+IE9LNXXb82+gu5p2JJ+5AcXnlT1btyQDotI4SssiG2+orbWV/o6u+z54L6SH5C1foKWezXLV+RfG7emd7/7l4JUBala9mqE6olPpS8/9kgmVBGher3kC89XiRVgPYpXLH9ddaSq4AXDDP6Oq2AG267BDUamRKqEF1ACF216H7I+rAUuhBmoCDjZ3pIjVVV8zeCsYQbhAUsLzMEK8AK4gUwXI1ZgZ20TpQIzGL4WVmZeVhVfC59rHwxuBCvjayJZVlWQoIVaFiBmbc3bd46k2/cKX28fTCdYq1L/wyv7VfE1a2/th2wJnxzUOTva29JEtzCKCNXuHmGHwf40AqESRioBi0qkqgYzFHxVwV6GGTxoMTV5JFvh8rIIpOq+dMOb16XGptbU2NimC3HD+wi8fmTF4NWR5JK7aKxaaqPwMvpWGb/LiJXPGUF3y/AOFhmBbxNzbU1HRLRYWBeDn+0nZCnjylikLjHSDqu2NCdtY3xKONJCns7LmHQAAKTNl1LnIbWPUXnO8xQpSJY6EkRK33sbRpeyivO9+0bTPfvG0m07h9LNE8PppomRdGZ80FL+jlDeUUYmjenocF86Nj6UJkcH04QI1Y6uzrRTRGq7AGNPZ4cRKhYjo7KLM2hq5Tfo/rix7V7BnLOh3eDc1yBVK1WOHJ1J69Zvqu8rNQ/GK/EV1q9yYpV9RS3EioeipczKVw6Zr5R5VtlX1L/p07W+Qnpsra/YQAQPSXxFfgDh2i1S9cOLQKpGmralE2OD5iuE63fo4Vh8ZbynJ3W3d9gLwldDL77Cw3G2r0Cg8A27h+YnPH/wsSBVBtqDVC1rhVC9/MQnRageTV94/LH0jxGhet3laRGrX6d4BRGrbwWxWu66KkjVex+ydx2ECsxgxKq83wwzgBMcNxhOkHIM3GDvxowZwJc2fUCYgYrb4AXH101pygIXjq/BDIe1D7E6YwOxPhhrxAosnHGDYwawAsENsmA8+wvMAHaGbDm+brfCbmBsCBY4wxWiJpwNFhGhug1CJnx9956RdO/+sXR+14gtUXTTTioCD6RjYGrD193C173pyFBvmhHxmhJu2C58vV2Yepcwww6RKjLAGhtEKK2gVR6IBV8LN5ToFPfF+InhBe5ZFV+vXbshHZpaYlJFCcImA4quNhHfQE0mVrpA6wAY3Ixfw6i1vVktDNIjVk6sMLwBRpEqSq0f7hSjlqEBjVNi17RU4oMMARgxmLFiKXNCiEzZqDvbajmO8T3v0yuc3NQv48tQNw316LtyaUcZ39KepBaOhI3rXCNuw73pThn5LjHp87tH0h17x9Md+7enuw7sSLft0bGDE+n2qZ3pjqO7010z+9Id03vT2QMTZvi9Q/1pvLc3dTCHSsYFIPoKzwBFN7gBRRnYDM290TbpfsX4haiuMVIV6X8rTY6KVDHHZ15fwdavwldIHYVYjchPiq9Qar3iKyJUjEQd1QPzDA859emKr0Ce8IUaX6kORORBiOwrEKy9i5D+94PXvTFNjvakB05PpvPH9qbT+3ekSREsfGVMhKotz6FyXyGaO7+vGKmq4ysbNm5J73p3pP8FqVq+WolQfeBRj1BF2fQlE49YURXwr9PzQayWta4GUvVekSqiKgUvOGbIeCG/68o22LmKGQpuUEsqoL6DwhWFWA0VfC1ljtVUxgxkt4CvqWlwWu9/CBVzrWjBDwVf3zrouAFsTeQKclUwg1XdruBrX7wXfE0V7VIy3VvfNyyOCoffPjEkfD2a7tgzahGrOw9sN71NWPu8cPb5yYl0l/D13cLWdwpjnzu4U/h6OO0b7EsTfX2pu61D1w1mELaeha8dNzAQC1YwzKB7Y3iLe5gHt8EQa0Sqpg4tIam65577LAexqanNtABFA4s5TMkcErYdGDqLLgY3oChDlwvfJOMTxenU3w2b4T0HdI/A4iTVzmRsmDRGnxYwPIH2MH9EhEhKHijAEcMTlvSQpYxvHcA7BJPxLDIFuaJ8OutLyfjnxIKp9MdkudP67LQ6xVkZm3r6RLSoo39OjPpmVnbePpTu2Dee7hKRuuugjL1/PN2G8WV0I1Uy+i2Tu9LMztG0b2QgjYhB+6rOVC/b5utSaZtUJpzGgKKu35m0OwhGdwfKhjfnaUprdb/f9vYoVLHS5NixGZvjU9dXio1tu76vsD3bV+gjDEI0+yCE/KQMQkzV+AqLas/U8xX5CWql1rOvnJev0EKweEBaBUH5wuKQqutEonrS/ScPpJv0cDw2MZr2Dg+koa7u1Kz7UCK5Gymfrm277vl8Rfeu6iu0fg83bNgcc6oA70GqlqVSlOJlS/l7NH3hg++PdaiWgXyhptw6wD0KWCxPXRWk6n0P6T3WWMELF2MGvesyZihkoWCFsl2LGXh/ghnade5gwddS1rCi3DpZYYavRayocE2pcwrGMdcKckX0yvB1rrZN1IopN2AG8DXTCRis9cCE8DXrUhV83S98rWMnhD1O6e+sRgEES/iaYMbpPuFr4fGbxgbTLTuG0nmRK8fXE+n2jK9vFda+0/D1vnTLIeHrXWPpwMhgGuvtTW0t7SJRjXrnb61OFRBWIPWx4IZZaX9oxgw+COvba9asT5NTSzin6t57nVQVg9eqgRyppzjJyFIAYlEujDCclUbWxVqoUh2ITsCqxywOPNTI2jysCt2SdolRH2jzeVZEqghVHuqirLQIlgzvkSafaFf0xr62CsGCXRNuJIxJWBPDY0xjzBhYxrUFyNSeU0c4KwOfVWeAXJFCRalH/s9xdYTj6gCndA6FK06N9KUZQpM6/7BY+fT4UDouMnWECJVA4mBXV2oS8DXmbOxZKgPXhiXL9XNfzNioOY3fN9vO93Htmo0iVRGpWmkyPe2kqp6vmHNnXyk2n+sr+AW+YiS8xldIm6UqIBNRZ/lKe7NFrYqvHDZf8TlX9X2lOhhxW42vMCl1d+PmRZlTNa7fd3rPeDo8NmS50P2dnerjnu5nvoKf4B96WNY+IC/nK+U+RqGKIFXLVUuVPydUUZRiOQkRK1IBP/JkLBC8XHW1kCoGD2fjBSdYFczAtpGrMgBbxQyGG/TOJFgBbuC7Cr5u1T7LGVFunXlWrH25r+BrkSvHDG2GG44ZsSKVD6xQcEObFcGy6NQczFAiW5AwJ0wZX6MENEZ6DWOfGeg2jM13g0tMReYcX7MW1YDja2FrUv4ODfRU8PVRtfsJWPR2p6ZGslJyhGoefF1wA/cEzACWLrjBNOMvghZLuk7VPSJVpP81N7eKTUtlcBSjG5kqqh8N4DHVBRVQZKFJA4qFXGXwSBRHN6NVnWCgqTmNt7QkKp1NqAPsFWCcNMCYiZWAmRleHQDyg+Fh1id7WtOpbqm2AZAwaAzO/CvmTqEWtcpayBUdoESqWOmZ1mr6S4/K6HQwWiqSHFTn26ffA9Pfz4Q6sfHJob40KWPvZuExgcSyto6xZwOIbvAtZnSOAZC5bs973SqAzMR8M34JVaolTxRGvW7tpkj/W4FyTKSK9L9L+koeLanvK/6AZLuer7A0wZB8ZXutr+ghSc40vlL85SJfUV92X/GKgfiKPSjzA5IiLfubtix89b83vDENtjSmw3o47hroS702f6q+r7if+IPxcr7S0ID6M8cLVQSpClK1vBRCxTpURqg+8GgQqmUo1VRAX8cqiNXy0tWW/nc5zGC4wSJUIle8G/UutEgV+DJjh8o2g5R6rzZvbUj9jR6xotw6uqe1yaYNGKHK+JrgBZiXWgYMyKInhK1P1uBrsHTBDAVf27qyYGvD1wQyRK4skOG42jC2iBZZNAQsHGO7gq8p/c6UBuaL76MgHIXhhvrTweG+tHeIgEW3CBKYIUenajFDxg123ZBJ3Y9qpKqaBliwA/cSjE3QYmop51Tda+l/IlUtbanZ0pqy8SvpTW502gpYLIaXwrCdRQocqoVBlxzQAqKadAN6xESpDMhI/A7pLhmekXhG3qdl4KNit5Q0J9UJ0sPEO6oEntQxQCOGZ9KczZmSgekANqekn9F5zwGFbN0oAOlEqjOdEovG2Ce1j86oQ5zQMdIOj+j/HZJO9bAeVXeaosz6jmHpSDo0Mph26liX7slWXcOGDducQWPgfF2ojbrnazTQzDHdh1pwWJyFe4jB2aY6SZCqlSfTlv4nUlXHV2onoM7vK+4Xl/IV1qTok6+UsD4jULvlKwdtbpX8IvddfOUI5VRn+YprxVf6/IGIb+xbDFJ13XVpQORvzwBzDVut/9f3lRyh0ovArtn0SnyFRbW3BKkCyAepWjZqC/t+9tPpy+9/RITq/bGw7zKWLzz/rSqxijlWy0pXC6ny9L/W1NxcxQ1WtII0QMMMuS24oYIZeDd6a0QK7GCYwbeZPsDc5MZtjalbxIq52VZyXe0uvZf3CTMYRhBeMMwgTADeZkCWiNJx4YaCrwliWPYLgQkiUfPi627LBrMaBuBrMLX0pLZnSDXsB1932sK+U9JDwte2zutAT5rZPmQYmwywXX09qaetvQZf5znXFczAtWZCBVYwfM21F1Ll2KFErJxQcS9J/9sgUrWEkar77r3fqmU0tbSnJhm9EaMbk86kqlGGzsam3Zq3zeDqCNTcLyPwbni2s+bjRHKI9rCWFSPxHrVqThPqADZ/RIY/KrBIifNjMgjbrBpNWuBML4w6R66MWXsHsLklhDHFnpm4b51Ahr9JpMpKQqolPHlaneAMHYFQpdjx6aGedEyd5/hgTzqufSqXndw+bCHJabWHtT/R25Padd0wZQtJZubsLLrG4HZ8m4ztxgcolopmZuwcmSoOU8KV64JUrUiZmT4u598yj69kP7mkr/gC2pWHRH5IVh6U2VcadJxiL8M8IFtbjFgVX2H0hzKl033uK0eyr1DMYkb9epav0JqftKddDZsWZU5V65bNlUV9Z/mKtOorarOvsH3FvqLj3O8gVQLzQaqWhTqh+oyVTQ9CtTKkEKsot768dDWQqve972G995uMUDU1i1gJUztecHzteKG0IlOGG6qEyjCDWntvCiNw3IkHLUTD37Fke/g8qyq+tqiV4etWC1qAryE8R430QLAyvta2YwbHDUSwPKLlFQSNZAlnM42ggq+FtalPcGaoW+TKaxWcMbzdY/9jWiTq+JDw9Sj4Wth6fNDw9RHh6139vamjqSVjhjwIm6cHzMbXbIOtfS4V98AiVBkzcL8qeKFgBt0DIlVLWv3vnntEqtZtTC3NAooVFl1VSBU/uABG28b4sGlaA4rqBLpogCHHDURZWqCnOXHDHGQRrmxKfc0taVzGBjCSDzohVr0fVp0NPyPWyyJhUzL2MRn0jAx5SoaESHnuJnX5ZXhtn4Ixy/CnRbAs/5Pz2cfww92mpARawQoZ/oS2iVidkXFPjPSn6ZG+NEUo0tbW6U6jXZ2pRYAW5gxI5HcDFDcKEFaAIdeSjb55s0jVFm1L3REwthvcASPgEONXdZ2MHqRq5cmxYyJVm7bO7yvFPy7pK/4gtNQ39Y/iK4zCFF+hv0HU6YcDPCDlK+PyFar97JSvHGj3h+Tx7CtH1Z8PyRems6+c7O+Y5StsTzRsTj+80JGqN74xrXnzWvvt/mCcz1fc/zfhI+YrTiov5ytGqjaIVMWcqiBVy0BLhOrZTKhe/uY3s7VClrs8lYnVR7/wt+k5I1b1gX7o66erY07Vw3rvO6lCZ+GFPBDrxKDMq2Lb34f2jgQz6J1ouAHVNmTKolQQqwpmEBbVO5asMMPXra3C181pTHgBcmVRq27hgYKvhYMhVkeFlU8KG4OXT7ItrDBDJIvsFxEryqmfEq6oEiyfckDlbrD1jSM9wtYdPtcqEyxwyanR/oyv+9Mh4et9fY6vx4WvWxubDUdZhMpwQhmM5Vpm42swkXMLV+5LbdXghowX2PfWSdWSRqqYU0WkqqWl3dm0wKIZnbYGNBaw6ECRylxclAPFzYBCLhbjZ6N7lAqgKM03p4BGbkanGPUIxEq6QyDRJue3NacDYtWQK0gVo/B0gOODkCwxbB2nYxDSJHdzmk6iYyUFyifKtafj6iwnZfTTNZ2FNEAKVDC6f3yo1+rm76c2fkdb2t7elsbaWlNfi65Tv22DDLtepAqWXIxeq3Rk7+TeMkpg23nkHaMDojF0AY0GFLPDWKTqbUGqVpowp4rIyWv1lS1b3VecULmv0H/sITnHV6xinlr6Y3dzcxqd4yu75SsHieZmXyG6i58YydK2+UqX+wo+Mr5NpGqBC1W84Q1vSP/hTWv8wX5FvgKZ1MPfrh9f4fkxv6+wHaQqSNVy0Lkpfy9/88VsqZCVIk/lBYI/+vTfCtBHtGqpdXVEqh6y95rhhZaMGQpekPr6VQUz6L2XidaWTKa2CjNs2SLcUIuv0Vm4IWNrKe9g8EW7iMuwiNW4iNVEW1vaIXy7U9v7qQ4oPHAUzCA8PC0CdNyCGJ4h5viawnG1+Jp6BMLXJW1Q+Bo8fXqQ4hUENTpsnzTAaenMgPD1YE860N0pfN1ui/uOCbf0ter6dS8YgF2/catjhIwbNqo1vHARZtB157YMxFYxg+9XMYMrhSqmlrJQxb05/c+AYk5rsrzP0majm8rYJW+xGBijG1DMF7dFirEr5EpG5yYZ8LJ9Nz4tN9hYtW76RGd72imCs1PAcY8Mf1CGhElPi+HOUDFEDBjwiPFZoZmUQZTUJ9/2SidHYN9qTdURmJ91xJQ0qfY0qf8zyerNMjJpVWMiUkMtLaldxiA6wCi7GTm3Dg4dNLrm34+hAYZMtDfjupHL3JCKsW3f05u4dzjOmiBVK1KmZzz9r66v5HD+pXylQqrq+ErtyFPxlUpfkzarD/XX+opafGVvra/0u68cy75iEazc74e3bkr/ZhFI1ZuuX2vXcElfMQJV/OTyvlLuHcei+l+QqqVWq/IHoXrskfR0RKhWtDz1HBGrZ9PHLgSxWmpdFaTqoWr6H5ihghekczNdDC9khTQUfA2pglAUzMC2z8UuGLuKGWh9QLbBBmR7SAcUqZoQtiaAMCHMsFvY94AwAeQKnMBArOFrESzwNfO1pwwrs5iwsLWw9CQFL8DUGV8zN8uLvnlFYsjYIf5O2ORgV4dwif6XcPW48PWw2g6RPMjRLHyt3+i4Qb+/ghsyZij4ug5ucHUC5TjCsbVhBpFSK6m+lKSKOVUslmUGrxg7q4CitxjdQWMZfTcwhGagWCJV1hlkXCdVbMMynWnSAZigXyajYXzSgVp1U/rEqscAihhfhtktMLhXRtqvfYjQVDY0+aAY/7DlhQo0qj2gzmGV+9QBDghkwsZJJ2T7gFr296kj7RVb36P93fpOKqwNC6T2NLWkJv12DEqEqqxBBUCsEKtibG1bWNKuxY3uxErXboaXkfVdxehmeIxubVV9TtWDQapWmMyIVFE4YX5fKQ/I+r5SSJX5CvvqG1fiKxvNVxiBakht8pX+VkZ+5Cvq7zvlG3vwFfkGvoKP4Cs+98oflEf0oBxt2LookSpIFb+3vq/w+7OvSP3BeOW+Yul/Vv3vl4JUBalaEjVCRZW/D3iVvyBUK1teeeWV9GQhVk+TCkhVwPqgP3RxdbWQKt53RqQocFUwwyxsTcQKzDAbNxi+JmKVSVUFX2vbBmmNVFUxg+MGx9boBsiKMAMDsmRhgRkmhBkMX0N8hBP2aR98DSFCDV8LNxxRS5EJcPaB3kvja6YjkF7InO89wti79X92CM+PCF/3Cl+36P+Dmw1b18y7Zp90v4IVLomv7fpdK6TKNGMG4aKCGyxStaTV/+59oBKpapHRPbUpM2qpGVqtVTfD2FktB1StGxkABDDKnQHjG8NuNuNyg+xGlZH4vF8xvG4m80waG0h1EtmRcXbJoHv6ug007oQQqd0n0HhALSPzUzL0YVi19KBIVUXpBPqcEXw6DIx8X2dH2o2x9fc7xNpH1MF6ZATmd/FbMLKBQjM6aX/eKS0kmUGid1Y3vndgB4l0cMBfmSODmoGlZnjuVW7L/rp1UVJ9JcrMzAn1D49UzfWV4if+gJzfV5xMuK+4n7ivbN58aV9hAIJ+ar6iY6yb1tvSkkYYJFCf39vb5QMSc3xlkoelfGSkUaRqgedUQaquv0GkStdwKV+x8P2r8BW7b7TSKKkepGqp9HtlHSoI1WNBqK4VgViViJWnAsYcq6XQ1RapAjN4tMrnZBfMwDZpfxVCZZjBcQNFK3hPXoyvM6mq4ASwrGPq0oIZNggvQFbA1xCQroyvJ0SS9og87RY+3iWsvFtYeS94ueBrYWkLXGR8PVnwNfv6W/DFvk6RK50Lvt6TsceECNWo8HVvY7Mtp7RVOKAWW5e51/779FnGDYYZRADZnouv/frrYIaMFyzCB37QveE41bUPHVpSUkWhCkhVjdErbFrGr7DnqsEBhw58soENAHHc98s2uZ/GqO1m0AmcxNR2AEsXMsAIiQGM6WbqM9htt1juUCsdQARroDcdGER70l4Zd5cMuludgTDjPnUMOgSG5VgxsEe9CH12WNoUOabd6rwwdzOsseZiaGfMxfjWUVH7vXk7a9Xg/FaqkXDNUmurzLkAQ2PTNZ0gClWsTLH0v02Qqvq+gp+8Jl9Re1lfyX5SfMV8R7pNn7WqfxHm52G5s6cr7Su+MtCd9shXeGD2bN64KOl/11+/1n8/vlHHV/CPqq+Ul4PU2vq+Qoqs37OYUxWkamkUQvXyE59KX/ng+51QvRSE6lqTJ79SLV4R5dZff101pKpBpKoGMxheMMzg2BpyVQZiC24AFxh+0HtyFmbQtrdErwpm8HM8HdAHMi/GDDlFn3eyFAzcJcwAvt4h/Lynv7uKr0WmwM27hbHr4WuCEwQ6UMfX7Wm7FHzdI9IGdrepNODrQqLA1jX4ugy6op6R47+NSNUsfG0qTGD3oGCEKmaoYGu2he25f0s/p+q+B9K69Rtl8A43OGHKomZ8GHRh0VWwyHbF+MXgW1E3ejG0H5fhtW2Ld5li/CqpMpCIat9H5J1h03KTG3V+R1NrGpThxsWSx0Wytnd1mO5gMlxvVxoXWx5RB6EMNTmcw22t6jAUn2gxckaKIQbCuBaKNAN7WzFu/j3OnDNj5vfS6rOtm33bDG6d1w1+kdH1vzC835vqcf8sIlUrVaZnTqhvbJ3XV4qfXJmvVP3jinwl+8WlfIU+2qS/7ZKvDDGQkH0FH+nYumXhSdUbPVLFb7+crxQ/QRlRqvpDfV+xe6c2IlVBql5vtQiVEarHLOUvyqZfuxLEaul0NZCqh0SqeMd5VksNXpBCrApeqGIGxwqOHbSt9yLvS8cGBTfkfb0fa7XghZIW6HjWyVQtbiA7zLGDY99GERNKnPe3t6cxYQUq9G03Lfi627bB1yyJNNzSmkaEr4e1T3Viw9eNem+DU+x/QpAcW7Nfwdf5/xZCZVihECjtXxJf67ocJxTM4FhqLmbgszVLXf3vvvszqWolpalqeOaHkO851/A+mS4DRi7KjO8GdnBYLrbVtg0kZmMXoFiql5iRudFmADe4GTvvY5QCGP0zZ7iMeDMJj/Q9jNna0JRaRJiaRYSaZIhGbbMulpEnKbXwKY/u3+Wkyo0s1mz7/v1maH1mBtV3k8uJsdzIUj4vhrbWjQlZs1F3jC0ti/wWIG1hSYyu38rnsU7VypSZ4yJVlFSf6yv4SU363+V8xR589BvzE/QKfEV9r8ytmtdXNtKn6/lKc9qwdn36wQUmVW8UqbrhzWtzP7+0r5QI1ZX7CveqOW0KUuVgP0jV66LMoXr503+UvvIBj1B9NyJU17yUOVaxjtXrq6uCVD1cjVTZVAHwQjO4uhZbt9g+20052mLkquAD7Rd84AQqH8/HDE+YZuyQp92ACRxf+/Zc3OAkp/a4H+P9DUFq2tZo+Jp53M0ZXzfrXQ6+Zi3Ngq+JPBWM7d/nGNsjVP7drjquv6sQJjAD+IDfXjCDtIqvnUw5tqhiBtOMGQpeAEN4pCqn/y3pnKr7HrD0P0tlkuFtgTIjVW7wWaQqG9tZtBvYLgqj28Wj3hlYxMyAI3OrsqEBh6UDGFA0w6ACj1JuPMedZWMwsWoLFRajEzrM25AkfbZe7foNmThlkoQ6iWLflVS/YthiXGfU3jn8d7gWg9aqGZ3jassxv17uQ3UbNVBo94qOz7ar3z+RqnVBqlailDlVc32lkKkr8RXrL/QdHSuL/vGQvFJfsUX/rJ3jK7nfl8+835ftRisocd1119UlR69VIVVvFqly/+cBuMC+ov1Nut9BqgT4g1QtupaiFKT8PfXYI+m7MYdq1cjnLWIFsfKqgEGsFl9XS6SK95phaiNWrpRTn4UXbNsr2BXcwHwqsLRt6zvsnWnvSccMRrDmYIZCUAzrGjYoOhs32GcZM/jnBUM4uSIAURdfZ1wNvl6fsbXja2nNd5Hp5f8vY+uMXxwX1OBr4QHHDOWzfNwGX6s44SLckPFBwQuoE1JI1QaRqiVN/8uL/wooktZUqpQ00glgzzI2xkc971OqthjXWjN6NnYGgqUTFOPbqDuGz5/7vm6m3WjvEM5i/RjGKQa2zyBded+IlRnXO4IxZBSjmjb5sbxvpAkj6/std1Nq/z//n0KyMKoZXv+LfM7yezAw51c7gn5/KaVertM6gRvejewO4k4irTgM6X9BqlaiUP3PFv+t8RUelOYrNvrkfoLP+KjJfL7iAw+FNF2Rr1i/pE+6r/hDqNZX8qCE/W0O+ctPzFcgVTcsFqlaZ9eEr/gDcT5fqT4Qr9hX9DkkNkiVQH+QqkXVyjpUFqF6JIpSrEL5/FdeqhKrSAVcdF01pIpIVStzqpg2AFYAJxS84HOsiGIZvq7FDWCGjBsKvkYtDZD3qGnGDHr3gg1qsbXjZscJc3EDxx1fgyl830lWxtjSi/E1BMrxtZOrgre35f9XxdjgZ/6XYRL+p/bts/x7KvhaWBucYBgBLKRtcAGVkWvxtWn+DMzgeMGxQ8ELBT9AqpZ0TtV9D9wvJroptba2m9pkOoiVQGKLDE0HMGJlk+rcwHYhMrxtCyCybxet1gysm1O9EYBHbrjfTIAXIT3OKwBws26eGwEGrX19zvHaxVAhQlbIghZjiwi5QaXatn3rGDIWAFNaTfOj9Q5Vy5ztXG0bmSqaP+OYpy25casT6zGsdwTAYRUg+rlmXDlEo66P++IlMznGPfN0p/XrN6V3vCNKqq80mTlxQn1j2yxfaanxlcoAhE08vZSv+GdlAOJyvmJzrMrAg/paeTDW9RV9VgnLo+YrjemGRSFVb0w3QKr0++b3FX9QXuwr+EIepdM5+E3FV+ye+cNzs0jse94TJdWDVC2eGqH64894hOr9EKpY2He1yue/7MSKcutBrBZXV0v6X2NTi00ZADPUYmuPWEGqRLBy0QrWWSq4weZUQbDYBh+oNSKld2eFbFyEGfw471wnOllrcEMZrJ21cLBwteFonWOYoWBrSFbGEfZ5Db7mOP+XY5V1NrVfwdhSHwjOatt+jv8W4QDtM3hquEC/yQtVgReKghvADK7cC+6TYemMqx1bZ8yg7yJocfjQ0WyFy8uCk6r7739AIJ9IlVcn8VH4DBhl8GppdTeuM2la9jObxvC5Rc3wpgDHVjM6xsSQdAg6Ajdws86BWJXz7YZjCH3mRndjuPHdqJxT6QgYvABJzrPP/HPrPJyTz7f/DzC17WLk0tH4n25E/q8bnW0ZVL+rgESM7R0gX0fF0DKm9i0c2ehgsaRFOpt20Nhon7XY/X7HOyJStdLk+PGT6jNEqi72lWqZVCcKr85XeFjO7yu0NgBRfIX93L8v9hX8Al+p7nPuDTesF6la6DlVhVTxYK/vKzbalI+VSj3uK9rmgVjHV2zuYZ5/uHnTFpGqiFQFqVocrRAqyqaLUH3nxSBUq12cWD2T17EKYrVYuhpI1cMPP2Kgv4KpRaYuxtZScIJhAmEDnW84AdyQsUItZqiQq1mYwTFswda8c30wtoqvOQZWLvjCsEJFa4IN5dgV4Gu+34Id5Vg+br8nHyvY2n6TWr6L8zjHMAPKgGvB13rvO2YouCHjAh1j2+9V0dnYmpaaBYeXsqT6/Q88kDZs2JhH3pkrAoOeTaZMi/FtFL4Ax6K6OO2bwTG0Ltxvlgxs+97yefnMQGOl9XO40Wa0YhzUOowTnWLsMv+qECbLD4V00UqtkxXj6dwCPp2hl07G97q6sfNntPlY+a1uVF2jXYcbuhArPvfJ9v6ZGZZ7YoBaf2fAsQBG7whe/S8iVStNjp84qb5RU6iixlfcP3Kk5Up8ZVsuTkE/sj51aV/hAVl8xfqy9fm5vkLfreMr+uyGNy8OqSL9j+sqv/ViX/GoVHlIuq+U7Uv7Cud4oYqIVAWpWnitEKrHHvUI1YvfyHc/ZLVLiVh9/AJzrCBW9YlB6GvX1UKqmpqo/tfmeAEVPpiFraU21aZhNm4omLqCGbRdMMJczOBkxI87lq3dzrjBcMLFuKFMv5mFGdgux+xvPCpV8DUkqZAqMmMMS+v/lSiY/2+RJo7bMQ9AlL+t4Gu1Rpx459v1+L7Pz/ZzClag5RzDDIYXCoYAP7iyzXSmJZ1Tdd/9zKla70YF3BQ1YOMXZKofS+sGrRrMLlw3gJtlzFP7fqOdpdpnZjSdT1uMxDlmLDcMhvawo7PjSriRzyFM9pmUXM6Nntvp+2W7VB/xqmd2vk2u82P+ff5ZIU38f/s9+XzrJPn/eUfhenSuzjfmbVqOcx7rWW2zY9UwpezZcbsAAAkcSURBVANCRuIt3Qk1EkZH8b9bs2ZDetvbIlK10mT6+HH1qU0L5iscM1+x/nUZX7F+qj6nbVrv87N9BR+a7St5cqmOUajiB37gDRcRo6vV669fk3/3fL7CMfcV378yX2Gf79iwfnN6V6xTFaRqgXVuyt93vvH1fOdDQlw+V4jVF//OUgHrEYPQ166rZk7VtsZL44X8HpyLGyoDqbxfa96xvFPBA1XMUNQjUYYDeOeynVvHDRkXzMINvJvrYIaMG/x8FHztWouv+Yzz7bs5LrXflrFNOddxtf+vi/A1eMB+f8EM5To5r+AGjjk+sHunz2dja8cZnPPmN29IkwcPZStcXhacVN19z71WFhnWZ2DGlJuii8rAxhinXWQ2QLk5XLRuRiFH3Dy72ZAXttVWjYJy3A2GIdZv3Jo2bNhq+4UsoeW4befW97dqf0tat36L2mLkfNw+823OXafz1tt51c+q5/j/8/8r1XexHo5tW+vbviCwiJO1W131me9Xjzm5yh1F98EBofZ1jnUIHaNldWnOueGGdennfu7tQapWmBw9Om3LD9T1leIn8ofL+YqFy4tPXKmvqN9aP+XYPL4yu6Wv4yt+7Pob1qcf+/F/n370x36iRn8y/eiP/kT6d1JaU47PanWO9Mdm6U+Y/viP/6SVL72sr9g1Fj+Zx1d0vPjKVlo71mD50b/4i+8OUhWkasG0FKVwQvVwEKqQeeVzX/aqgJ+AWL0UaYALqauBVL33ve/TO3+biMAlsHXGDKgRoFm4Qa10Fr4u+GAOZqACn+ED6Wx87efznna87HjCMPQ8mKHgZFftS9fZ3/h3Fhy+Qd/h55a/8XYWvtaxem3BNwVPUwRsFr6ugxtY8sjxgR+rxda+HFJDuv76tenggalshcvLgpOqv/jqV9PTFy6kL33pS6ZfLPrFGuWz2v0F0gtf/GL64gVpveOm2tbnF+y4H+Oz6rGi+bido3373M+rfI99Xv2+2X/v31Fty3a947WfvTot9/Dppy+kr33t6+lf//VfsxVCVoK88MKfWf+Z11eynyyKr9CXL9Q5Xtsnc98u/dR9IJ9nvlD9u1q92Bdeq5b/UX7T/P/zUlp7D/nd3/zmN9Mrr7ySrbA6JEjV4ihl051QPZaeevTh9HIQqpBLCM+dErGCWD1HufU6BCH01eu1TqroOy+99JK/0+rhBTRjBjun9vhVqmNcvX8veu/7vuMG7c+DGWZjgny87NvfcF7td/sxayvfWf2sflvv87mfXZnW3jvw9fPPv5CtcHlZcFIVEhISErK8JEjVwmtZh+q5x51QRYQq5EoEcPyntamAMcdqQfRaJ1UhK0OCVIWEhIRc4xKkamH1e4VQ/fIHPEIVRSlCXoUYsXrWidXHLvgcq6gKeHUapCpkOUiQqpCQkJBrXIJULZxWCdUHRageSi9/IwhVyGuTCrF6OojV1WqQqpDlIEGqQkJCQq5xCVK1MFpJ+fuVD6SnHmEOVRCqkKuTQqw+ygLBlgoYxOq1aJCqkOUgQapCQkJCrnEJUnX1Wqr8RYQqZKGlzLGCWL3wre8HsXoNGqQqZDlIkKqQkJCQa1yCVF2dlnWonnucCBWEKopShCys/Omz38ypgH+bng9i9ao1SFXIcpAgVSEhISHXuASpeu0KofqnP/msF6UQofrO14NQhSyOVItXQKwiFfDVaJCqkOUgQapCQkJCrnEJUvXatBCqr+QI1Xe+/rV8R0NCFkcKsfp4EKtXpUGqQpaDBKkKCQkJucYlSNWr10qE6vHH0pMQqr/8y3w3Q0IWV/4kpwLaOlZGrOoTidCqBqkKWQ4SpCokJCTkGpcgVa9ObQ4VhOqDj6WnHnlf+nYQqpDXWf7kGY9YfTITq3pEIrSqQapCloMEqQoJCQm5xiVI1ZVrtSgFhOqh9J2vfTXfxZCQ1098gWCPWH3yS39vxSvqkYlQ1yBVIctBglSFhISEXOMSpOrKlHWoKmXTH35f+vbXIkIVsnQCsfqTZ2qI1UtBrObTIFUhy0GCVIWEhIRc4xKk6vL6vTmE6jtBqEKWgXy/hlh9glRAkYeYY3WxBqkKWQ4SpCokJCTkGpcgVZfW75HyJ0L1/K88nglVVPkLWT5SG7EyYhVVAS/SIFUhy0GCVIWEhIRc4xKkan4lQvVdCNWvZkIVZdNDlqG8Ii3EqloVMIhV0SBVIctBglSFhISEXOMSpKq+Mofqu5+piVAFoQpZ5vLHhVhdCGJVq0GqQpaDBKkKCQkJucalQqr++6+lf/7cn1qFu38WsVrN+r0nP29V/iBUTz4UKX8hK0f++JkX06/9nkesXhCxeu6l7xu5Ws36wrdS+uxzL6cPfyJIVcjSSZCqkJCQkGtcIFVf/9hH0wsf+lWbOwSZsHa1qq7/25/8WHru8Q9Elb+QFSlErH5dxOojT/51+tLX/yU9841/sXa16pdf/H564tlvp//5hy+k//fi3+e7FBLy+kqQqpCQkJBrXJjo/vWPfyx97r/85/T8f/3l9Px/+9X0/Id+ZdXqC7r+Lz70S+kLjz4chCpkxcpnLRXwmfQ//uDP0+984qvpdz7+F6tW/9cnv5p+/fefS7/x+8+mb/z1d/IdCgl5fSVIVUhISMgqkJe/8fX0l//3/6Sv/eFHpH+wylX34KN/mL770jfz3QkJWZnylb/8u/TEhW+kT194MX36i6tXPyP9xFNfS1/6879J3/uX7+e7ExLy+kqQqpCQkJCQkJCQkJCQkKuQIFUhISEhISEhISEhISFXIUGqQkJCQkJCQkJCQkJCrkKCVIWEhISEhISEhISEhFyFBKkKCQkJCQkJCQkJCQm5CglSFRISEhISEhISEhISchUSpCokJCQkJCQkJCQkJOQqJEhVSEhISEhISEhISEjIVUiQqpCQkJCQkJCQkJCQkKuQIFUhISEhISEhISEhISFXIUGqQkJCQkJCQkJCQkJCrkKCVIWEhISEhISEhISEhFyFBKkKCQkJCQkJCQkJCQm5CglSFRISEhISEhISEhISchUSpCokJCQkJCQkJCQkJOQqJEhVSEhISEhISEhISEjIVUiQqpCQkJCQkJCQkJCQkKuQIFUhISEhISEhISEhISGvWVL6/wxRpHNtEDxyAAAAAElFTkSuQmCC;" vertex="1" parent="1">
          <mxGeometry x="-158" y="89" width="853" height="196" as="geometry" />
        </mxCell>
      </root>
    </mxGraphModel>
  </diagram>
</mxfile>
